<svg width="246" height="27" viewBox="0 0 246 27" fill="none" xmlns="http://www.w3.org/2000/svg">
<path d="M1.07861 18.7144H1.56152C1.65951 20.506 2.38037 21.9827 3.72412 23.1445C5.03988 24.2923 6.5516 24.8662 8.25928 24.8662C9.57503 24.8662 10.6458 24.4953 11.4717 23.7534C12.2975 23.0116 12.7104 22.1227 12.7104 21.0869C12.7104 19.9951 12.3115 19.1483 11.5137 18.5464C10.7438 17.9585 9.2251 17.2936 6.95752 16.5518C5.13786 15.9499 3.8431 15.453 3.07324 15.061C2.17741 14.5991 1.47754 13.9762 0.973633 13.1924C0.427734 12.3945 0.154785 11.4987 0.154785 10.5049C0.154785 9.39909 0.525716 8.31429 1.26758 7.25049C1.09961 7.79639 1.01562 8.2723 1.01562 8.67822C1.01562 9.77002 1.27458 10.7288 1.79248 11.5547C2.32438 12.4085 2.98226 13.0524 3.76611 13.4863C4.54997 13.9342 5.85872 14.4451 7.69238 15.019C10.0859 15.7469 11.8146 16.5518 12.8784 17.4336C13.9002 18.2874 14.4111 19.4352 14.4111 20.877C14.4111 22.2907 13.8792 23.5715 12.8154 24.7192C11.7376 25.881 10.1279 26.4619 7.98633 26.4619C7.11849 26.4619 5.91471 26.3009 4.375 25.979C3.03125 25.6991 2.02344 25.5521 1.35156 25.5381L1.20459 25.3701C1.21859 25.1322 1.22559 24.8242 1.22559 24.4463C1.22559 23.9984 1.18359 23.3055 1.09961 22.3677C1.02962 21.4299 0.994629 20.73 0.994629 20.2681C0.994629 19.6662 1.02262 19.1483 1.07861 18.7144ZM15.9019 9.93799H15.4609C15.4469 8.31429 14.8031 7.11051 13.5293 6.32666C12.2835 5.5568 10.7718 5.17188 8.99414 5.17188C7.5804 5.17188 6.41862 5.47282 5.50879 6.07471C4.58496 6.6766 4.12305 7.39746 4.12305 8.2373C4.12305 9.13314 4.48698 9.84001 5.21484 10.3579C5.9707 10.9178 7.46143 11.5827 9.68701 12.3525C11.7586 13.0664 13.2074 13.6473 14.0332 14.0952C14.915 14.5851 15.6499 15.285 16.2378 16.1948C16.8257 17.1326 17.1196 18.1755 17.1196 19.3232C17.1196 21.0729 16.4757 22.4447 15.188 23.4385C15.6639 22.7806 15.9019 21.8568 15.9019 20.667C15.9019 19.5472 15.6429 18.5534 15.125 17.6855C14.5791 16.8037 13.9072 16.1038 13.1094 15.5859C12.2975 15.054 10.9748 14.4871 9.14111 13.8853C6.38363 12.9754 4.58496 12.1986 3.74512 11.5547C2.90527 10.8968 2.48535 9.875 2.48535 8.48926C2.48535 6.89355 3.12923 5.64079 4.41699 4.73096C5.70475 3.84912 7.53141 3.4082 9.89697 3.4082C11.5067 3.4082 13.4733 3.68815 15.7969 4.24805V4.39502L15.8389 5.19287C15.8389 5.61279 15.8529 6.1167 15.8809 6.70459C15.9229 7.41846 15.9438 8.04834 15.9438 8.59424C15.9438 8.95817 15.9299 9.40609 15.9019 9.93799ZM23.2295 12.0796C21.9277 13.5213 21.2769 15.6489 21.2769 18.4624C21.2769 21.2759 21.9277 23.4315 23.2295 24.9292C20.8079 23.5575 19.5972 21.3739 19.5972 18.3784C19.5972 15.425 20.8079 13.3254 23.2295 12.0796ZM34.7773 24.6982C36.0651 23.2565 36.709 21.2549 36.709 18.6934C36.709 17.3076 36.555 16.0059 36.2471 14.7881C35.9251 13.5423 35.4352 12.6325 34.7773 12.0586C37.2269 13.4163 38.4517 15.502 38.4517 18.3154C38.4517 21.0169 37.2269 23.1445 34.7773 24.6982ZM24.4683 18.3364C24.4683 20.8979 24.8602 22.6336 25.644 23.5435C26.4279 24.4533 27.5407 24.9082 28.9824 24.9082C30.3402 24.9082 31.439 24.4323 32.2788 23.4805C33.1047 22.5286 33.5176 20.793 33.5176 18.2734C33.5176 14.0322 32.0059 11.9116 28.9824 11.9116C25.973 11.9116 24.4683 14.0532 24.4683 18.3364ZM22.7046 18.6724C22.7046 15.9569 23.2575 13.9342 24.3633 12.6045C25.4831 11.2607 27.0228 10.5889 28.9824 10.5889C30.8021 10.5889 32.3068 11.1838 33.4966 12.3735C34.6864 13.5633 35.2812 15.5299 35.2812 18.2734C35.2812 21.2829 34.6444 23.3825 33.3706 24.5723C32.0828 25.776 30.5991 26.3779 28.9194 26.3779C27.1978 26.3779 25.735 25.748 24.5312 24.4883C23.3135 23.2425 22.7046 21.3039 22.7046 18.6724ZM57.6841 26V11.0298C59.3778 11.0018 60.7775 10.9248 61.8833 10.7988V11.1558C60.8895 11.3937 60.2036 11.8346 59.8257 12.4785C59.4478 13.1224 59.2588 14.1442 59.2588 15.5439V21.3599C59.2588 22.8436 59.4478 23.9214 59.8257 24.5933C60.2036 25.2511 60.8895 25.6781 61.8833 25.874V26.252C61.4074 26.196 60.7005 26.14 59.7627 26.084C58.8249 26.028 58.132 26 57.6841 26ZM56.2773 11.0298V26C55.7454 26 55.2135 26.042 54.6816 26.126C54.6956 25.972 54.7026 25.769 54.7026 25.5171C54.7166 25.2651 54.7236 25.0342 54.7236 24.8242C52.932 25.776 51.2943 26.252 49.8105 26.252C48.7887 26.252 47.9699 26.021 47.354 25.5591C46.7241 25.1112 46.3182 24.5443 46.1362 23.8584C45.9403 23.1445 45.8423 22.1787 45.8423 20.9609V11.0298C46.2622 11.0298 46.8361 10.9948 47.564 10.9248C47.508 11.2048 47.473 11.6317 47.459 12.2056C47.445 12.5835 47.424 12.9404 47.396 13.2764V21.4229C47.396 22.6966 47.592 23.5924 47.9839 24.1104C48.3898 24.6562 49.1877 24.9292 50.3774 24.9292C51.5672 24.9292 53.016 24.4603 54.7236 23.5225V15.313C54.7236 13.9972 54.5487 13.0314 54.1987 12.4155C53.8488 11.7996 53.1979 11.3797 52.2461 11.1558V10.7988C52.96 10.8828 53.6038 10.9388 54.1777 10.9668C54.7516 10.9808 55.4515 11.0018 56.2773 11.0298ZM40.2573 11.1558V10.7988C41.5171 10.9248 42.9168 11.0018 44.4565 11.0298V21.1079C44.4565 22.6896 44.5685 23.7534 44.7925 24.2993C45.0304 24.8732 45.3804 25.3631 45.8423 25.769C45.1004 25.7131 44.4146 25.4121 43.7847 24.8662C43.1828 24.3483 42.8818 23.2145 42.8818 21.4648V15.6909C42.8818 14.2352 42.7069 13.1854 42.3569 12.5415C41.993 11.9116 41.2931 11.4497 40.2573 11.1558ZM74.6909 26H67.1743L77.7773 11.0298C78.0013 11.0158 78.6382 10.9388 79.688 10.7988L70.0088 24.5933H73.9141C75.3978 24.5933 76.4826 24.3203 77.1685 23.7744C77.8543 23.2285 78.3372 22.2907 78.6172 20.9609H79.0371C79.0371 21.4928 78.9601 22.3327 78.8062 23.4805C78.6522 24.4603 78.5332 25.3421 78.4492 26.126C77.4414 26.112 76.3706 26.077 75.2368 26.021C75.1388 26.007 74.9569 26 74.6909 26ZM68.707 11.0298H75.9507L65.3896 26C65.1657 26.014 64.5288 26.056 63.479 26.126L73.2002 12.3525H68.0562C66.8804 12.3525 65.9845 12.5975 65.3687 13.0874C64.7528 13.5913 64.3398 14.5081 64.1299 15.8379H63.731C63.731 15.222 63.759 14.6621 63.8149 14.1582C63.9689 12.8145 64.0459 11.8766 64.0459 11.3447C64.0459 11.3167 64.0319 11.1348 64.0039 10.7988C65.8236 10.9528 67.3913 11.0298 68.707 11.0298ZM85.084 24.3203L85 24.4463C82.8864 23.2285 81.8296 21.3179 81.8296 18.7144C81.8296 17.7065 82.0186 16.7337 82.3965 15.7959C82.7744 14.8581 83.5653 13.9132 84.769 12.9614L84.874 13.0664C83.9922 14.5921 83.5513 16.4258 83.5513 18.5674C83.5513 20.793 84.0622 22.7106 85.084 24.3203ZM99.7603 17.5806H97.8916C97.8216 15.033 97.1567 13.1644 95.897 11.9746C98.1506 12.9124 99.4383 14.7811 99.7603 17.5806ZM86.9316 16.0269H94.4062C94.3363 15.019 94.0073 14.1232 93.4194 13.3394C92.8035 12.5555 91.9217 12.1636 90.7739 12.1636C89.7521 12.1636 88.8913 12.5205 88.1914 13.2344C87.4915 13.9482 87.0716 14.8791 86.9316 16.0269ZM96.5059 17.5806H86.7637C86.7357 18.2804 86.7217 18.7074 86.7217 18.8613C86.7217 20.681 87.2186 22.1437 88.2124 23.2495C89.2062 24.3413 90.501 24.8872 92.0967 24.8872C93.4124 24.8872 94.6022 24.5303 95.666 23.8164C96.7298 23.1025 97.5697 22.1437 98.1855 20.9399H99.0884C97.8006 24.6213 95.3511 26.4619 91.7397 26.4619C89.5701 26.4619 87.8975 25.7061 86.7217 24.1943C85.5459 22.6966 84.958 20.8 84.958 18.5044C84.958 16.2928 85.5039 14.4521 86.5957 12.9824C87.6735 11.5267 89.0802 10.7988 90.8159 10.7988C92.2157 10.7988 93.4474 11.3237 94.5112 12.3735C95.561 13.4093 96.2259 15.145 96.5059 17.5806ZM103.372 21.1709H102.868C103.288 20.359 103.694 19.8481 104.085 19.6382C104.491 19.4282 105.149 19.3232 106.059 19.3232H109.334C110.608 19.3232 111.504 19.1763 112.022 18.8823C112.554 18.5884 112.995 18.0355 113.345 17.2236H113.996C113.45 19.6592 112.106 20.877 109.964 20.877H105.072C104.26 20.877 103.694 20.9749 103.372 21.1709ZM111.917 16.1108H112.442C111.994 16.9227 111.581 17.4266 111.203 17.6226C110.811 17.8465 110.16 17.9585 109.25 17.9585H105.954C104.694 17.9585 103.806 18.0985 103.288 18.3784C102.756 18.6724 102.315 19.2253 101.965 20.0371H101.314C101.846 17.6156 103.19 16.4048 105.345 16.4048H110.237C111.035 16.4048 111.595 16.3068 111.917 16.1108ZM116.41 20.415H116.725C117.145 21.7168 117.838 22.8016 118.804 23.6694C119.784 24.5373 120.833 24.9712 121.953 24.9712C122.835 24.9712 123.598 24.7472 124.242 24.2993C124.858 23.8514 125.166 23.3265 125.166 22.7246C125.166 22.0807 124.851 21.5628 124.221 21.1709C123.577 20.779 122.401 20.408 120.693 20.0581C119.014 19.6942 117.761 19.1623 116.935 18.4624C116.109 17.7485 115.696 16.8597 115.696 15.7959C115.696 14.9701 115.969 14.1932 116.515 13.4653C116.459 13.8153 116.431 14.1372 116.431 14.4312C116.431 15.131 116.641 15.7889 117.061 16.4048C117.453 16.9927 118.006 17.4406 118.72 17.7485C119.42 18.0565 120.595 18.4134 122.247 18.8193C123.815 19.1973 124.956 19.6592 125.669 20.2051C126.369 20.751 126.719 21.5418 126.719 22.5776C126.719 23.6694 126.278 24.5653 125.396 25.2651C124.529 25.951 123.262 26.2939 121.596 26.2939C120.126 26.2939 118.433 25.937 116.515 25.2231C116.515 24.1593 116.487 23.4035 116.431 22.9556C116.389 22.5356 116.368 22.0877 116.368 21.6118C116.368 21.3459 116.382 20.9469 116.41 20.415ZM128.399 15.8589H128.105C127.615 14.5711 126.831 13.5983 125.753 12.9404C124.69 12.2965 123.612 11.9746 122.52 11.9746C121.666 11.9746 120.91 12.1426 120.252 12.4785C119.609 12.8285 119.287 13.3254 119.287 13.9692C119.287 14.4591 119.525 14.8371 120 15.103C120.448 15.355 121.33 15.6209 122.646 15.9009C125.361 16.4748 127.118 17.2096 127.916 18.1055C128.714 19.0013 129.113 19.9461 129.113 20.9399C129.113 21.7938 128.721 22.7526 127.937 23.8164C128.049 23.2985 128.105 22.8576 128.105 22.4937C128.105 21.4159 127.741 20.429 127.013 19.5332C126.299 18.6514 124.627 17.9025 121.995 17.2866C120.441 16.9227 119.364 16.5168 118.762 16.0688C118.146 15.6069 117.838 14.9281 117.838 14.0322C117.838 13.0244 118.293 12.2126 119.203 11.5967C120.098 10.9948 121.421 10.6938 123.171 10.6938C124.837 10.6938 126.544 11.0368 128.294 11.7227C128.266 12.0586 128.252 12.2476 128.252 12.2896C128.252 12.8075 128.28 13.3534 128.336 13.9272C128.378 14.4312 128.399 15.075 128.399 15.8589ZM134.446 18.3364C133.564 19.4422 133.123 20.653 133.123 21.9688C133.123 23.5225 133.669 24.7962 134.761 25.79C133.907 25.5941 133.151 25.1672 132.493 24.5093C131.807 23.8654 131.464 23.0256 131.464 21.9897C131.464 20.1841 132.458 18.9663 134.446 18.3364ZM147.946 26.252L143.915 26V15.103C143.915 13.9972 143.81 13.1854 143.6 12.6675C143.362 12.1356 142.949 11.6807 142.361 11.3027C143.579 11.5407 144.405 11.9746 144.839 12.6045C145.273 13.2484 145.49 14.4032 145.49 16.0688V22.5566C145.49 23.6624 145.644 24.4533 145.952 24.9292C146.246 25.4051 146.91 25.7201 147.946 25.874V26.252ZM140.976 24.2573V18.7773C140.514 18.7214 140.122 18.6934 139.8 18.6934C138.694 18.6934 137.833 19.0293 137.217 19.7012C136.601 20.387 136.293 21.1709 136.293 22.0527C136.293 22.8506 136.552 23.5295 137.07 24.0894C137.602 24.6772 138.246 24.9712 139.002 24.9712C139.674 24.9712 140.332 24.7332 140.976 24.2573ZM140.976 17.6226V15.397C140.976 14.3892 140.773 13.5983 140.367 13.0244C139.947 12.4645 139.135 12.1846 137.931 12.1846C136.056 12.1846 134.474 12.8914 133.186 14.3052L132.661 13.8013C133.179 12.9194 133.998 12.1916 135.118 11.6177C136.237 11.0718 137.399 10.7988 138.603 10.7988C141.221 10.7988 142.529 12.2266 142.529 15.082V26C141.885 26.028 141.347 26.112 140.913 26.252L140.976 25.1392C140.276 25.881 139.443 26.252 138.477 26.252C137.371 26.252 136.447 25.818 135.706 24.9502C134.95 24.0824 134.572 23.1025 134.572 22.0107C134.572 20.751 135.034 19.6732 135.958 18.7773C136.853 17.8815 138.05 17.4336 139.548 17.4336C140.024 17.4336 140.5 17.4966 140.976 17.6226ZM167.179 26V15.7539C167.179 14.3402 167.081 13.3184 166.885 12.6885C166.703 12.1146 166.255 11.6037 165.541 11.1558C166.493 11.2257 167.256 11.5547 167.83 12.1426C168.403 12.7445 168.69 14.1092 168.69 16.2368V21.1289C168.69 22.3327 168.76 23.1865 168.9 23.6904C169.026 24.2363 169.32 24.7052 169.782 25.0972C170.23 25.5031 170.762 25.762 171.378 25.874V26.252C170.916 26.21 170.146 26.154 169.068 26.084C168.005 26.028 167.375 26 167.179 26ZM153.825 11.0298V26C152.383 26.07 151.131 26.154 150.067 26.252V25.874C150.697 25.6641 151.222 25.2861 151.642 24.7402C152.062 24.1943 152.271 22.8856 152.271 20.814V15.6489C152.271 14.2492 152.111 13.2134 151.789 12.5415C151.453 11.9116 150.774 11.4497 149.752 11.1558V10.7988C150.41 10.8828 151.768 10.9598 153.825 11.0298ZM155.316 26V11.0298C156.058 11.0018 156.618 10.9668 156.996 10.9248L156.849 12.0376C158.598 11.1558 160.222 10.7148 161.72 10.7148C162.686 10.7148 163.511 10.9528 164.197 11.4287C164.869 11.9186 165.289 12.4715 165.457 13.0874C165.625 13.7173 165.709 14.7391 165.709 16.1528V26C165.135 26.028 164.575 26.07 164.029 26.126C164.127 24.3763 164.176 23.1515 164.176 22.4517V15.7539C164.176 14.3822 163.98 13.4163 163.588 12.8564C163.182 12.2826 162.455 11.9956 161.405 11.9956C160.285 11.9956 158.766 12.4575 156.849 13.3813V21.9268C156.849 24.1663 157.674 25.4821 159.326 25.874V26.252C157.646 26.084 156.31 26 155.316 26ZM173.247 23.4805L174.296 22.4097L177.32 25.3911L176.27 26.4619L173.247 23.4805ZM175.199 21.5278L176.249 20.457L179.272 23.4385L178.223 24.5093L175.199 21.5278ZM185.739 12.3315C184.256 13.8573 183.514 16.0269 183.514 18.8403C183.514 21.1919 184.256 23.3405 185.739 25.2861C183.094 23.6484 181.771 21.4159 181.771 18.5884C181.771 15.5229 183.094 13.4373 185.739 12.3315ZM199.576 26H198.841V0.615723C199.289 0.615723 199.884 0.580729 200.625 0.510742C200.458 3.04427 200.374 5.5778 200.374 8.11133V21.1289C200.374 22.3187 200.444 23.1725 200.583 23.6904C200.737 24.2503 201.052 24.7262 201.528 25.1182C202.018 25.5381 202.606 25.79 203.292 25.874V26.252C201.766 26.084 200.528 26 199.576 26ZM195.901 18.8193V13.1504C194.67 12.4365 193.431 12.0796 192.185 12.0796C190.421 12.0796 189.057 12.6745 188.091 13.8643C187.125 15.054 186.642 16.6637 186.642 18.6934C186.642 20.527 187.09 22.0387 187.986 23.2285C188.868 24.4463 190.036 25.0552 191.492 25.0552C192.99 25.0552 194.418 24.4463 195.775 23.2285C195.859 21.9268 195.901 20.457 195.901 18.8193ZM197.413 0.615723V26C196.615 26.028 196.041 26.07 195.691 26.126C195.733 25.6781 195.754 25.2441 195.754 24.8242C194.397 25.874 192.955 26.3989 191.429 26.3989C189.344 26.3989 187.748 25.6571 186.642 24.1733C185.508 22.6756 184.941 20.9049 184.941 18.8613C184.941 16.7057 185.515 14.8231 186.663 13.2134C187.811 11.6037 189.645 10.7988 192.164 10.7988C193.536 10.7988 194.782 11.1068 195.901 11.7227V4.91992C195.901 3.64616 195.712 2.68734 195.334 2.04346C194.929 1.39958 194.222 0.965658 193.214 0.741699V0.384766C194.6 0.482747 195.999 0.559733 197.413 0.615723ZM208.373 24.3203L208.289 24.4463C206.175 23.2285 205.119 21.3179 205.119 18.7144C205.119 17.7065 205.308 16.7337 205.686 15.7959C206.063 14.8581 206.854 13.9132 208.058 12.9614L208.163 13.0664C207.281 14.5921 206.84 16.4258 206.84 18.5674C206.84 20.793 207.351 22.7106 208.373 24.3203ZM223.049 17.5806H221.181C221.111 15.033 220.446 13.1644 219.186 11.9746C221.44 12.9124 222.727 14.7811 223.049 17.5806ZM210.221 16.0269H217.695C217.625 15.019 217.296 14.1232 216.708 13.3394C216.093 12.5555 215.211 12.1636 214.063 12.1636C213.041 12.1636 212.18 12.5205 211.48 13.2344C210.781 13.9482 210.361 14.8791 210.221 16.0269ZM219.795 17.5806H210.053C210.025 18.2804 210.011 18.7074 210.011 18.8613C210.011 20.681 210.508 22.1437 211.501 23.2495C212.495 24.3413 213.79 24.8872 215.386 24.8872C216.701 24.8872 217.891 24.5303 218.955 23.8164C220.019 23.1025 220.859 22.1437 221.475 20.9399H222.377C221.09 24.6213 218.64 26.4619 215.029 26.4619C212.859 26.4619 211.187 25.7061 210.011 24.1943C208.835 22.6966 208.247 20.8 208.247 18.5044C208.247 16.2928 208.793 14.4521 209.885 12.9824C210.963 11.5267 212.369 10.7988 214.105 10.7988C215.505 10.7988 216.736 11.3237 217.8 12.3735C218.85 13.4093 219.515 15.145 219.795 17.5806ZM226.199 11.0298L235.332 25.0342L234.555 26.2729H234.408L226.871 14.8301C226.003 13.5283 225.289 12.6325 224.729 12.1426C224.155 11.6387 223.497 11.3097 222.755 11.1558V10.7988C224.239 10.9248 225.387 11.0018 226.199 11.0298ZM241.589 14.9141L236.172 23.7114L227.794 11.0298C229.348 11.0298 230.951 10.9528 232.603 10.7988V11.1558C231.567 11.4777 231.049 11.9746 231.049 12.6465C231.049 13.0384 231.42 13.7943 232.162 14.9141L236.025 20.814L239.174 15.6909C239.832 14.6131 240.161 13.7453 240.161 13.0874C240.161 12.2476 239.454 11.6037 238.041 11.1558V10.7988C238.083 10.7988 238.467 10.8338 239.195 10.9038C239.993 11.0018 240.623 11.0508 241.085 11.0508C241.645 11.0508 243.101 10.9668 245.452 10.7988V11.1558C244.738 11.3657 244.115 11.7227 243.583 12.2266C243.052 12.7305 242.387 13.6263 241.589 14.9141Z" fill="white"/>
</svg>
