<svg width="127" height="10" viewBox="0 0 127 10" fill="none" xmlns="http://www.w3.org/2000/svg">
<path d="M4.0625 0.000488281C3.72819 0.284017 3.56104 0.628906 3.56104 1.03516C3.56104 1.43717 3.67106 1.84131 3.89111 2.24756C4.1154 2.64958 4.37565 2.99235 4.67188 3.27588C4.9681 3.55941 5.19661 3.78581 5.35742 3.95508C5.52246 4.12012 5.70654 4.32113 5.90967 4.55811C6.11702 4.79085 6.27995 5.00033 6.39844 5.18652C6.69043 5.63932 6.83643 6.03711 6.83643 6.37988C6.83643 6.71842 6.76449 7.03369 6.62061 7.32568C6.48096 7.61768 6.27995 7.88428 6.01758 8.12549C5.75944 8.36247 5.42725 8.55924 5.021 8.71582C4.61898 8.8724 4.17464 8.96126 3.68799 8.98242C3.8234 8.78776 3.89111 8.58464 3.89111 8.37305C3.89111 8.15723 3.84668 7.93929 3.75781 7.71924C3.66895 7.49495 3.53353 7.25586 3.35156 7.00195C3.05957 6.59147 2.73161 6.18945 2.36768 5.7959C2.00798 5.40234 1.75618 5.12093 1.6123 4.95166C1.47266 4.78239 1.31396 4.56868 1.13623 4.31055C0.789225 3.8112 0.615723 3.30973 0.615723 2.80615C0.615723 2.30257 0.770182 1.83496 1.0791 1.40332C1.38802 0.97168 1.80485 0.631022 2.32959 0.381348C2.85856 0.131673 3.4362 0.00472005 4.0625 0.000488281ZM6.17627 3.83447C6.17627 3.42399 6.10221 3.00081 5.9541 2.56494C5.66211 1.71436 5.17546 1.02881 4.49414 0.508301C4.5026 0.432129 4.57454 0.341146 4.70996 0.235352C4.84538 0.129557 4.95752 0.0766602 5.04639 0.0766602C5.35531 0.0766602 5.71501 0.138021 6.12549 0.260742C6.5402 0.383464 6.86816 0.501953 7.10938 0.616211C7.13053 0.743164 7.14111 0.965332 7.14111 1.28271C7.14111 1.59587 7.11149 1.98942 7.05225 2.46338C6.993 2.93311 6.92106 3.3055 6.83643 3.58057C6.81104 3.64404 6.72005 3.70329 6.56348 3.7583C6.41113 3.80908 6.28206 3.83447 6.17627 3.83447ZM3.13574 8.43018C3.08496 8.71794 3.00667 8.91048 2.90088 9.00781C2.45654 9.00781 1.9318 8.95068 1.32666 8.83643C0.721517 8.72217 0.281413 8.57617 0.00634766 8.39844C0.00211589 8.30534 0 8.17204 0 7.99854C0 7.17334 0.0973307 6.39046 0.291992 5.6499C0.308919 5.58219 0.380859 5.49756 0.507812 5.396C0.634766 5.2902 0.749023 5.2373 0.850586 5.2373C0.947917 5.7028 1.12142 6.17041 1.37109 6.64014C1.625 7.10986 1.91064 7.50765 2.22803 7.8335C2.54964 8.15511 2.85221 8.354 3.13574 8.43018ZM13.0825 2.36182C12.0669 3.33512 11.5591 4.64909 11.5591 6.30371C11.5591 7.00618 11.6522 7.71289 11.8384 8.42383C11.8341 8.4873 11.7643 8.57406 11.6289 8.68408C11.4977 8.79411 11.3856 8.84912 11.2925 8.84912C10.5815 8.75179 9.96582 8.45768 9.44531 7.9668C8.89941 7.45052 8.62646 6.80729 8.62646 6.03711C8.62646 5.2627 8.81901 4.60254 9.2041 4.05664C9.59342 3.50651 10.1245 3.08757 10.7974 2.7998C11.4702 2.50781 12.2319 2.36182 13.0825 2.36182ZM12.2256 8.93799C13.2412 7.96468 13.749 6.65072 13.749 4.99609C13.749 4.29362 13.6559 3.58691 13.4697 2.87598C13.474 2.8125 13.5417 2.72575 13.6729 2.61572C13.8083 2.5057 13.9225 2.45068 14.0156 2.45068C14.7266 2.54801 15.3402 2.84212 15.8564 3.33301C16.4066 3.84928 16.6816 4.49463 16.6816 5.26904C16.6816 6.03923 16.487 6.69938 16.0977 7.24951C15.7126 7.79541 15.1836 8.21436 14.5107 8.50635C13.8379 8.79411 13.0762 8.93799 12.2256 8.93799ZM18.5225 7.24316C18.5225 6.80729 18.5923 6.20638 18.7319 5.44043C18.8758 4.67448 18.9478 4.13704 18.9478 3.82812C18.9478 3.51921 18.8483 3.30127 18.6494 3.17432C18.6494 3.10661 18.7108 2.98389 18.8335 2.80615C18.9562 2.62419 19.062 2.5332 19.1509 2.5332H21.6328C21.7132 2.57552 21.7915 2.65381 21.8677 2.76807C21.9438 2.87809 21.9819 3.01986 21.9819 3.19336C21.9819 3.36686 21.8888 3.92969 21.7026 4.88184C21.5207 5.82975 21.4297 6.57031 21.4297 7.10352C21.4297 7.37435 21.4974 7.58171 21.6328 7.72559C21.7725 7.86523 21.9502 7.93506 22.166 7.93506C22.1576 7.99007 22.1533 8.0599 22.1533 8.14453C22.1533 8.33073 22.1279 8.45133 22.0771 8.50635C21.8698 8.63753 21.5947 8.74333 21.252 8.82373C20.9134 8.8999 20.5876 8.93799 20.2744 8.93799C19.1064 8.93799 18.5225 8.37305 18.5225 7.24316ZM23.3149 8.86816C22.9806 8.63118 22.8135 8.34131 22.8135 7.99854C22.8135 7.65576 22.9023 6.8877 23.0801 5.69434C23.262 4.50098 23.3784 3.58691 23.4292 2.95215C23.4292 2.89714 23.4969 2.81462 23.6323 2.70459C23.772 2.59033 23.8905 2.5332 23.9878 2.5332H26.5649C26.3364 3.51497 26.1523 4.4375 26.0127 5.30078C25.873 6.16406 25.8032 6.75228 25.8032 7.06543C25.8032 7.37858 25.8413 7.60921 25.9175 7.75732C25.9979 7.90544 26.1227 8.0472 26.292 8.18262C26.292 8.24186 26.2306 8.34131 26.1079 8.48096C25.9852 8.61637 25.873 8.70524 25.7715 8.74756C25.2256 8.82796 24.4067 8.86816 23.3149 8.86816ZM28.1201 5.04688C28.209 4.24707 28.3359 3.56152 28.501 2.99023C28.5348 2.9056 28.6089 2.80827 28.7231 2.69824C28.8374 2.58822 28.9326 2.5332 29.0088 2.5332H31.0654C31.0231 2.63477 30.9533 2.75537 30.856 2.89502C30.7629 3.03467 30.6676 3.13623 30.5703 3.19971C30.2191 3.42399 29.9059 3.6652 29.6309 3.92334C29.3558 4.18148 29.049 4.50732 28.7104 4.90088C28.6851 4.93896 28.6089 4.97282 28.4819 5.00244C28.355 5.03206 28.2344 5.04688 28.1201 5.04688ZM35.2104 6.14502C35.1174 6.99984 34.9777 7.75944 34.7915 8.42383C34.7619 8.50846 34.6878 8.60579 34.5693 8.71582C34.4551 8.82585 34.3599 8.88086 34.2837 8.88086H32.1001C32.2313 8.5804 32.4196 8.34342 32.665 8.16992C32.9147 7.99219 33.0967 7.861 33.2109 7.77637C33.3252 7.6875 33.4733 7.56478 33.6553 7.4082C33.9515 7.15007 34.2435 6.80306 34.5312 6.36719C34.5609 6.32487 34.6561 6.27832 34.8169 6.22754C34.9777 6.17253 35.1089 6.14502 35.2104 6.14502ZM27.6694 8.32861C29.1548 6.73324 30.5703 4.80143 31.916 2.5332H35.0073C35.1047 2.5332 35.2189 2.58822 35.3501 2.69824C35.4855 2.80827 35.5596 2.8929 35.5723 2.95215C35.0391 3.5319 34.3747 4.36768 33.5791 5.45947C32.7878 6.54704 32.0239 7.6875 31.2876 8.88086H28.228C28.1307 8.88086 28.0122 8.80469 27.8726 8.65234C27.7371 8.5 27.6694 8.39209 27.6694 8.32861ZM42.3579 2.57129C42.9334 2.77018 43.3693 3.04948 43.6655 3.40918C43.966 3.76465 44.1162 4.14551 44.1162 4.55176C44.1162 5.10612 43.8771 5.57585 43.3989 5.96094C42.9207 6.34603 42.269 6.53857 41.4438 6.53857C41.1857 6.53857 40.9022 6.49626 40.5933 6.41162C41.0418 6.13232 41.3444 5.76839 41.501 5.31982C41.6364 4.9305 41.7041 4.47347 41.7041 3.94873C41.7041 3.84717 41.6935 3.53613 41.6724 3.01562C41.6681 2.96061 41.7528 2.87386 41.9263 2.75537C42.104 2.63688 42.2479 2.57552 42.3579 2.57129ZM41.3296 2.46973C40.8049 2.8252 40.388 3.29281 40.0791 3.87256C39.7744 4.45231 39.6221 5.07227 39.6221 5.73242C39.6221 6.39258 39.876 6.93001 40.3838 7.34473C40.8916 7.75944 41.6322 7.9668 42.6055 7.9668C42.8721 7.9668 43.1577 7.94352 43.4624 7.89697C43.2635 8.21012 42.8805 8.47249 42.3135 8.68408C41.7464 8.89144 41.1519 8.99512 40.5298 8.99512C39.9077 8.99512 39.3766 8.93376 38.9365 8.81104C38.4964 8.68408 38.1029 8.49788 37.7559 8.25244C37.4131 8.007 37.1423 7.6875 36.9434 7.29395C36.7445 6.89616 36.645 6.46029 36.645 5.98633C36.645 5.50814 36.7191 5.0765 36.8672 4.69141C37.0153 4.30632 37.2184 3.97624 37.4766 3.70117C37.7347 3.42611 38.0352 3.18913 38.3779 2.99023C39.0592 2.60514 39.8442 2.4126 40.7329 2.4126C40.953 2.4126 41.1519 2.43164 41.3296 2.46973ZM48.8008 2.35547C48.5596 2.58398 48.439 2.8252 48.439 3.0791C48.439 3.67155 48.8896 4.28516 49.791 4.91992C50.1973 5.20768 50.5146 5.45312 50.7432 5.65625C51.2552 6.11328 51.5112 6.61051 51.5112 7.14795C51.5112 7.68115 51.2425 8.11279 50.7051 8.44287C50.1719 8.76872 49.4229 8.93164 48.458 8.93164C48.568 8.6862 48.623 8.46403 48.623 8.26514C48.623 8.06624 48.5659 7.8737 48.4517 7.6875C48.3416 7.49707 48.1978 7.32357 48.02 7.16699C47.8423 7.01042 47.6455 6.85384 47.4297 6.69727C47.2139 6.53646 46.998 6.37354 46.7822 6.2085C46.5664 6.04346 46.3696 5.87419 46.1919 5.70068C45.7899 5.30713 45.5889 4.88184 45.5889 4.4248C45.5889 3.92122 45.7751 3.51074 46.1475 3.19336C46.7865 2.65592 47.6709 2.37663 48.8008 2.35547ZM49.7847 2.37451C50.3813 2.37451 50.8934 2.493 51.3208 2.72998C51.7482 2.96273 51.9619 3.24837 51.9619 3.58691C51.9619 4.11165 51.471 4.43327 50.4893 4.55176C50.4977 4.52214 50.502 4.47559 50.502 4.41211C50.502 4.09049 50.4004 3.79427 50.1973 3.52344C49.9941 3.24837 49.7106 3.02832 49.3467 2.86328C49.3467 2.79557 49.3932 2.70247 49.4863 2.58398C49.5794 2.46549 49.6789 2.39567 49.7847 2.37451ZM47.3472 8.90625C47.1356 8.92318 46.979 8.93164 46.8774 8.93164C46.2638 8.93164 45.7539 8.83219 45.3477 8.6333C44.9414 8.43018 44.7383 8.16781 44.7383 7.84619C44.7383 7.19873 45.2271 6.79036 46.2046 6.62109C46.1707 6.80306 46.1559 6.96387 46.1602 7.10352C46.1686 7.23893 46.2152 7.37435 46.2998 7.50977C46.3887 7.64095 46.5114 7.75944 46.668 7.86523C46.9473 8.05143 47.2943 8.22282 47.709 8.37939C47.709 8.44287 47.6688 8.53809 47.5884 8.66504C47.5122 8.78776 47.4318 8.86816 47.3472 8.90625ZM59.1665 6.04346C57.368 6.04346 55.4806 6.0752 53.5044 6.13867V5.73242C53.5044 5.62663 53.5509 5.50814 53.644 5.37695C53.7414 5.24577 53.8175 5.17806 53.8726 5.17383C55.8784 5.17383 57.7658 5.14209 59.5347 5.07861V5.48486C59.5347 5.59066 59.486 5.71126 59.3887 5.84668C59.2956 5.97786 59.2215 6.04346 59.1665 6.04346ZM65.0635 2.35547C64.8223 2.58398 64.7017 2.8252 64.7017 3.0791C64.7017 3.67155 65.1523 4.28516 66.0537 4.91992C66.46 5.20768 66.7773 5.45312 67.0059 5.65625C67.5179 6.11328 67.7739 6.61051 67.7739 7.14795C67.7739 7.68115 67.5052 8.11279 66.9678 8.44287C66.4346 8.76872 65.6855 8.93164 64.7207 8.93164C64.8307 8.6862 64.8857 8.46403 64.8857 8.26514C64.8857 8.06624 64.8286 7.8737 64.7144 7.6875C64.6043 7.49707 64.4604 7.32357 64.2827 7.16699C64.105 7.01042 63.9082 6.85384 63.6924 6.69727C63.4766 6.53646 63.2607 6.37354 63.0449 6.2085C62.8291 6.04346 62.6323 5.87419 62.4546 5.70068C62.0526 5.30713 61.8516 4.88184 61.8516 4.4248C61.8516 3.92122 62.0378 3.51074 62.4102 3.19336C63.0492 2.65592 63.9336 2.37663 65.0635 2.35547ZM66.0474 2.37451C66.644 2.37451 67.1561 2.493 67.5835 2.72998C68.0109 2.96273 68.2246 3.24837 68.2246 3.58691C68.2246 4.11165 67.7337 4.43327 66.752 4.55176C66.7604 4.52214 66.7646 4.47559 66.7646 4.41211C66.7646 4.09049 66.6631 3.79427 66.46 3.52344C66.2568 3.24837 65.9733 3.02832 65.6094 2.86328C65.6094 2.79557 65.6559 2.70247 65.749 2.58398C65.8421 2.46549 65.9416 2.39567 66.0474 2.37451ZM63.6099 8.90625C63.3983 8.92318 63.2417 8.93164 63.1401 8.93164C62.5265 8.93164 62.0166 8.83219 61.6104 8.6333C61.2041 8.43018 61.001 8.16781 61.001 7.84619C61.001 7.19873 61.4897 6.79036 62.4673 6.62109C62.4334 6.80306 62.4186 6.96387 62.4229 7.10352C62.4313 7.23893 62.4779 7.37435 62.5625 7.50977C62.6514 7.64095 62.7741 7.75944 62.9307 7.86523C63.21 8.05143 63.557 8.22282 63.9717 8.37939C63.9717 8.44287 63.9315 8.53809 63.8511 8.66504C63.7749 8.78776 63.6945 8.86816 63.6099 8.90625ZM76.7114 8.62695C75.8862 8.80469 74.9997 8.89355 74.0518 8.89355C73.8359 8.60156 73.728 8.29476 73.728 7.97314C73.728 7.65153 73.8232 6.83691 74.0137 5.5293C74.2041 4.21745 74.3014 3.3457 74.3057 2.91406C74.3057 2.85905 74.3755 2.77653 74.5151 2.6665C74.6548 2.55648 74.7712 2.50146 74.8643 2.50146C75.7699 2.50146 76.6226 2.62207 77.4224 2.86328C77.4054 2.9987 77.2933 3.53825 77.0859 4.48193C76.8786 5.42139 76.7749 6.17676 76.7749 6.74805C76.7749 7.3151 76.9272 7.75098 77.2319 8.05566C77.2319 8.11491 77.1727 8.21436 77.0542 8.354C76.9357 8.48942 76.8215 8.5804 76.7114 8.62695ZM73.7725 2.4126C73.2689 2.78499 72.8859 3.29069 72.6235 3.92969C72.3654 4.56868 72.2363 5.1971 72.2363 5.81494C72.2363 6.42855 72.304 6.98079 72.4395 7.47168C72.5791 7.95833 72.7653 8.28418 72.998 8.44922C72.998 8.5127 72.9303 8.60156 72.7949 8.71582C72.6595 8.82585 72.5431 8.88086 72.4458 8.88086C71.4767 8.88086 70.6981 8.63753 70.1099 8.15088C69.5259 7.66423 69.2339 6.99984 69.2339 6.15771C69.2339 5.11247 69.6296 4.23438 70.4209 3.52344C70.8018 3.18066 71.2799 2.90983 71.8555 2.71094C72.4352 2.51204 73.0742 2.4126 73.7725 2.4126ZM81.4849 8.88086H78.8188C79.259 7.02734 79.5636 5.07015 79.7329 3.00928C79.7329 2.9585 79.8006 2.88232 79.936 2.78076C80.0715 2.67497 80.2132 2.60938 80.3613 2.58398C80.5137 2.55859 80.8818 2.52474 81.4658 2.48242C82.054 2.43587 82.509 2.4126 82.8306 2.4126C82.4878 4.18571 82.2233 6.20215 82.0371 8.46191C82.0371 8.51693 81.9694 8.60156 81.834 8.71582C81.6986 8.82585 81.5822 8.88086 81.4849 8.88086ZM83.7764 8.94434C83.5309 8.70736 83.4082 8.40267 83.4082 8.03027C83.4082 7.65788 83.5013 6.94694 83.6875 5.89746C83.8779 4.84798 83.9731 4.20264 83.9731 3.96143C83.9731 3.71598 83.9139 3.54036 83.7954 3.43457C83.6812 3.32454 83.5309 3.26953 83.3447 3.26953C83.3828 3.01562 83.4548 2.8252 83.5605 2.69824C83.7171 2.62207 83.9626 2.55225 84.2969 2.48877C84.6354 2.42529 84.9486 2.39355 85.2363 2.39355C85.7992 2.39355 86.2202 2.52262 86.4995 2.78076C86.783 3.0389 86.9248 3.44727 86.9248 4.00586C86.9248 4.31901 86.8571 4.86914 86.7217 5.65625C86.5863 6.44336 86.5186 6.92578 86.5186 7.10352C86.5186 7.28125 86.5249 7.41455 86.5376 7.50342C86.5545 7.59229 86.5672 7.66211 86.5757 7.71289C86.5884 7.76367 86.618 7.82292 86.6646 7.89062C86.7111 7.9541 86.7407 7.9943 86.7534 8.01123C86.7661 8.02393 86.8084 8.06624 86.8804 8.13818C86.9523 8.20589 86.9946 8.24609 87.0073 8.25879C87.0073 8.31803 86.946 8.41748 86.8232 8.55713C86.7005 8.69255 86.5884 8.78141 86.4868 8.82373C85.9451 8.90413 85.0417 8.94434 83.7764 8.94434ZM92.606 5.96094C92.5425 6.05404 92.4515 6.14502 92.333 6.23389C92.2145 6.31852 92.1193 6.36296 92.0474 6.36719L89.9844 6.44336C90.0775 5.74935 90.3081 5.13574 90.6763 4.60254C90.9132 4.25977 91.1968 3.90218 91.5269 3.52979C91.8612 3.15739 92.1024 2.87174 92.2505 2.67285C92.5763 2.22852 92.7393 1.76302 92.7393 1.27637C92.7393 1.07747 92.7012 0.895508 92.625 0.730469C92.6292 0.671224 92.6969 0.588704 92.8281 0.48291C92.9635 0.377116 93.0799 0.319987 93.1772 0.311523C93.9347 0.408854 94.5272 0.631022 94.9546 0.978027C95.382 1.32503 95.5957 1.76302 95.5957 2.29199C95.5957 2.75326 95.3291 3.22298 94.7959 3.70117C94.5589 3.91699 94.3135 4.1307 94.0596 4.34229C93.3867 4.89665 92.9022 5.4362 92.606 5.96094ZM88.7974 3.56152C88.9201 2.38509 89.0724 1.53027 89.2544 0.99707C89.3052 0.916667 89.3813 0.825684 89.4829 0.724121C89.5845 0.622559 89.6818 0.556966 89.7749 0.527344C90.5535 0.294596 91.4993 0.173991 92.6123 0.165527C91.5205 0.715658 90.4837 1.68685 89.502 3.0791C89.4554 3.14681 89.3475 3.24414 89.1782 3.37109C89.0132 3.49805 88.8862 3.56152 88.7974 3.56152ZM89.6289 7.4209C89.9928 7.06966 90.471 6.89404 91.0635 6.89404C91.4909 6.89404 91.8294 6.98503 92.0791 7.16699C92.333 7.34473 92.46 7.58382 92.46 7.88428C92.46 8.1805 92.2907 8.44287 91.9521 8.67139C91.6136 8.89567 91.2201 9.00781 90.7715 9.00781C90.3229 9.00781 89.9738 8.91895 89.7241 8.74121C89.4744 8.56348 89.3496 8.34554 89.3496 8.0874C89.3496 7.82926 89.4427 7.6071 89.6289 7.4209ZM96.0654 7.49072C96.4209 7.13525 96.8949 6.95752 97.4873 6.95752C97.9147 6.95752 98.2533 7.0485 98.5029 7.23047C98.7568 7.41243 98.8838 7.65365 98.8838 7.9541C98.8838 8.25033 98.7145 8.5127 98.376 8.74121C98.0417 8.96549 97.6502 9.07764 97.2017 9.07764C96.7531 9.07764 96.404 8.98877 96.1543 8.81104C95.9046 8.6333 95.7798 8.41536 95.7798 8.15723C95.7798 7.89909 95.875 7.67692 96.0654 7.49072ZM105.193 2.4126C104.69 2.78499 104.311 3.29069 104.057 3.92969C103.807 4.56445 103.683 5.19076 103.683 5.80859C103.683 6.42643 103.75 6.98079 103.886 7.47168C104.025 7.95833 104.212 8.28418 104.444 8.44922C104.444 8.5127 104.377 8.60156 104.241 8.71582C104.106 8.82585 103.989 8.88086 103.892 8.88086C102.931 8.88086 102.155 8.62907 101.562 8.12549C100.974 7.62191 100.68 6.94271 100.68 6.08789C100.68 5.0638 101.076 4.20052 101.867 3.49805C102.244 3.16374 102.718 2.89925 103.289 2.70459C103.865 2.50993 104.499 2.4126 105.193 2.4126ZM108.107 8.44922C108.107 8.50846 108.039 8.59521 107.904 8.70947C107.768 8.82373 107.65 8.88086 107.548 8.88086H104.997C105.183 8.09798 105.384 6.80941 105.6 5.01514C105.815 3.22087 105.976 1.7207 106.082 0.514648C106.082 0.459635 106.15 0.377116 106.285 0.26709C106.421 0.152832 106.537 0.0957031 106.634 0.0957031H109.307C109.082 1.02669 108.85 2.37028 108.608 4.12646C108.367 5.87842 108.2 7.31934 108.107 8.44922ZM116.092 2.57129C116.668 2.77018 117.104 3.04948 117.4 3.40918C117.7 3.76465 117.851 4.14551 117.851 4.55176C117.851 5.10612 117.611 5.57585 117.133 5.96094C116.655 6.34603 116.003 6.53857 115.178 6.53857C114.92 6.53857 114.637 6.49626 114.328 6.41162C114.776 6.13232 115.079 5.76839 115.235 5.31982C115.371 4.9305 115.438 4.47347 115.438 3.94873C115.438 3.84717 115.428 3.53613 115.407 3.01562C115.403 2.96061 115.487 2.87386 115.661 2.75537C115.838 2.63688 115.982 2.57552 116.092 2.57129ZM115.064 2.46973C114.539 2.8252 114.122 3.29281 113.813 3.87256C113.509 4.45231 113.356 5.07227 113.356 5.73242C113.356 6.39258 113.61 6.93001 114.118 7.34473C114.626 7.75944 115.367 7.9668 116.34 7.9668C116.606 7.9668 116.892 7.94352 117.197 7.89697C116.998 8.21012 116.615 8.47249 116.048 8.68408C115.481 8.89144 114.886 8.99512 114.264 8.99512C113.642 8.99512 113.111 8.93376 112.671 8.81104C112.231 8.68408 111.837 8.49788 111.49 8.25244C111.147 8.007 110.877 7.6875 110.678 7.29395C110.479 6.89616 110.379 6.46029 110.379 5.98633C110.379 5.50814 110.453 5.0765 110.602 4.69141C110.75 4.30632 110.953 3.97624 111.211 3.70117C111.469 3.42611 111.77 3.18913 112.112 2.99023C112.794 2.60514 113.579 2.4126 114.467 2.4126C114.687 2.4126 114.886 2.43164 115.064 2.46973ZM123.963 2.95215C123.963 2.89714 124.035 2.81462 124.179 2.70459C124.327 2.59033 124.452 2.5332 124.554 2.5332H126.217C125.777 3.1849 125.237 4.03548 124.598 5.08496C124.564 5.13574 124.463 5.19287 124.293 5.25635C124.128 5.31982 123.993 5.35156 123.887 5.35156C124.018 4.88607 124.084 4.4375 124.084 4.00586C124.084 3.57422 124.044 3.22298 123.963 2.95215ZM120.529 8.88086C120.258 7.44629 119.706 5.46582 118.873 2.93945C118.873 2.88021 118.942 2.79557 119.082 2.68555C119.226 2.57552 119.351 2.52051 119.457 2.52051H122.18C122.26 3.21875 122.385 3.87256 122.554 4.48193C122.867 5.63298 123.195 6.2085 123.538 6.2085C123.69 6.2085 123.811 6.19157 123.9 6.15771C123.993 6.11963 124.048 6.09847 124.065 6.09424C123.934 6.33968 123.726 6.7946 123.443 7.45898C123.164 8.12337 123.015 8.47461 122.999 8.5127C122.982 8.54655 122.912 8.61637 122.789 8.72217C122.666 8.82796 122.556 8.88086 122.459 8.88086H120.529Z" fill="white"/>
</svg>
