<svg width="258" height="27" viewBox="0 0 258 27" fill="none" xmlns="http://www.w3.org/2000/svg">
<g clip-path="url(#clip0_2210_2)">
<path d="M185.171 23.0957L186.246 22.0249L189.343 25.0063L188.268 26.0771L185.171 23.0957Z" fill="white"/>
<path d="M187.171 21.143L188.246 20.0722L191.343 23.0537L190.268 24.1245L187.171 21.143Z" fill="white"/>
<path fill-rule="evenodd" clip-rule="evenodd" d="M1.44105 18.3296H0.946357C0.889002 18.7635 0.860328 19.2814 0.860328 19.8833C0.860328 20.3452 0.896172 21.0451 0.96787 21.9829C1.0539 22.9207 1.09692 23.6136 1.09692 24.0615C1.09692 24.4394 1.08975 24.7474 1.07541 24.9853L1.22596 25.1533C1.91423 25.1673 2.94662 25.3143 4.32315 25.5942C5.90041 25.9161 7.13355 26.0771 8.02256 26.0771C10.2164 26.0771 11.8653 25.4962 12.9694 24.3344C14.0592 23.1867 14.604 21.9059 14.604 20.4922C14.604 19.0504 14.0807 17.9026 13.0339 17.0488C11.9442 16.167 10.1733 15.3621 7.72144 14.6342C5.84306 14.0603 4.50239 13.5494 3.69941 13.1015C2.89644 12.6676 2.22251 12.0237 1.67764 11.1699C1.14711 10.344 0.881831 9.38525 0.881831 8.29345C0.881831 7.88753 0.96787 7.41162 1.13994 6.86572C0.379978 7.92952 0 9.01432 0 10.1201C0 11.1139 0.279606 12.0097 0.83882 12.8076C1.35502 13.5914 2.07196 14.2143 2.98964 14.6762C3.77827 15.0682 5.10461 15.5651 6.96866 16.167C9.29154 16.9088 10.8473 17.5737 11.636 18.1616C12.4532 18.7635 12.8619 19.6103 12.8619 20.7021C12.8619 21.7379 12.4389 22.6268 11.5929 23.3686C10.7469 24.1105 9.65001 24.4814 8.30217 24.4814C6.55284 24.4814 5.00424 23.9075 3.65639 22.7597C2.27987 21.5979 1.54143 20.1212 1.44105 18.3296ZM15.6794 9.55322H16.1312C16.1599 9.02132 16.1741 8.5734 16.1741 8.20947C16.1741 7.66357 16.1527 7.03369 16.1097 6.31982C16.081 5.73193 16.0667 5.22802 16.0667 4.8081L16.0236 4.01025V3.86328C13.6434 3.30338 11.6288 3.02343 9.9798 3.02343C7.55654 3.02343 5.68533 3.46435 4.36616 4.34619C3.04699 5.25602 2.38741 6.50878 2.38741 8.10449C2.38741 9.49023 2.81757 10.512 3.6779 11.1699C4.53823 11.8138 6.38077 12.5906 9.2055 13.5005C11.0839 14.1023 12.4389 14.6692 13.2706 15.2011C14.0878 15.719 14.7761 16.4189 15.3353 17.3007C15.8659 18.1686 16.1312 19.1624 16.1312 20.2822C16.1312 21.472 15.8874 22.3958 15.3999 23.0537C16.719 22.0599 17.3786 20.6881 17.3786 18.9384C17.3786 17.7907 17.0775 16.7478 16.4753 15.81C15.873 14.9002 15.1202 14.2003 14.2169 13.7104C13.371 13.2625 11.8868 12.6816 9.76472 11.9677C7.48486 11.1979 5.95777 10.533 5.18347 9.97313C4.43786 9.45524 4.06505 8.74837 4.06505 7.85253C4.06505 7.01269 4.53823 6.29183 5.48459 5.68994C6.41661 5.08805 7.60673 4.78711 9.05495 4.78711C10.876 4.78711 12.4245 5.17203 13.7007 5.94189C15.0056 6.72574 15.6651 7.92952 15.6794 9.55322ZM21.6373 18.0776C21.6373 15.2641 22.304 13.1365 23.6375 11.6948C21.1569 12.9406 19.9166 15.0402 19.9166 17.9936C19.9166 20.9891 21.1569 23.1727 23.6375 24.5444C22.304 23.0467 21.6373 20.8911 21.6373 18.0776ZM37.4458 18.3086C37.4458 20.8701 36.7862 22.8717 35.467 24.3134C37.9763 22.7597 39.231 20.6321 39.231 17.9306C39.231 15.1172 37.9763 13.0315 35.467 11.6738C36.1409 12.2477 36.6428 13.1575 36.9726 14.4033C37.288 15.6211 37.4458 16.9228 37.4458 18.3086ZM26.1109 23.1587C25.308 22.2488 24.9065 20.5131 24.9065 17.9516C24.9065 13.6684 26.4479 11.5268 29.5307 11.5268C32.628 11.5268 34.1765 13.6474 34.1765 17.8886C34.1765 20.4082 33.7536 22.1438 32.9075 23.0957C32.0472 24.0475 30.9216 24.5234 29.5307 24.5234C28.0539 24.5234 26.9139 24.0685 26.1109 23.1587ZM24.799 12.2197C23.6662 13.5494 23.0998 15.5721 23.0998 18.2876C23.0998 20.9191 23.7236 22.8577 24.971 24.1035C26.2041 25.3632 27.7026 25.9931 29.4662 25.9931C31.1869 25.9931 32.7068 25.3912 34.026 24.1875C35.3308 22.9977 35.9832 20.8981 35.9832 17.8886C35.9832 15.1451 35.3739 13.1785 34.155 11.9887C32.9362 10.799 31.3948 10.2041 29.5307 10.2041C27.5233 10.2041 25.9461 10.8759 24.799 12.2197ZM58.9325 10.645V25.6152C59.3913 25.6152 60.1011 25.6432 61.0618 25.6992C62.0224 25.7552 62.7466 25.8112 63.2341 25.8672V25.4892C62.2161 25.2933 61.5134 24.8663 61.1263 24.2085C60.7392 23.5366 60.5456 22.4588 60.5456 20.9751V15.1591C60.5456 13.7594 60.7392 12.7376 61.1263 12.0937C61.5134 11.4498 62.2161 11.0089 63.2341 10.771V10.414C62.1013 10.54 60.6675 10.617 58.9325 10.645ZM57.4914 25.6152V10.645C56.6454 10.617 55.9285 10.596 55.3406 10.582C54.7527 10.554 54.0932 10.498 53.3618 10.414V10.771C54.3369 10.9949 55.0036 11.4148 55.3621 12.0307C55.7206 12.6466 55.8998 13.6124 55.8998 14.9282V23.1377C54.1505 24.0755 52.6664 24.5444 51.4476 24.5444C50.2288 24.5444 49.4115 24.2714 48.9957 23.7256C48.5942 23.2076 48.3934 22.3118 48.3934 21.0381V12.8916C48.4221 12.5556 48.4436 12.1987 48.458 11.8208C48.4723 11.2469 48.5082 10.82 48.5655 10.54C47.8199 10.61 47.232 10.645 46.8018 10.645V20.5761C46.8018 21.7939 46.9022 22.7597 47.1029 23.4736C47.2894 24.1595 47.7052 24.7264 48.3504 25.1743C48.9813 25.6362 49.8201 25.8672 50.8668 25.8672C52.3868 25.8672 54.0645 25.3912 55.8998 24.4394C55.8998 24.6494 55.8926 24.8803 55.8783 25.1323C55.8783 25.3842 55.8711 25.5872 55.8567 25.7412C56.4016 25.6572 56.9465 25.6152 57.4914 25.6152ZM41.0806 10.414V10.771C42.1417 11.0649 42.8587 11.5268 43.2314 12.1567C43.59 12.8006 43.7691 13.8504 43.7691 15.3061V21.08C43.7691 22.8297 44.0775 23.9635 44.6941 24.4814C45.3393 25.0273 46.0419 25.3283 46.8018 25.3842C46.3287 24.9783 45.9701 24.4884 45.7264 23.9145C45.497 23.3686 45.3822 22.3048 45.3822 20.7231V10.645C43.805 10.617 42.3712 10.54 41.0806 10.414ZM68.6541 25.6152H76.3541C76.6266 25.6152 76.8129 25.6222 76.9133 25.6362C78.0747 25.6922 79.1717 25.7272 80.204 25.7412C80.2901 24.9573 80.412 24.0755 80.5697 23.0957C80.7274 21.9479 80.8063 21.108 80.8063 20.5761H80.3761C80.0893 21.9059 79.5946 22.8437 78.8921 23.3896C78.1895 23.9355 77.0782 24.2085 75.5583 24.2085H71.5578L81.4731 10.414C80.3977 10.554 79.7452 10.631 79.5157 10.645L68.6541 25.6152ZM77.6446 10.645H70.2242C68.8764 10.645 67.2705 10.568 65.4064 10.414C65.4351 10.75 65.4494 10.9319 65.4494 10.9599C65.4494 11.4918 65.3706 12.4297 65.2128 13.7734C65.1555 14.2773 65.1269 14.8372 65.1269 15.4531H65.5355C65.7505 14.1233 66.1736 13.2065 66.8045 12.7026C67.4353 12.2127 68.3531 11.9677 69.5575 11.9677H74.827L64.8687 25.7412C65.9441 25.6712 66.5966 25.6292 66.8259 25.6152L77.6446 10.645ZM86.9146 24.0615L87.0007 23.9355C85.9539 22.3258 85.4306 20.4082 85.4306 18.1826C85.4306 16.041 85.8822 14.2073 86.7855 12.6816L86.678 12.5766C85.4449 13.5284 84.6347 14.4733 84.2476 15.4111C83.8605 16.3489 83.6669 17.3217 83.6669 18.3296C83.6669 20.9331 84.7495 22.8437 86.9146 24.0615ZM100.121 17.1958H102.035C101.705 14.3963 100.386 12.5276 98.0774 11.5898C99.3678 12.7796 100.049 14.6482 100.121 17.1958ZM96.5502 15.6421H88.8933C89.0367 14.4943 89.4669 13.5634 90.1839 12.8496C90.9008 12.1357 91.7826 11.7788 92.8293 11.7788C94.0051 11.7788 94.9084 12.1707 95.5394 12.9546C96.1416 13.7384 96.4786 14.6342 96.5502 15.6421ZM88.7213 17.1958H98.7011C98.4143 14.7602 97.7332 13.0245 96.6578 11.9887C95.5681 10.9389 94.3063 10.414 92.8724 10.414C91.0943 10.414 89.6533 11.1419 88.5492 12.5976C87.4308 14.0673 86.8716 15.908 86.8716 18.1196C86.8716 20.4152 87.4738 22.3118 88.6783 23.8095C89.8828 25.3213 91.5962 26.0771 93.8187 26.0771C97.5182 26.0771 100.027 24.2365 101.347 20.5551H100.422C99.7909 21.7589 98.9305 22.7177 97.8408 23.4316C96.751 24.1455 95.5322 24.5024 94.1844 24.5024C92.5498 24.5024 91.2234 23.9565 90.2054 22.8647C89.1873 21.7589 88.6783 20.2962 88.6783 18.4765C88.6783 18.3226 88.6927 17.8956 88.7213 17.1958ZM105.218 20.7861H105.735C106.065 20.5901 106.644 20.4922 107.476 20.4922H112.487C114.682 20.4922 116.059 19.2744 116.618 16.8388H115.951C115.592 17.6507 115.141 18.2036 114.596 18.4975C114.065 18.7915 113.147 18.9384 111.842 18.9384H108.487C107.555 18.9384 106.881 19.0434 106.465 19.2534C106.065 19.4633 105.649 19.9742 105.218 20.7861ZM115.026 15.726H114.488C114.158 15.922 113.585 16.02 112.767 16.02H107.756C105.548 16.02 104.172 17.2308 103.627 19.6523H104.293C104.652 18.8405 105.104 18.2876 105.649 17.9936C106.179 17.7137 107.089 17.5737 108.38 17.5737H111.756C112.688 17.5737 113.355 17.4617 113.757 17.2378C114.144 17.0418 114.567 16.5379 115.026 15.726ZM119.413 20.0302H119.091C119.062 20.5621 119.048 20.9611 119.048 21.227C119.048 21.7029 119.069 22.1508 119.112 22.5708C119.17 23.0187 119.198 23.7745 119.198 24.8383C121.163 25.5522 122.897 25.9091 124.403 25.9091C126.11 25.9091 127.408 25.5662 128.296 24.8803C129.199 24.1805 129.651 23.2846 129.651 22.1928C129.651 21.157 129.293 20.3662 128.576 19.8203C127.845 19.2744 126.676 18.8125 125.07 18.4345C123.378 18.0286 122.174 17.6717 121.457 17.3637C120.726 17.0558 120.159 16.6079 119.758 16.02C119.327 15.4041 119.112 14.7462 119.112 14.0464C119.112 13.7524 119.141 13.4305 119.198 13.0805C118.639 13.8084 118.359 14.5853 118.359 15.4111C118.359 16.4749 118.782 17.3637 119.629 18.0776C120.475 18.7775 121.758 19.3094 123.478 19.6733C125.228 20.0232 126.433 20.3942 127.092 20.7861C127.738 21.178 128.06 21.6959 128.06 22.3398C128.06 22.9417 127.745 23.4666 127.114 23.9145C126.454 24.3624 125.672 24.5864 124.769 24.5864C123.622 24.5864 122.547 24.1525 121.543 23.2846C120.554 22.4168 119.844 21.332 119.413 20.0302ZM128.662 12.5556C129.766 13.2135 130.569 14.1863 131.071 15.4741H131.372C131.372 14.6902 131.351 14.0464 131.308 13.5424C131.25 12.9686 131.222 12.4227 131.222 11.9048C131.222 11.8628 131.236 11.6738 131.265 11.3379C129.472 10.652 127.723 10.309 126.017 10.309C124.224 10.309 122.869 10.61 121.952 11.2119C121.02 11.8278 120.554 12.6396 120.554 13.6474C120.554 14.5433 120.869 15.2221 121.5 15.684C122.117 16.132 123.22 16.5379 124.812 16.9018C127.508 17.5177 129.221 18.2666 129.952 19.1484C130.698 20.0442 131.071 21.0311 131.071 22.1089C131.071 22.4728 131.014 22.9137 130.899 23.4316C131.702 22.3678 132.104 21.409 132.104 20.5551C132.104 19.5613 131.695 18.6165 130.877 17.7207C130.06 16.8248 128.26 16.09 125.479 15.5161C124.131 15.2361 123.227 14.9702 122.768 14.7182C122.282 14.4523 122.038 14.0743 122.038 13.5844C122.038 12.9406 122.368 12.4437 123.026 12.0937C123.7 11.7578 124.475 11.5898 125.35 11.5898C126.468 11.5898 127.573 11.9117 128.662 12.5556ZM136.211 21.584C136.211 20.2682 136.663 19.0574 137.567 17.9516C135.53 18.5815 134.512 19.7993 134.512 21.6049C134.512 22.6408 134.863 23.4806 135.566 24.1245C136.24 24.7824 137.014 25.2093 137.889 25.4052C136.771 24.4114 136.211 23.1377 136.211 21.584ZM147.267 25.6152L151.396 25.8672V25.4892C150.335 25.3353 149.654 25.0203 149.353 24.5444C149.038 24.0685 148.88 23.2776 148.88 22.1718V15.684C148.88 14.0184 148.658 12.8636 148.213 12.2197C147.769 11.5898 146.922 11.1559 145.675 10.9179C146.277 11.2959 146.7 11.7508 146.944 12.2827C147.159 12.8006 147.267 13.6124 147.267 14.7182V25.6152ZM144.256 18.3925V23.8725C143.596 24.3484 142.922 24.5864 142.234 24.5864C141.459 24.5864 140.8 24.2924 140.255 23.7046C139.724 23.1447 139.459 22.4658 139.459 21.6679C139.459 20.7861 139.774 20.0022 140.405 19.3164C141.036 18.6445 141.918 18.3086 143.051 18.3086C143.381 18.3086 143.783 18.3366 144.256 18.3925ZM144.256 15.0122V17.2378C143.768 17.1118 143.281 17.0488 142.793 17.0488C141.259 17.0488 140.032 17.4967 139.115 18.3925C138.169 19.2884 137.696 20.3662 137.696 21.6259C137.696 22.7177 138.083 23.6976 138.857 24.5654C139.616 25.4332 140.563 25.8672 141.696 25.8672C142.685 25.8672 143.539 25.4962 144.256 24.7544L144.191 25.8672C144.636 25.7272 145.187 25.6432 145.847 25.6152V14.6972C145.847 11.8418 144.507 10.414 141.825 10.414C140.592 10.414 139.401 10.687 138.255 11.2329C137.108 11.8068 136.269 12.5346 135.738 13.4165L136.276 13.9204C137.595 12.5066 139.216 11.7998 141.137 11.7998C142.37 11.7998 143.202 12.0797 143.632 12.6396C144.048 13.2135 144.256 14.0044 144.256 15.0122ZM171.098 15.3691V25.6152C171.299 25.6152 171.944 25.6432 173.033 25.6992C174.137 25.7692 174.926 25.8252 175.399 25.8672V25.4892C174.768 25.3772 174.223 25.1183 173.764 24.7124C173.291 24.3204 172.99 23.8515 172.861 23.3056C172.718 22.8017 172.646 21.9479 172.646 20.7441V15.852C172.646 13.7244 172.352 12.3597 171.765 11.7578C171.177 11.1699 170.395 10.8409 169.42 10.771C170.151 11.2189 170.61 11.7298 170.797 12.3037C170.998 12.9336 171.098 13.9554 171.098 15.3691ZM157.418 25.6152V10.645C155.311 10.575 153.92 10.498 153.246 10.414V10.771C154.293 11.0649 154.988 11.5268 155.333 12.1567C155.662 12.8286 155.826 13.8644 155.826 15.2641V20.4292C155.826 22.5008 155.612 23.8095 155.182 24.3554C154.752 24.9013 154.214 25.2793 153.569 25.4892V25.8672C154.659 25.7692 155.941 25.6852 157.418 25.6152ZM158.946 10.645V25.6152C159.964 25.6152 161.332 25.6992 163.053 25.8672V25.4892C161.361 25.0973 160.516 23.7815 160.516 21.542V12.9965C162.48 12.0727 164.036 11.6108 165.183 11.6108C166.259 11.6108 167.004 11.8978 167.419 12.4716C167.821 13.0315 168.022 13.9974 168.022 15.3691V22.0669C168.022 22.7667 167.972 23.9915 167.871 25.7412C168.43 25.6852 169.004 25.6432 169.592 25.6152V15.768C169.592 14.3543 169.506 13.3325 169.334 12.7026C169.162 12.0867 168.732 11.5338 168.043 11.0439C167.341 10.568 166.495 10.33 165.506 10.33C163.971 10.33 162.308 10.771 160.516 11.6528L160.667 10.54C160.279 10.582 159.706 10.617 158.946 10.645ZM178.389 22.0249L177.314 23.0957L180.411 26.0771L181.486 25.0063L178.389 22.0249ZM180.389 20.0722L179.314 21.143L182.411 24.1245L183.486 23.0537L180.389 20.0722ZM193.831 18.4555C193.831 15.6421 194.592 13.4725 196.111 11.9467C193.401 13.0525 192.046 15.1381 192.046 18.2036C192.046 21.0311 193.401 23.2636 196.111 24.9013C194.592 22.9557 193.831 20.8071 193.831 18.4555ZM209.532 25.6152H210.285C211.26 25.6152 212.529 25.6992 214.092 25.8672V25.4892C213.389 25.4052 212.787 25.1533 212.285 24.7334C211.797 24.3414 211.474 23.8655 211.317 23.3056C211.174 22.7877 211.103 21.9339 211.103 20.7441V7.72656C211.103 5.19303 211.189 2.6595 211.36 0.125976C210.601 0.195963 209.991 0.230957 209.532 0.230957V25.6152ZM206.521 12.7656V18.4345C206.521 20.0722 206.478 21.542 206.391 22.8437C205.001 24.0615 203.539 24.6704 202.004 24.6704C200.513 24.6704 199.316 24.0615 198.412 22.8437C197.495 21.6539 197.036 20.1422 197.036 18.3086C197.036 16.2789 197.53 14.6692 198.52 13.4795C199.51 12.2897 200.907 11.6948 202.714 11.6948C203.99 11.6948 205.26 12.0517 206.521 12.7656ZM208.069 25.6152V0.230957C206.621 0.174967 205.188 0.097981 203.768 0V0.356933C204.801 0.580892 205.525 1.01481 205.94 1.65869C206.327 2.30257 206.521 3.26139 206.521 4.53515V11.3379C205.374 10.722 204.098 10.414 202.692 10.414C200.112 10.414 198.233 11.2189 197.057 12.8286C195.881 14.4383 195.293 16.3209 195.293 18.4765C195.293 20.5201 195.874 22.2908 197.036 23.7885C198.169 25.2723 199.804 26.0141 201.939 26.0141C203.503 26.0141 204.98 25.4892 206.37 24.4394C206.37 24.8593 206.348 25.2933 206.305 25.7412C206.664 25.6852 207.252 25.6432 208.069 25.6152ZM219.211 24.0615L219.297 23.9355C218.25 22.3258 217.726 20.4082 217.726 18.1826C217.726 16.041 218.178 14.2073 219.082 12.6816L218.974 12.5766C217.741 13.5284 216.93 14.4733 216.544 15.4111C216.157 16.3489 215.963 17.3217 215.963 18.3296C215.963 20.9331 217.045 22.8437 219.211 24.0615ZM232.417 17.1958H234.331C234.001 14.3963 232.682 12.5276 230.373 11.5898C231.664 12.7796 232.345 14.6482 232.417 17.1958ZM228.846 15.6421H221.19C221.333 14.4943 221.763 13.5634 222.48 12.8496C223.197 12.1357 224.079 11.7788 225.126 11.7788C226.302 11.7788 227.205 12.1707 227.835 12.9546C228.437 13.7384 228.774 14.6342 228.846 15.6421ZM221.018 17.1958H230.997C230.71 14.7602 230.029 13.0245 228.954 11.9887C227.864 10.9389 226.603 10.414 225.169 10.414C223.39 10.414 221.95 11.1419 220.846 12.5976C219.727 14.0673 219.168 15.908 219.168 18.1196C219.168 20.4152 219.77 22.3118 220.975 23.8095C222.179 25.3213 223.892 26.0771 226.115 26.0771C229.814 26.0771 232.324 24.2365 233.642 20.5551H232.718C232.087 21.7589 231.227 22.7177 230.137 23.4316C229.047 24.1455 227.828 24.5024 226.481 24.5024C224.846 24.5024 223.519 23.9565 222.501 22.8647C221.484 21.7589 220.975 20.2962 220.975 18.4765C220.975 18.3226 220.989 17.8956 221.018 17.1958ZM246.913 24.6494L237.558 10.645C236.726 10.617 235.55 10.54 234.03 10.414V10.771C234.79 10.9249 235.464 11.2539 236.052 11.7578C236.625 12.2477 237.357 13.1435 238.246 14.4453L245.967 25.8881H246.117L246.913 24.6494Z" fill="white"/>
<path d="M253.323 14.5293L247.774 23.3266L239.191 10.645C240.783 10.645 242.425 10.568 244.118 10.414V10.771C243.056 11.0929 242.526 11.5898 242.526 12.2617C242.526 12.6536 242.906 13.4095 243.666 14.5293L247.623 20.4292L250.849 15.3061C251.523 14.2283 251.86 13.3605 251.86 12.7026C251.86 11.8628 251.136 11.2189 249.688 10.771V10.414C249.731 10.414 250.125 10.449 250.87 10.519C251.688 10.617 252.333 10.666 252.807 10.666C253.38 10.666 254.872 10.582 257.28 10.414V10.771C256.549 10.9809 255.91 11.3379 255.366 11.8418C254.822 12.3457 254.14 13.2415 253.323 14.5293Z" fill="white"/>
<path d="M182.555 15.5453L183.099 16.1041L183.115 16.0693L183.128 16.0329L182.555 15.5453ZM182.209 16.0659L182.592 16.8729L182.598 16.8662L182.604 16.8593L182.209 16.0659ZM181.188 10.9084L180.698 10.2458L180.695 10.2505L181.188 10.9084ZM182.104 9.27398L182.633 9.86635L182.636 9.86049L182.104 9.27398ZM182.579 5.56928L181.922 5.49862L181.91 5.75317L181.981 5.98489L182.579 5.56928ZM182.836 5.09711L182.431 4.31546L182.423 4.32508L182.836 5.09711ZM183.278 4.77022L183.362 3.78652L183.292 3.77291L183.221 3.78216L183.278 4.77022ZM185.328 11.2353L184.889 10.4969L184.885 10.502L185.328 11.2353ZM184.396 12.4581L184.815 13.2235L184.817 13.22L184.396 12.4581ZM177.731 10.9689L177.076 10.866L177 11.9607H177.731V10.9689ZM178.31 6.07776L177.753 5.54816L177.711 5.6469L177.686 5.75744L178.31 6.07776ZM178.969 5.18186L178.78 4.23146L178.769 4.23675L178.969 5.18186ZM182.563 4.49177L182.859 5.37748L182.558 3.5L182.563 4.49177ZM178.623 10.0488L178.085 9.47721L178.081 9.48693L178.623 10.0488ZM178.213 10.6057L177.818 9.81224L177.812 9.81961L178.213 10.6057ZM182.555 15.5453L182.011 14.9866C181.981 15.0509 181.923 15.149 181.814 15.2725L181.815 15.2754L182.209 16.0659L182.604 16.8593C182.795 16.6438 182.967 16.3949 183.099 16.1041L182.555 15.5453ZM180.653 13.518C180.935 12.9025 181.277 12.2523 181.681 11.5663L181.188 10.9084L180.695 10.2505C180.263 10.9851 179.887 11.6984 179.569 12.3904L180.653 13.518ZM181.188 10.9084L181.678 11.5709C182.104 10.8559 182.426 10.2836 182.633 9.86635L182.104 9.27398L181.576 8.6816C181.407 9.02308 181.118 9.54031 180.698 10.2458L181.188 10.9084ZM182.104 9.27398L182.636 9.86049C183.12 8.86638 183.382 7.77698 183.382 6.61047H182.065C182.065 7.30035 181.915 7.98661 181.573 8.68747L182.104 9.27398ZM183.382 6.61047C183.382 6.10128 183.317 5.61061 183.177 5.15366L182.579 5.56928L181.981 5.98489C182.034 6.1575 182.065 6.36096 182.065 6.61047H183.382ZM182.579 5.56928L183.236 5.63993C183.229 5.77989 183.201 5.87866 183.185 5.92503C183.177 5.9503 183.169 5.96832 183.164 5.97879C183.16 5.98942 183.156 5.99559 183.156 5.99559C183.156 5.99559 183.163 5.9842 183.179 5.96032C183.196 5.93701 183.219 5.90668 183.25 5.86914L182.836 5.09711L182.423 4.32508C182.322 4.44713 182.221 4.58518 182.138 4.73737C182.069 4.86412 181.939 5.13025 181.922 5.49862L182.579 5.56928ZM182.836 5.09711L183.242 5.87867C183.302 5.80719 183.343 5.77075 183.365 5.75435C183.389 5.73722 183.376 5.7529 183.335 5.75829L183.278 4.77022L183.221 3.78216C182.907 3.82331 182.636 4.07403 182.431 4.31546L182.836 5.09711ZM183.278 4.77022L183.194 5.75393C184.077 5.9248 184.698 6.30249 185.114 6.81142L185.944 5.27147C185.278 4.45671 184.398 3.98693 183.362 3.78652L183.278 4.77022ZM185.114 6.81142C185.509 7.29381 185.683 7.85124 185.683 8.54756H187C187 7.22607 186.633 6.11276 185.944 5.27147L185.114 6.81142ZM185.683 8.54756C185.683 9.02128 185.501 9.66991 184.889 10.4969L185.328 11.2353L185.768 11.9736C186.506 10.9765 187 9.83337 187 8.54756H185.683ZM185.328 11.2353L184.885 10.502C184.592 10.9036 184.289 11.3016 183.974 11.6962L184.396 12.4581L184.817 13.22C185.146 12.8074 185.464 12.3903 185.772 11.9686L185.328 11.2353ZM184.396 12.4581L183.977 11.6926C183.088 12.7958 182.41 13.9146 181.981 15.0578L182.555 15.5453L183.128 16.0329C183.45 15.1743 183.999 14.235 184.815 13.2235L184.396 12.4581ZM177.731 10.9689L178.386 11.0718C178.541 8.8397 178.728 7.30314 178.933 6.3981L178.31 6.07776L177.686 5.75744C177.431 6.88635 177.232 8.61057 177.076 10.866L177.731 10.9689ZM178.31 6.07776L178.867 6.60738C178.895 6.53907 178.955 6.4237 179.065 6.25847L178.133 4.85586C177.986 5.07806 177.853 5.30975 177.753 5.54816L178.31 6.07776ZM179.065 6.25847C179.106 6.19705 179.136 6.16065 179.156 6.14052C179.176 6.12046 179.18 6.12152 179.169 6.12697L178.969 5.18186L178.769 4.23675C178.515 4.3586 178.304 4.59879 178.133 4.85586L179.065 6.25847ZM178.969 5.18186L179.158 6.13211C180.067 5.72285 181.199 5.4992 182.568 5.48353L182.563 4.49177L182.558 3.5C181.107 3.51661 179.844 3.75289 178.78 4.23146L178.969 5.18186ZM182.563 4.49177L182.266 3.60606C180.757 4.75167 179.368 6.73825 178.085 9.47721L178.623 10.0488L179.162 10.6204C180.366 8.04847 181.603 6.33038 182.859 5.37748L182.563 4.49177ZM178.623 10.0488L178.081 9.48693C178.094 9.45662 178.09 9.47441 178.035 9.54842C177.987 9.61446 177.916 9.70183 177.818 9.81224L178.213 10.6057L178.608 11.3992C178.817 11.1631 179.038 10.8906 179.166 10.6107L178.623 10.0488ZM178.213 10.6057L177.812 9.81961C177.727 9.9181 177.671 9.96873 177.641 9.99104C177.627 10.0015 177.627 9.99982 177.639 9.99474C177.649 9.98988 177.682 9.97713 177.731 9.97713V10.9689V11.9607C177.933 11.9607 178.107 11.8579 178.23 11.7652C178.362 11.6665 178.491 11.5355 178.615 11.3918L178.213 10.6057Z" fill="white"/>
<path d="M180.653 13.518L179.569 12.3904C179.039 13.5464 178.712 14.8676 178.582 16.3335L178.478 17.5C178.583 16.3185 180.25 14.396 180.653 13.518Z" fill="white"/>
<path d="M182.209 16.0659L181.815 15.2754C181.78 15.3322 181.663 15.5281 181.515 15.779C181.145 16.4048 180.565 17.384 180.565 17.384L181.871 17.3113L181.879 17.3109L181.886 17.3102C182.174 17.2847 182.425 17.0523 182.592 16.8729L182.209 16.0659Z" fill="white"/>
</g>
<defs>
<clipPath id="clip0_2210_2">
<rect width="258" height="27" fill="white"/>
</clipPath>
</defs>
</svg>
