<svg width="85" height="12" viewBox="0 0 85 12" fill="none" xmlns="http://www.w3.org/2000/svg">
<path d="M4.68978 11.4803C3.75645 11.4803 2.93511 11.3497 2.22578 11.0883C1.52578 10.8363 0.979781 10.505 0.587781 10.0943C0.195781 9.68367 -0.000218734 9.259 -0.000218734 8.82034C-0.000218734 8.40034 0.195781 7.999 0.587781 7.61634C0.979781 7.23367 1.58645 6.92567 2.40778 6.69234C2.56645 6.64567 2.73911 6.60367 2.92578 6.56634C3.12178 6.51967 3.30378 6.48234 3.47178 6.45434C3.63978 6.417 3.76111 6.39834 3.83578 6.39834C3.91978 6.39834 3.96178 6.445 3.96178 6.53834C3.96178 6.613 3.91978 6.65967 3.83578 6.67834C2.58511 6.85567 1.67978 7.145 1.11978 7.54634C0.559781 7.94767 0.279781 8.37234 0.279781 8.82034C0.279781 9.21234 0.466448 9.59034 0.839781 9.95434C1.21311 10.3183 1.73111 10.617 2.39378 10.8503C3.05645 11.0837 3.82178 11.2003 4.68978 11.2003C5.45511 11.2003 6.21578 11.1117 6.97178 10.9343C7.73712 10.7663 8.43245 10.5237 9.05778 10.2063C9.69245 9.889 10.1964 9.511 10.5698 9.07234C10.9524 8.63367 11.1438 8.153 11.1438 7.63034C11.1438 7.26634 11.0318 6.90234 10.8078 6.53834C10.5838 6.165 10.1778 5.815 9.58978 5.48834C9.01111 5.15234 8.17111 4.85367 7.06978 4.59234C6.20178 4.37767 5.58578 4.13034 5.22178 3.85034C4.86711 3.57034 4.68978 3.27634 4.68978 2.96834C4.68978 2.66034 4.83911 2.357 5.13778 2.05834C5.44578 1.75967 5.82845 1.503 6.28578 1.28834C6.57511 1.14834 6.96711 1.027 7.46178 0.924336C7.95645 0.821669 8.46512 0.770335 8.98778 0.770335C9.43578 0.770335 9.86511 0.821669 10.2758 0.924336C10.6864 1.01767 11.0318 1.18567 11.3118 1.42834C11.5918 1.66167 11.7598 1.98834 11.8158 2.40834C11.8251 2.52034 11.8858 2.57634 11.9978 2.57634C12.0724 2.57634 12.1518 2.54367 12.2358 2.47834C12.3291 2.40367 12.3804 2.329 12.3898 2.25434C12.4271 1.881 12.3571 1.56834 12.1798 1.31634C12.0118 1.06434 11.7691 0.863669 11.4518 0.714335C11.1344 0.555669 10.7751 0.443669 10.3738 0.378335C9.97245 0.313002 9.55245 0.280336 9.11378 0.280336C8.68445 0.280336 8.25978 0.308336 7.83978 0.364336C7.42912 0.411002 7.05112 0.476335 6.70578 0.560336C6.36978 0.644336 6.10378 0.737669 5.90778 0.840335C5.28245 1.15767 4.76911 1.52634 4.36778 1.94634C3.97578 2.36634 3.77978 2.78167 3.77978 3.19234C3.77978 3.56567 3.97111 3.92034 4.35378 4.25634C4.73645 4.583 5.36178 4.85367 6.22978 5.06834C7.21911 5.30167 8.00311 5.563 8.58178 5.85234C9.16978 6.14167 9.58978 6.44967 9.84178 6.77634C10.1031 7.103 10.2338 7.439 10.2338 7.78434C10.2338 8.17634 10.0984 8.52634 9.82778 8.83434C9.55712 9.14234 9.20712 9.413 8.77778 9.64634C8.34845 9.87034 7.88645 10.0617 7.39178 10.2203C6.90645 10.3697 6.44445 10.4817 6.00578 10.5563C5.56711 10.631 5.20311 10.6683 4.91378 10.6683C4.07378 10.6683 3.37845 10.5797 2.82778 10.4023C2.28645 10.2157 1.88045 9.98234 1.60978 9.70234C1.34845 9.413 1.21778 9.119 1.21778 8.82034C1.21778 8.54034 1.32511 8.27434 1.53978 8.02234C1.76378 7.77034 2.08578 7.56967 2.50578 7.42034C2.93511 7.26167 3.45778 7.18234 4.07378 7.18234C4.16711 7.18234 4.21378 7.229 4.21378 7.32234C4.21378 7.41567 4.16711 7.46234 4.07378 7.46234C3.23378 7.46234 2.59445 7.60234 2.15578 7.88234C1.72645 8.153 1.51178 8.46567 1.51178 8.82034C1.51178 9.07234 1.63311 9.31967 1.87578 9.56234C2.11845 9.805 2.49178 10.0057 2.99578 10.1643C3.49978 10.3137 4.13911 10.3883 4.91378 10.3883C5.21245 10.3883 5.57645 10.351 6.00578 10.2763C6.43512 10.2017 6.87845 10.0943 7.33578 9.95434C7.79311 9.805 8.21778 9.623 8.60978 9.40834C9.01112 9.19367 9.33312 8.951 9.57578 8.68034C9.82778 8.40967 9.95378 8.111 9.95378 7.78434C9.95378 7.51367 9.84178 7.23834 9.61778 6.95834C9.40312 6.67834 9.02045 6.39834 8.46978 6.11834C7.92845 5.83834 7.15845 5.58167 6.15978 5.34834C5.19845 5.115 4.51245 4.81167 4.10178 4.43834C3.70045 4.065 3.49978 3.66834 3.49978 3.24834C3.49978 2.92167 3.59778 2.595 3.79378 2.26834C3.99911 1.94167 4.27445 1.63367 4.61978 1.34434C4.97445 1.055 5.36645 0.803002 5.79578 0.588335C6.01045 0.485669 6.29045 0.392335 6.63578 0.308335C6.98112 0.215002 7.36378 0.140336 7.78378 0.0843358C8.21311 0.0283354 8.64711 0.000335217 9.08578 0.000335217C9.55245 0.000335217 10.0051 0.0376686 10.4438 0.112335C10.8918 0.187002 11.2884 0.313002 11.6338 0.490336C11.9884 0.667669 12.2591 0.901002 12.4458 1.19034C12.6324 1.47967 12.7071 1.84367 12.6698 2.28234C12.6604 2.441 12.5811 2.57634 12.4318 2.68834C12.2918 2.80034 12.1424 2.85634 11.9838 2.85634C11.8811 2.85634 11.7831 2.82367 11.6898 2.75834C11.6058 2.693 11.5544 2.58567 11.5358 2.43634C11.4891 2.091 11.3351 1.82034 11.0738 1.62434C10.8218 1.419 10.5044 1.26967 10.1218 1.17634C9.74845 1.083 9.35178 1.03634 8.93178 1.03634C8.46511 1.03634 8.00311 1.083 7.54578 1.17634C7.08845 1.26967 6.70578 1.391 6.39778 1.54034C5.98711 1.74567 5.64645 1.96967 5.37578 2.21234C5.10511 2.455 4.96978 2.70234 4.96978 2.95434C4.96978 3.197 5.13311 3.43967 5.45978 3.68234C5.79578 3.91567 6.35111 4.12567 7.12578 4.31234C8.23645 4.57367 9.09978 4.88167 9.71578 5.23634C10.3411 5.591 10.7798 5.969 11.0318 6.37034C11.2931 6.77167 11.4238 7.19167 11.4238 7.63034C11.4238 8.10634 11.2884 8.545 11.0178 8.94634C10.7564 9.34767 10.3924 9.707 9.92578 10.0243C9.46845 10.3323 8.95045 10.5937 8.37178 10.8083C7.79312 11.0323 7.18645 11.2003 6.55178 11.3123C5.91711 11.4243 5.29645 11.4803 4.68978 11.4803ZM15.6983 7.96634C15.6423 7.96634 15.5956 7.943 15.5583 7.89634C15.5303 7.84967 15.5349 7.79834 15.5723 7.74234C15.8523 7.33167 15.9923 6.935 15.9923 6.55234C15.9923 6.28167 15.9083 6.06234 15.7403 5.89434C15.5816 5.717 15.3389 5.62834 15.0123 5.62834C14.5269 5.62834 14.0509 5.843 13.5843 6.27234C13.1269 6.69234 12.6556 7.21967 12.1703 7.85434C12.1423 7.88234 12.1143 7.89634 12.0863 7.89634C12.0396 7.89634 12.0023 7.86834 11.9743 7.81234C11.9369 7.75634 11.9369 7.70034 11.9743 7.64434C12.2916 7.22434 12.6089 6.84167 12.9263 6.49634C13.2436 6.151 13.5703 5.87567 13.9063 5.67034C14.2516 5.465 14.6109 5.36234 14.9843 5.36234C15.4509 5.36234 15.7823 5.47434 15.9783 5.69834C16.1743 5.92234 16.2723 6.193 16.2723 6.51034C16.2723 6.74367 16.2303 6.98167 16.1463 7.22434C16.0623 7.467 15.9456 7.69567 15.7963 7.91034C15.7683 7.94767 15.7356 7.96634 15.6983 7.96634ZM13.1783 9.70234C12.9823 9.70234 12.8283 9.637 12.7163 9.50634C12.6136 9.36634 12.5623 9.189 12.5623 8.97434C12.5623 8.69434 12.6463 8.38634 12.8143 8.05034C12.9823 7.71434 13.1969 7.397 13.4583 7.09834C13.7289 6.79034 14.0089 6.53834 14.2983 6.34234C14.5876 6.14634 14.8489 6.04834 15.0823 6.04834C15.2129 6.04834 15.2783 6.095 15.2783 6.18834C15.2783 6.22567 15.2643 6.263 15.2363 6.30034C15.2083 6.32834 15.1709 6.33767 15.1243 6.32834C14.9283 6.30967 14.6996 6.389 14.4383 6.56634C14.1863 6.74367 13.9389 6.97234 13.6963 7.25234C13.4536 7.53234 13.2483 7.831 13.0803 8.14834C12.9216 8.45634 12.8423 8.73634 12.8423 8.98834C12.8423 9.10967 12.8656 9.21234 12.9123 9.29634C12.9589 9.38034 13.0476 9.42234 13.1783 9.42234C13.3276 9.42234 13.4863 9.37567 13.6543 9.28234C13.8223 9.17967 13.9763 9.05834 14.1163 8.91834C14.2563 8.77834 14.3589 8.64767 14.4243 8.52634C14.4523 8.47967 14.4896 8.45634 14.5363 8.45634C14.5829 8.45634 14.6249 8.47967 14.6623 8.52634C14.6996 8.56367 14.6996 8.61034 14.6623 8.66634C14.5783 8.80634 14.4569 8.96034 14.2983 9.12834C14.1396 9.287 13.9623 9.42234 13.7663 9.53434C13.5703 9.64634 13.3743 9.70234 13.1783 9.70234ZM15.5303 8.58234C15.2223 8.58234 14.9563 8.489 14.7323 8.30234C14.5083 8.11567 14.3963 7.86367 14.3963 7.54634C14.3963 7.43434 14.4103 7.31767 14.4383 7.19634C14.4756 7.06567 14.5269 6.93034 14.5923 6.79034C14.6203 6.73434 14.6623 6.70634 14.7183 6.70634C14.7649 6.70634 14.8023 6.725 14.8303 6.76234C14.8676 6.79967 14.8723 6.84634 14.8443 6.90234C14.7883 7.01434 14.7463 7.12167 14.7183 7.22434C14.6996 7.327 14.6903 7.425 14.6903 7.51834C14.6903 7.77034 14.7743 7.96634 14.9423 8.10634C15.1103 8.237 15.3109 8.30234 15.5443 8.30234C15.7496 8.30234 15.9596 8.251 16.1743 8.14834C16.3889 8.04567 16.5849 7.88234 16.7623 7.65834C16.7903 7.621 16.8229 7.60234 16.8603 7.60234C16.9069 7.60234 16.9489 7.63034 16.9863 7.68634C17.0236 7.733 17.0236 7.77967 16.9863 7.82634C16.7716 8.08767 16.5336 8.279 16.2723 8.40034C16.0203 8.52167 15.7729 8.58234 15.5303 8.58234ZM13.1503 10.5843C12.7489 10.5843 12.4129 10.4537 12.1423 10.1923C11.8716 9.92167 11.7549 9.60434 11.7923 9.24034C11.7923 9.147 11.8389 9.10034 11.9323 9.10034C11.9696 9.10034 12.0069 9.119 12.0443 9.15634C12.0723 9.18434 12.0816 9.22167 12.0723 9.26834C12.0536 9.511 12.1469 9.749 12.3523 9.98234C12.5669 10.2063 12.8376 10.3183 13.1643 10.3183C13.3789 10.3183 13.6076 10.253 13.8503 10.1223C14.0929 9.99167 14.3356 9.77234 14.5783 9.46434C14.5783 9.46434 14.6063 9.427 14.6623 9.35234C14.7276 9.27767 14.7976 9.19834 14.8723 9.11434C14.9469 9.021 14.9983 8.94634 15.0263 8.89034C15.0543 8.83434 15.0916 8.80634 15.1383 8.80634C15.1849 8.80634 15.2223 8.82967 15.2503 8.87634C15.2876 8.91367 15.2923 8.96034 15.2643 9.01634C15.2083 9.12834 15.1336 9.23567 15.0403 9.33834C14.9469 9.441 14.8629 9.54367 14.7883 9.64634C14.5269 9.98234 14.2516 10.225 13.9623 10.3743C13.6823 10.5143 13.4116 10.5843 13.1503 10.5843ZM18.5371 9.70234C18.4718 9.70234 18.4018 9.66034 18.3271 9.57634C18.2618 9.483 18.2291 9.343 18.2291 9.15634C18.2291 8.96034 18.2711 8.74567 18.3551 8.51234C18.4391 8.26967 18.5418 8.03167 18.6631 7.79834C18.7938 7.55567 18.9151 7.34567 19.0271 7.16834C19.1484 6.98167 19.2418 6.84634 19.3071 6.76234C19.4471 6.585 19.5684 6.431 19.6711 6.30034C19.7738 6.16967 19.8344 6.09034 19.8531 6.06234C19.9464 5.93167 19.9931 5.81034 19.9931 5.69834C19.9931 5.55834 19.9278 5.451 19.7971 5.37634C19.6758 5.29234 19.5404 5.25034 19.3911 5.25034C19.2324 5.25034 19.1111 5.28767 19.0271 5.36234C18.8964 5.48367 18.7564 5.62834 18.6071 5.79634C18.4671 5.955 18.3178 6.14167 18.1591 6.35634C17.9911 6.571 17.8138 6.79967 17.6271 7.04234C17.4404 7.285 17.2258 7.54634 16.9831 7.82634C16.9551 7.86367 16.9178 7.88234 16.8711 7.88234C16.8244 7.88234 16.7871 7.859 16.7591 7.81234C16.7218 7.75634 16.7218 7.705 16.7591 7.65834C17.0018 7.38767 17.2164 7.12634 17.4031 6.87434C17.5991 6.62234 17.7764 6.39367 17.9351 6.18834C18.1031 5.97367 18.2571 5.78234 18.3971 5.61434C18.5464 5.437 18.6958 5.283 18.8451 5.15234C18.9758 5.031 19.1531 4.97034 19.3771 4.97034C19.6011 4.97034 19.8064 5.04034 19.9931 5.18034C20.1891 5.311 20.2871 5.48367 20.2871 5.69834C20.2871 5.78234 20.2591 5.885 20.2031 6.00634C20.1471 6.11834 20.0164 6.30967 19.8111 6.58034C19.3071 7.243 18.9664 7.76567 18.7891 8.14834C18.6118 8.531 18.5231 8.87167 18.5231 9.17034C18.5231 9.31034 18.5511 9.40367 18.6071 9.45034C18.6444 9.47834 18.6631 9.51567 18.6631 9.56234C18.6631 9.65567 18.6211 9.70234 18.5371 9.70234ZM19.0971 9.39434C19.0038 9.39434 18.9571 9.34767 18.9571 9.25434C18.9571 9.19834 18.9851 9.15634 19.0411 9.12834C19.4891 8.88567 19.8718 8.55434 20.1891 8.13434C20.5064 7.71434 20.7864 7.26167 21.0291 6.77634C21.2718 6.291 21.5051 5.83834 21.7291 5.41834C21.7851 5.30634 21.8644 5.227 21.9671 5.18034C22.0791 5.12434 22.1958 5.09634 22.3171 5.09634C22.5318 5.09634 22.7324 5.16634 22.9191 5.30634C23.1151 5.44634 23.2131 5.62367 23.2131 5.83834C23.2131 5.997 23.1524 6.15567 23.0311 6.31434C23.0031 6.35167 22.9658 6.37034 22.9191 6.37034C22.8724 6.37034 22.8304 6.347 22.7931 6.30034C22.7651 6.25367 22.7698 6.20234 22.8071 6.14634C22.8911 6.03434 22.9331 5.927 22.9331 5.82434C22.9331 5.68434 22.8678 5.577 22.7371 5.50234C22.6064 5.42767 22.4758 5.39034 22.3451 5.39034C22.2704 5.39034 22.1958 5.40434 22.1211 5.43234C22.0558 5.46034 22.0091 5.50234 21.9811 5.55834C21.7478 5.997 21.5051 6.46834 21.2531 6.97234C21.0011 7.467 20.7071 7.929 20.3711 8.35834C20.0444 8.78767 19.6431 9.12834 19.1671 9.38034C19.1484 9.38967 19.1251 9.39434 19.0971 9.39434ZM18.2571 10.5003C17.9211 10.491 17.6504 10.3743 17.4451 10.1503C17.2491 9.92634 17.1511 9.623 17.1511 9.24034C17.1511 9.175 17.1511 9.10967 17.1511 9.04434C17.1604 8.979 17.1698 8.91367 17.1791 8.84834C17.2071 8.70834 17.2864 8.489 17.4171 8.19034C17.5478 7.89167 17.7158 7.57434 17.9211 7.23834C18.1358 6.893 18.3598 6.59434 18.5931 6.34234C18.6211 6.305 18.6538 6.28634 18.6911 6.28634C18.7471 6.28634 18.7891 6.31434 18.8171 6.37034C18.8451 6.42634 18.8358 6.47767 18.7891 6.52434C18.5651 6.77634 18.3551 7.06567 18.1591 7.39234C17.9631 7.70967 17.7998 8.00834 17.6691 8.28834C17.5478 8.56834 17.4778 8.769 17.4591 8.89034C17.4498 8.95567 17.4404 9.021 17.4311 9.08634C17.4311 9.14234 17.4311 9.19834 17.4311 9.25434C17.4311 9.581 17.5151 9.82367 17.6831 9.98234C17.8511 10.141 18.0564 10.2203 18.2991 10.2203C18.5978 10.2203 18.9431 10.0943 19.3351 9.84234C19.7271 9.59034 20.1098 9.18434 20.4831 8.62434C20.5111 8.57767 20.5484 8.55434 20.5951 8.55434C20.6418 8.55434 20.6838 8.57767 20.7211 8.62434C20.7584 8.671 20.7538 8.727 20.7071 8.79234C20.3151 9.371 19.8998 9.80034 19.4611 10.0803C19.0318 10.3603 18.6304 10.5003 18.2571 10.5003ZM21.6311 9.70234C21.5751 9.70234 21.5331 9.69767 21.5051 9.68834C21.3744 9.64167 21.2811 9.57167 21.2251 9.47834C21.1784 9.385 21.1551 9.27767 21.1551 9.15634C21.1551 8.99767 21.1878 8.83434 21.2531 8.66634C21.3184 8.489 21.3884 8.321 21.4631 8.16234C21.5471 8.00367 21.6124 7.88234 21.6591 7.79834C21.7618 7.60234 21.8644 7.40634 21.9671 7.21034C22.0791 7.01434 22.1818 6.85567 22.2751 6.73434C22.3031 6.697 22.3404 6.67834 22.3871 6.67834C22.4338 6.67834 22.4758 6.70167 22.5131 6.74834C22.5504 6.795 22.5458 6.84634 22.4991 6.90234C22.2938 7.173 22.1118 7.47167 21.9531 7.79834C21.7944 8.11567 21.6451 8.42834 21.5051 8.73634C21.4491 8.85767 21.4211 8.98367 21.4211 9.11434C21.4211 9.31034 21.4958 9.40834 21.6451 9.40834C21.7198 9.40834 21.8271 9.36634 21.9671 9.28234C22.2844 9.077 22.5691 8.825 22.8211 8.52634C23.0731 8.22767 23.3158 7.93834 23.5491 7.65834C23.5771 7.621 23.6098 7.60234 23.6471 7.60234C23.7031 7.60234 23.7451 7.63034 23.7731 7.68634C23.8104 7.733 23.8058 7.78434 23.7591 7.84034C23.6938 7.92434 23.5771 8.06434 23.4091 8.26034C23.2504 8.45634 23.0638 8.66634 22.8491 8.89034C22.6344 9.11434 22.4198 9.30567 22.2051 9.46434C21.9904 9.623 21.7991 9.70234 21.6311 9.70234ZM21.2111 10.5143C21.0338 10.5143 20.8424 10.4863 20.6371 10.4303C20.4318 10.365 20.2684 10.2437 20.1471 10.0663C20.1284 10.029 20.1191 10.001 20.1191 9.98234C20.1191 9.889 20.1658 9.84234 20.2591 9.84234C20.3058 9.84234 20.3431 9.861 20.3711 9.89834C20.4551 10.0197 20.5764 10.1083 20.7351 10.1643C20.8938 10.211 21.0524 10.2343 21.2111 10.2343C21.4538 10.2343 21.7244 10.183 22.0231 10.0803C22.3311 9.97767 22.6391 9.80967 22.9471 9.57634C22.9658 9.55767 22.9938 9.54834 23.0311 9.54834C23.1244 9.54834 23.1711 9.595 23.1711 9.68834C23.1711 9.735 23.1524 9.77234 23.1151 9.80034C22.7884 10.0523 22.4571 10.2343 22.1211 10.3463C21.7944 10.4583 21.4911 10.5143 21.2111 10.5143ZM26.158 8.70834C26.1113 8.70834 26.0693 8.685 26.032 8.63834C26.004 8.58234 26.0133 8.52634 26.06 8.47034C26.396 8.097 26.7227 7.79834 27.04 7.57434C27.3667 7.35034 27.7447 7.13567 28.174 6.93034C28.342 6.85567 28.524 6.739 28.72 6.58034C28.916 6.42167 29.014 6.23967 29.014 6.03434C29.014 5.95967 28.986 5.88967 28.93 5.82434C28.8833 5.759 28.79 5.72634 28.65 5.72634C28.5847 5.72634 28.524 5.731 28.468 5.74034C28.412 5.74034 28.3513 5.74034 28.286 5.74034C27.9687 5.74034 27.656 5.71234 27.348 5.65634C27.04 5.591 26.732 5.55834 26.424 5.55834C25.9853 5.55834 25.6027 5.67034 25.276 5.89434C24.9587 6.109 24.8 6.39367 24.8 6.74834C24.8 7.00034 24.8933 7.229 25.08 7.43434C25.108 7.46234 25.122 7.495 25.122 7.53234C25.122 7.635 25.0753 7.68634 24.982 7.68634C24.9447 7.68634 24.9073 7.66767 24.87 7.63034C24.6273 7.37834 24.506 7.089 24.506 6.76234C24.506 6.45434 24.5947 6.18834 24.772 5.96434C24.9587 5.74034 25.1967 5.56767 25.486 5.44634C25.7847 5.325 26.0973 5.26434 26.424 5.26434C26.7787 5.26434 27.1287 5.30634 27.474 5.39034C27.8193 5.465 28.1787 5.48367 28.552 5.44634C28.804 5.41834 28.9907 5.46034 29.112 5.57234C29.2333 5.68434 29.294 5.82434 29.294 5.99234C29.294 6.14167 29.2473 6.30034 29.154 6.46834C29.0607 6.63634 28.9253 6.79034 28.748 6.93034C28.5987 7.04234 28.4353 7.13567 28.258 7.21034C28.09 7.27567 27.922 7.355 27.754 7.44834C27.558 7.551 27.334 7.69567 27.082 7.88234C26.8393 8.05967 26.564 8.321 26.256 8.66634C26.228 8.69434 26.1953 8.70834 26.158 8.70834ZM25.598 7.26634C25.5607 7.26634 25.528 7.24767 25.5 7.21034C25.3973 7.07967 25.346 6.93034 25.346 6.76234C25.346 6.49167 25.444 6.28167 25.64 6.13234C25.8453 5.983 26.102 5.90834 26.41 5.90834C26.6993 5.90834 27.0167 5.941 27.362 6.00634C27.7167 6.07167 28.0107 6.123 28.244 6.16034C28.328 6.16967 28.37 6.21634 28.37 6.30034C28.37 6.41234 28.3187 6.459 28.216 6.44034C28.0013 6.403 27.7167 6.35167 27.362 6.28634C27.0167 6.221 26.7087 6.18834 26.438 6.18834C25.8967 6.18834 25.626 6.37967 25.626 6.76234C25.626 6.84634 25.6587 6.93967 25.724 7.04234C25.7427 7.061 25.752 7.089 25.752 7.12634C25.752 7.21967 25.7007 7.26634 25.598 7.26634ZM25.052 8.65234C25.0053 8.65234 24.9633 8.629 24.926 8.58234C24.898 8.52634 24.9073 8.47034 24.954 8.41434C25.4113 7.94767 25.794 7.593 26.102 7.35034C26.41 7.10767 26.6433 6.94434 26.802 6.86034C26.9607 6.77634 27.04 6.73434 27.04 6.73434C27.0493 6.725 27.068 6.72034 27.096 6.72034C27.1893 6.72034 27.236 6.77167 27.236 6.87434C27.236 6.921 27.208 6.95834 27.152 6.98634C27.152 6.98634 27.11 7.00967 27.026 7.05634C26.942 7.09367 26.8207 7.16834 26.662 7.28034C26.5033 7.39234 26.2933 7.55567 26.032 7.77034C25.78 7.985 25.486 8.265 25.15 8.61034C25.122 8.63834 25.0893 8.65234 25.052 8.65234ZM27.53 10.7103C27.1567 10.7103 26.816 10.6403 26.508 10.5003C26.2093 10.3603 25.9293 10.2203 25.668 10.0803C25.4067 9.931 25.1407 9.85634 24.87 9.85634C24.702 9.85634 24.5853 9.89834 24.52 9.98234C24.4547 10.0663 24.422 10.1457 24.422 10.2203C24.422 10.3137 24.4407 10.3743 24.478 10.4023C24.506 10.4303 24.52 10.463 24.52 10.5003C24.52 10.603 24.4733 10.6543 24.38 10.6543C24.3427 10.6543 24.3053 10.6357 24.268 10.5983C24.1653 10.4957 24.114 10.3743 24.114 10.2343C24.114 10.0477 24.184 9.89367 24.324 9.77234C24.4733 9.64167 24.6647 9.57634 24.898 9.57634C25.1593 9.57634 25.4347 9.651 25.724 9.80034C26.0227 9.94967 26.326 10.099 26.634 10.2483C26.942 10.3883 27.2407 10.4583 27.53 10.4583C27.866 10.4583 28.1273 10.3603 28.314 10.1643C28.5007 9.959 28.594 9.73967 28.594 9.50634C28.594 9.37567 28.566 9.24967 28.51 9.12834C28.454 8.99767 28.3607 8.88567 28.23 8.79234C28.1927 8.76434 28.174 8.727 28.174 8.68034C28.174 8.63367 28.1973 8.59167 28.244 8.55434C28.3 8.517 28.3513 8.52167 28.398 8.56834C28.566 8.699 28.6873 8.84834 28.762 9.01634C28.8367 9.175 28.874 9.33367 28.874 9.49234C28.874 9.80967 28.7527 10.0943 28.51 10.3463C28.2673 10.589 27.9407 10.7103 27.53 10.7103ZM27.824 9.85634C27.5533 9.85634 27.3013 9.81434 27.068 9.73034C26.844 9.637 26.6247 9.53434 26.41 9.42234C26.2047 9.31034 25.9853 9.21234 25.752 9.12834C25.5187 9.035 25.262 8.98834 24.982 8.98834C24.6087 8.98834 24.3333 9.06767 24.156 9.22634C23.9787 9.37567 23.89 9.525 23.89 9.67434V9.70234C23.89 9.79567 23.8433 9.84234 23.75 9.84234C23.722 9.84234 23.694 9.833 23.666 9.81434C23.6287 9.78634 23.61 9.75367 23.61 9.71634C23.61 9.41767 23.7407 9.175 24.002 8.98834C24.2633 8.80167 24.5993 8.70834 25.01 8.70834C25.29 8.70834 25.5467 8.755 25.78 8.84834C26.0227 8.93234 26.2467 9.03034 26.452 9.14234C26.6667 9.25434 26.886 9.357 27.11 9.45034C27.334 9.53434 27.572 9.57634 27.824 9.57634C27.9267 9.57634 27.978 9.623 27.978 9.71634C27.978 9.80967 27.9267 9.85634 27.824 9.85634ZM31.1855 8.28834C31.0175 8.28834 30.8729 8.251 30.7515 8.17634C30.6955 8.14834 30.6675 8.111 30.6675 8.06434C30.6675 8.01767 30.6862 7.98034 30.7235 7.95234C30.7702 7.915 30.8215 7.91034 30.8775 7.93834C30.9895 7.985 31.0922 8.00834 31.1855 8.00834C31.3815 8.00834 31.5962 7.95234 31.8295 7.84034C32.0629 7.719 32.2869 7.565 32.5015 7.37834C32.7162 7.19167 32.8889 6.991 33.0195 6.77634C33.1595 6.56167 33.2295 6.35634 33.2295 6.16034C33.2295 5.77767 33.0335 5.58634 32.6415 5.58634C32.2029 5.58634 31.7922 5.703 31.4095 5.93634C31.0362 6.16034 30.6909 6.445 30.3735 6.79034C30.0655 7.12634 29.7902 7.47167 29.5475 7.82634C29.5195 7.873 29.4822 7.89634 29.4355 7.89634C29.3889 7.89634 29.3515 7.873 29.3235 7.82634C29.2862 7.77967 29.2862 7.72834 29.3235 7.67234C29.5662 7.31767 29.8509 6.95834 30.1775 6.59434C30.5042 6.23034 30.8729 5.927 31.2835 5.68434C31.7035 5.43234 32.1562 5.30634 32.6415 5.30634C32.8935 5.30634 33.0989 5.381 33.2575 5.53034C33.4255 5.67967 33.5095 5.88967 33.5095 6.16034C33.5095 6.41234 33.4302 6.66434 33.2715 6.91634C33.1222 7.159 32.9262 7.38767 32.6835 7.60234C32.4502 7.80767 32.1982 7.97567 31.9275 8.10634C31.6569 8.22767 31.4095 8.28834 31.1855 8.28834ZM30.8635 9.59034C30.6115 9.59034 30.3782 9.525 30.1635 9.39434C29.9582 9.26367 29.8555 9.03967 29.8555 8.72234C29.8555 8.461 29.9489 8.181 30.1355 7.88234C30.3315 7.58367 30.5695 7.299 30.8495 7.02834C31.1389 6.74834 31.4329 6.50567 31.7315 6.30034C32.0302 6.095 32.2869 5.95967 32.5015 5.89434C32.5109 5.89434 32.5155 5.89434 32.5155 5.89434C32.5249 5.885 32.5342 5.88034 32.5435 5.88034C32.6369 5.88034 32.6835 5.93167 32.6835 6.03434C32.6835 6.09034 32.6509 6.13234 32.5855 6.16034C32.3802 6.22567 32.1375 6.35634 31.8575 6.55234C31.5869 6.74834 31.3162 6.977 31.0455 7.23834C30.7842 7.49034 30.5649 7.747 30.3875 8.00834C30.2195 8.26967 30.1355 8.50767 30.1355 8.72234C30.1355 8.92767 30.2009 9.077 30.3315 9.17034C30.4715 9.26367 30.6489 9.31034 30.8635 9.31034C31.4142 9.31034 31.9695 9.16567 32.5295 8.87634C33.0989 8.57767 33.5842 8.167 33.9855 7.64434C34.0135 7.607 34.0462 7.58834 34.0835 7.58834C34.1395 7.58834 34.1815 7.61634 34.2095 7.67234C34.2469 7.719 34.2422 7.77034 34.1955 7.82634C33.7755 8.36767 33.2622 8.797 32.6555 9.11434C32.0582 9.43167 31.4609 9.59034 30.8635 9.59034ZM30.7935 10.4303C30.5509 10.4303 30.3035 10.393 30.0515 10.3183C29.7995 10.2437 29.5895 10.1223 29.4215 9.95434C29.2442 9.777 29.1555 9.54367 29.1555 9.25434C29.1555 9.15167 29.2022 9.10034 29.2955 9.10034C29.3889 9.10034 29.4355 9.15167 29.4355 9.25434C29.4355 9.43167 29.4682 9.57167 29.5335 9.67434C29.6082 9.777 29.7342 9.87034 29.9115 9.95434C30.0515 10.0197 30.2009 10.071 30.3595 10.1083C30.5275 10.1363 30.6722 10.1503 30.7935 10.1503C31.1389 10.1503 31.4749 10.085 31.8015 9.95434C32.1375 9.82367 32.4455 9.65567 32.7255 9.45034C32.7442 9.43167 32.7722 9.42234 32.8095 9.42234C32.9029 9.42234 32.9495 9.469 32.9495 9.56234C32.9495 9.609 32.9309 9.64634 32.8935 9.67434C32.5949 9.89834 32.2635 10.0803 31.8995 10.2203C31.5449 10.3603 31.1762 10.4303 30.7935 10.4303ZM35.4 7.22434C35.176 7.22434 35.008 7.15434 34.896 7.01434C34.784 6.865 34.728 6.70634 34.728 6.53834C34.728 6.37967 34.784 6.23034 34.896 6.09034C35.008 5.941 35.176 5.86634 35.4 5.86634H40.426C40.6967 5.86634 40.902 5.93634 41.042 6.07634C41.182 6.21634 41.252 6.37034 41.252 6.53834C41.252 6.70634 41.182 6.865 41.042 7.01434C40.902 7.15434 40.6967 7.22434 40.426 7.22434C40.3327 7.22434 40.286 7.17767 40.286 7.08434C40.286 6.991 40.3327 6.94434 40.426 6.94434C40.594 6.94434 40.72 6.90234 40.804 6.81834C40.888 6.725 40.93 6.63167 40.93 6.53834C40.93 6.43567 40.888 6.347 40.804 6.27234C40.7293 6.18834 40.6033 6.14634 40.426 6.14634H35.4C35.2693 6.14634 35.1713 6.18834 35.106 6.27234C35.0407 6.347 35.008 6.43567 35.008 6.53834C35.008 6.641 35.0407 6.73434 35.106 6.81834C35.1713 6.90234 35.2693 6.94434 35.4 6.94434H39.656C39.7493 6.94434 39.796 6.991 39.796 7.08434C39.796 7.17767 39.7493 7.22434 39.656 7.22434H35.4ZM44.8326 9.24034C44.7393 9.24034 44.6926 9.203 44.6926 9.12834C44.6926 9.08167 44.7113 9.03967 44.7486 9.00234C44.9819 8.75034 45.1313 8.47967 45.1966 8.19034C45.2619 7.901 45.2946 7.61167 45.2946 7.32234C45.2946 7.12634 45.2853 6.93967 45.2666 6.76234C45.2573 6.585 45.2526 6.42167 45.2526 6.27234C45.2526 6.011 45.2899 5.81967 45.3646 5.69834C45.3926 5.661 45.4626 5.619 45.5746 5.57234C45.6866 5.52567 45.7939 5.465 45.8966 5.39034C45.9993 5.30634 46.0506 5.20367 46.0506 5.08234C46.0506 5.02634 46.0366 4.97034 46.0086 4.91434C45.9993 4.877 45.9666 4.83967 45.9106 4.80234C45.8639 4.765 45.7939 4.74634 45.7006 4.74634C45.6073 4.74634 45.4859 4.779 45.3366 4.84434C45.1873 4.90034 45.0053 5.00767 44.7906 5.16634C44.4639 5.409 44.0673 5.73567 43.6006 6.14634C43.1433 6.54767 42.5833 7.10767 41.9206 7.82634C41.8926 7.85434 41.8599 7.86834 41.8226 7.86834C41.7759 7.86834 41.7386 7.845 41.7106 7.79834C41.6733 7.74234 41.6779 7.68634 41.7246 7.63034C41.8366 7.509 42.0046 7.32234 42.2286 7.07034C42.4619 6.809 42.7279 6.529 43.0266 6.23034C43.3346 5.93167 43.6519 5.647 43.9786 5.37634C44.3053 5.10567 44.6179 4.88167 44.9166 4.70434C45.2246 4.527 45.4953 4.43834 45.7286 4.43834C45.9713 4.43834 46.1486 4.55967 46.2606 4.80234C46.2793 4.83967 46.2933 4.88167 46.3026 4.92834C46.3119 4.96567 46.3166 5.00767 46.3166 5.05434C46.3166 5.22234 46.2513 5.38567 46.1206 5.54434C45.9993 5.703 45.8173 5.81967 45.5746 5.89434C45.5466 5.97834 45.5326 6.109 45.5326 6.28634C45.5326 6.445 45.5373 6.613 45.5466 6.79034C45.5653 6.96767 45.5746 7.103 45.5746 7.19634C45.5839 7.45767 45.5653 7.733 45.5186 8.02234C45.4719 8.30234 45.3693 8.58234 45.2106 8.86234C45.4813 8.741 45.7426 8.58234 45.9946 8.38634C46.2559 8.181 46.4893 7.93367 46.6946 7.64434C46.7226 7.607 46.7553 7.58834 46.7926 7.58834C46.8393 7.58834 46.8766 7.61634 46.9046 7.67234C46.9419 7.72834 46.9419 7.77967 46.9046 7.82634C46.7273 8.07834 46.5079 8.31167 46.2466 8.52634C45.9853 8.741 45.7239 8.91367 45.4626 9.04434C45.2106 9.175 45.0006 9.24034 44.8326 9.24034ZM43.1106 9.67434C42.8866 9.665 42.6953 9.581 42.5366 9.42234C42.3873 9.26367 42.3126 9.063 42.3126 8.82034C42.3126 8.63367 42.3593 8.447 42.4526 8.26034C42.5646 8.00834 42.7326 7.733 42.9566 7.43434C43.1899 7.12634 43.4513 6.83234 43.7406 6.55234C44.0393 6.263 44.3333 6.025 44.6226 5.83834C44.6599 5.81967 44.6879 5.81034 44.7066 5.81034C44.7906 5.81034 44.8326 5.857 44.8326 5.95034C44.8326 5.997 44.8093 6.03434 44.7626 6.06234C44.4919 6.23034 44.2166 6.45434 43.9366 6.73434C43.6659 7.005 43.4233 7.28967 43.2086 7.58834C42.9939 7.87767 42.8306 8.139 42.7186 8.37234C42.6813 8.45634 42.6533 8.53567 42.6346 8.61034C42.6159 8.685 42.6066 8.755 42.6066 8.82034C42.6066 8.99767 42.6626 9.13767 42.7746 9.24034C42.8866 9.343 43.0173 9.39434 43.1666 9.39434C43.3813 9.39434 43.6006 9.29167 43.8246 9.08634C44.0486 8.87167 44.1933 8.52634 44.2586 8.05034C44.3053 7.733 44.3333 7.49967 44.3426 7.35034C44.3519 7.201 44.3613 7.019 44.3706 6.80434C44.3706 6.711 44.4173 6.66434 44.5106 6.66434C44.6039 6.66434 44.6506 6.711 44.6506 6.80434C44.6413 7.03767 44.6179 7.32234 44.5806 7.65834C44.5526 7.985 44.4873 8.307 44.3846 8.62434C44.2819 8.94167 44.1279 9.203 43.9226 9.40834C43.7173 9.60434 43.4466 9.693 43.1106 9.67434ZM43.1246 10.5283C43.0126 10.5283 42.8679 10.5097 42.6906 10.4723C42.5133 10.4443 42.3359 10.3883 42.1586 10.3043C41.9813 10.2203 41.8319 10.099 41.7106 9.94034C41.5893 9.78167 41.5286 9.581 41.5286 9.33834C41.5286 9.301 41.5286 9.26834 41.5286 9.24034C41.5286 9.203 41.5333 9.16567 41.5426 9.12834C41.5519 9.05367 41.5986 9.01634 41.6826 9.01634C41.7759 9.01634 41.8226 9.05834 41.8226 9.14234C41.8226 9.17967 41.8179 9.217 41.8086 9.25434C41.8086 9.28234 41.8086 9.30567 41.8086 9.32434C41.8086 9.55767 41.8833 9.74434 42.0326 9.88434C42.1819 10.015 42.3593 10.1083 42.5646 10.1643C42.7793 10.2203 42.9706 10.2483 43.1386 10.2483C43.5586 10.2483 43.9413 10.197 44.2866 10.0943C44.6413 9.98234 44.9446 9.85167 45.1966 9.70234C45.4579 9.553 45.6586 9.413 45.7986 9.28234C45.8266 9.25434 45.8593 9.24034 45.8966 9.24034C45.9526 9.24034 45.9946 9.26834 46.0226 9.32434C46.0599 9.38034 46.0506 9.43167 45.9946 9.47834C45.8453 9.61834 45.6259 9.77234 45.3366 9.94034C45.0566 10.099 44.7299 10.239 44.3566 10.3603C43.9833 10.4723 43.5726 10.5283 43.1246 10.5283ZM47.8628 9.61834C47.6388 9.61834 47.4895 9.52967 47.4148 9.35234C47.3495 9.16567 47.3168 9.01167 47.3168 8.89034C47.3168 8.657 47.3962 8.38167 47.5548 8.06434C47.7135 7.747 47.9188 7.43434 48.1708 7.12634C48.4228 6.81834 48.6935 6.56167 48.9828 6.35634C49.2722 6.151 49.5475 6.04834 49.8088 6.04834C49.9395 6.04834 50.0048 6.095 50.0048 6.18834C50.0048 6.22567 49.9908 6.263 49.9628 6.30034C49.9348 6.32834 49.8975 6.33767 49.8508 6.32834C49.6455 6.30967 49.4122 6.39367 49.1508 6.58034C48.8988 6.75767 48.6515 6.991 48.4088 7.28034C48.1755 7.56034 47.9795 7.845 47.8208 8.13434C47.6715 8.42367 47.5968 8.67567 47.5968 8.89034C47.5968 9.021 47.6202 9.12834 47.6668 9.21234C47.7135 9.29634 47.7788 9.33834 47.8628 9.33834C48.0215 9.33834 48.2035 9.245 48.4088 9.05834C48.6235 8.86234 48.8428 8.61967 49.0668 8.33034C49.2908 8.03167 49.5055 7.72367 49.7108 7.40634C49.9255 7.07967 50.1122 6.78567 50.2708 6.52434C50.4388 6.25367 50.5648 6.053 50.6488 5.92234C50.8262 5.661 51.0035 5.479 51.1808 5.37634C51.3582 5.26434 51.5215 5.20834 51.6708 5.20834C51.8388 5.20834 51.9742 5.25967 52.0768 5.36234C52.1888 5.465 52.2448 5.59567 52.2448 5.75434C52.2448 5.89434 52.1935 6.04367 52.0908 6.20234C52.0162 6.31434 51.8948 6.501 51.7268 6.76234C51.5588 7.01434 51.3862 7.28967 51.2088 7.58834C51.0315 7.87767 50.8822 8.14367 50.7608 8.38634C50.6302 8.66634 50.5648 8.89034 50.5648 9.05834C50.5648 9.245 50.6582 9.33834 50.8448 9.33834C51.0128 9.33834 51.1995 9.28234 51.4048 9.17034C51.6195 9.05834 51.8342 8.91367 52.0488 8.73634C52.2635 8.559 52.4642 8.377 52.6508 8.19034C52.8375 7.99434 52.9915 7.817 53.1128 7.65834C53.1408 7.621 53.1735 7.60234 53.2108 7.60234C53.2668 7.60234 53.3088 7.63034 53.3368 7.68634C53.3742 7.733 53.3742 7.77967 53.3368 7.82634C53.2155 8.00367 53.0475 8.195 52.8328 8.40034C52.6275 8.60567 52.4035 8.80167 52.1608 8.98834C51.9182 9.175 51.6755 9.329 51.4328 9.45034C51.1902 9.56234 50.9755 9.61834 50.7888 9.61834C50.6115 9.61834 50.4808 9.567 50.3968 9.46434C50.3222 9.36167 50.2848 9.231 50.2848 9.07234C50.2848 8.87634 50.3408 8.65234 50.4528 8.40034C50.5742 8.139 50.7235 7.85434 50.9008 7.54634C51.0875 7.229 51.2695 6.935 51.4468 6.66434C51.6335 6.38434 51.7735 6.17434 51.8668 6.03434C51.9322 5.941 51.9648 5.84767 51.9648 5.75434C51.9648 5.577 51.8715 5.48834 51.6848 5.48834C51.5822 5.48834 51.4562 5.535 51.3068 5.62834C51.1668 5.72167 51.0222 5.87567 50.8728 6.09034C50.6675 6.39834 50.4388 6.753 50.1868 7.15434C49.9442 7.55567 49.6968 7.93367 49.4448 8.28834C49.1928 8.63367 48.9315 8.94167 48.6608 9.21234C48.3995 9.483 48.1335 9.61834 47.8628 9.61834ZM46.7988 7.89634C46.7522 7.89634 46.7148 7.873 46.6868 7.82634C46.6495 7.77967 46.6495 7.72834 46.6868 7.67234C46.8455 7.44834 47.0275 7.20567 47.2328 6.94434C47.4475 6.67367 47.6855 6.42167 47.9468 6.18834C48.2082 5.94567 48.4882 5.74967 48.7868 5.60034C49.0855 5.44167 49.3982 5.36234 49.7248 5.36234C49.8275 5.36234 49.9302 5.37634 50.0328 5.40434C50.1355 5.423 50.2335 5.451 50.3268 5.48834C50.3828 5.51634 50.4108 5.55834 50.4108 5.61434C50.4108 5.65167 50.3922 5.689 50.3548 5.72634C50.3175 5.75434 50.2708 5.759 50.2148 5.74034C50.2148 5.74034 50.2008 5.73567 50.1728 5.72634C50.1448 5.717 50.1075 5.70767 50.0608 5.69834C50.0142 5.67967 49.9628 5.66567 49.9068 5.65634C49.8508 5.647 49.7902 5.64234 49.7248 5.64234C49.3422 5.64234 48.9782 5.759 48.6328 5.99234C48.2875 6.22567 47.9655 6.51034 47.6668 6.84634C47.3775 7.18234 47.1255 7.509 46.9108 7.82634C46.8828 7.873 46.8455 7.89634 46.7988 7.89634ZM50.3408 10.5143C49.9208 10.5143 49.6175 10.4023 49.4308 10.1783C49.2535 9.945 49.1648 9.693 49.1648 9.42234C49.1648 9.19834 49.2208 8.98367 49.3328 8.77834C49.3608 8.73167 49.4028 8.70834 49.4588 8.70834C49.5055 8.70834 49.5428 8.73167 49.5708 8.77834C49.6082 8.81567 49.6128 8.86234 49.5848 8.91834C49.4915 9.08634 49.4448 9.25434 49.4448 9.42234C49.4448 9.62767 49.5148 9.81434 49.6548 9.98234C49.7948 10.1503 50.0235 10.2343 50.3408 10.2343C50.6955 10.2343 51.0315 10.1597 51.3488 10.0103C51.6755 9.85167 51.9835 9.665 52.2728 9.45034C52.2915 9.43167 52.3195 9.42234 52.3568 9.42234C52.4502 9.42234 52.4968 9.469 52.4968 9.56234C52.4968 9.609 52.4782 9.64634 52.4408 9.67434C52.1422 9.89834 51.8202 10.0943 51.4748 10.2623C51.1295 10.4303 50.7515 10.5143 50.3408 10.5143ZM47.6668 10.5003C47.3588 10.5003 47.0835 10.3977 46.8408 10.1923C46.6075 9.987 46.5002 9.66967 46.5188 9.24034C46.5188 9.15634 46.5655 9.11434 46.6588 9.11434C46.6962 9.11434 46.7335 9.12834 46.7708 9.15634C46.7988 9.175 46.8082 9.20767 46.7988 9.25434C46.7895 9.59034 46.8735 9.83767 47.0508 9.99634C47.2282 10.1457 47.4335 10.2203 47.6668 10.2203C47.8535 10.2203 48.0402 10.1783 48.2268 10.0943C48.4135 10.001 48.5675 9.87034 48.6888 9.70234C48.7168 9.665 48.7542 9.64634 48.8008 9.64634C48.8475 9.64634 48.8895 9.66967 48.9268 9.71634C48.9642 9.763 48.9595 9.81434 48.9128 9.87034C48.7635 10.0757 48.5768 10.2343 48.3528 10.3463C48.1288 10.449 47.9002 10.5003 47.6668 10.5003ZM53.2246 7.89634C53.1779 7.89634 53.1406 7.86834 53.1126 7.81234C53.0753 7.75634 53.0753 7.705 53.1126 7.65834C53.4019 7.33167 53.6493 7.04234 53.8546 6.79034C54.0693 6.529 54.2699 6.26767 54.4566 6.00634C54.6526 5.745 54.8626 5.45567 55.0866 5.13834C55.1893 4.99834 55.3059 4.90034 55.4366 4.84434C55.5673 4.779 55.6933 4.74634 55.8146 4.74634C56.0106 4.74634 56.1786 4.80234 56.3186 4.91434C56.4679 5.02634 56.5426 5.15234 56.5426 5.29234C56.5426 5.37634 56.5099 5.45567 56.4446 5.53034C56.4166 5.55834 56.3839 5.57234 56.3466 5.57234C56.2999 5.57234 56.2579 5.549 56.2206 5.50234C56.1926 5.44634 56.2019 5.39034 56.2486 5.33434C56.2579 5.325 56.2626 5.30634 56.2626 5.27834C56.2626 5.25034 56.2486 5.21767 56.2206 5.18034C56.1926 5.143 56.1273 5.10567 56.0246 5.06834C55.9593 5.04034 55.8893 5.02634 55.8146 5.02634C55.7306 5.02634 55.6419 5.04967 55.5486 5.09634C55.4646 5.13367 55.3853 5.20367 55.3106 5.30634C55.0773 5.62367 54.8626 5.913 54.6666 6.17434C54.4799 6.43567 54.2839 6.697 54.0786 6.95834C53.8733 7.21967 53.6259 7.51367 53.3366 7.84034C53.3086 7.87767 53.2713 7.89634 53.2246 7.89634ZM58.1106 9.47834C57.9613 9.47834 57.8213 9.44567 57.6906 9.38034C57.5693 9.30567 57.5086 9.19834 57.5086 9.05834C57.5086 8.965 57.5319 8.87634 57.5786 8.79234C57.6439 8.671 57.7466 8.489 57.8866 8.24634C58.0266 7.99434 58.1713 7.733 58.3206 7.46234C58.4699 7.18234 58.5959 6.92567 58.6986 6.69234C58.8013 6.44967 58.8526 6.27234 58.8526 6.16034C58.8526 5.94567 58.7593 5.78234 58.5726 5.67034C58.3953 5.55834 58.1899 5.50234 57.9566 5.50234C57.5926 5.50234 57.2519 5.605 56.9346 5.81034C56.6173 6.00634 56.3279 6.24434 56.0666 6.52434C55.8053 6.80434 55.5673 7.075 55.3526 7.33634C55.3246 7.37367 55.2873 7.39234 55.2406 7.39234C55.1939 7.39234 55.1519 7.369 55.1146 7.32234C55.0866 7.26634 55.0913 7.215 55.1286 7.16834C55.3713 6.879 55.6326 6.585 55.9126 6.28634C56.1926 5.98767 56.5006 5.73567 56.8366 5.53034C57.1819 5.325 57.5553 5.22234 57.9566 5.22234C58.1246 5.22234 58.2973 5.255 58.4746 5.32034C58.6613 5.37634 58.8153 5.47434 58.9366 5.61434C59.0673 5.75434 59.1326 5.93634 59.1326 6.16034C59.1326 6.30034 59.0766 6.49634 58.9646 6.74834C58.8619 6.991 58.7359 7.257 58.5866 7.54634C58.4373 7.82634 58.2926 8.09234 58.1526 8.34434C58.0126 8.59634 57.9053 8.79234 57.8306 8.93234C57.8026 8.96967 57.7886 9.007 57.7886 9.04434C57.7886 9.10967 57.8259 9.15167 57.9006 9.17034C57.9753 9.189 58.0453 9.19834 58.1106 9.19834C58.3253 9.19834 58.5493 9.105 58.7826 8.91834C59.0159 8.73167 59.2353 8.517 59.4406 8.27434C59.6459 8.02234 59.8046 7.817 59.9166 7.65834C59.9446 7.621 59.9773 7.60234 60.0146 7.60234C60.0613 7.60234 60.1033 7.62567 60.1406 7.67234C60.1873 7.719 60.1873 7.77034 60.1406 7.82634C60.0099 8.013 59.8326 8.237 59.6086 8.49834C59.3939 8.75967 59.1559 8.98834 58.8946 9.18434C58.6333 9.38034 58.3719 9.47834 58.1106 9.47834ZM53.6866 10.4863C53.4906 10.4863 53.3459 10.421 53.2526 10.2903C53.1686 10.1597 53.1266 10.0197 53.1266 9.87034C53.1266 9.749 53.1779 9.581 53.2806 9.36634C53.3833 9.15167 53.5046 8.923 53.6446 8.68034C53.7939 8.43767 53.9339 8.209 54.0646 7.99434C54.1953 7.77967 54.2933 7.607 54.3586 7.47634C54.3866 7.42034 54.4286 7.39234 54.4846 7.39234C54.5313 7.39234 54.5686 7.411 54.5966 7.44834C54.6339 7.48567 54.6386 7.53234 54.6106 7.58834C54.5546 7.70034 54.4613 7.86367 54.3306 8.07834C54.2093 8.293 54.0739 8.52167 53.9246 8.76434C53.7846 9.007 53.6633 9.231 53.5606 9.43634C53.4579 9.63234 53.4066 9.777 53.4066 9.87034C53.4066 10.0943 53.4999 10.2063 53.6866 10.2063C53.8733 10.2063 54.0413 10.1223 54.1906 9.95434C54.3399 9.777 54.4893 9.54834 54.6386 9.26834C54.7879 8.98834 54.9559 8.685 55.1426 8.35834C55.3293 8.03167 55.5486 7.70967 55.8006 7.39234C56.0526 7.06567 56.3559 6.77634 56.7106 6.52434C57.0653 6.263 57.4899 6.07167 57.9846 5.95034H58.0266C58.1199 5.95034 58.1666 5.997 58.1666 6.09034C58.1666 6.15567 58.1293 6.19767 58.0546 6.21634C57.5786 6.33767 57.1679 6.52434 56.8226 6.77634C56.4866 7.02834 56.1973 7.31767 55.9546 7.64434C55.7119 7.96167 55.4973 8.28834 55.3106 8.62434C55.1333 8.96034 54.9653 9.26834 54.8066 9.54834C54.6479 9.82834 54.4799 10.057 54.3026 10.2343C54.1253 10.4023 53.9199 10.4863 53.6866 10.4863ZM57.3966 10.5003C57.1073 10.5003 56.8506 10.4117 56.6266 10.2343C56.4119 10.057 56.3046 9.80034 56.3046 9.46434C56.3046 9.427 56.3046 9.39434 56.3046 9.36634C56.3046 9.329 56.3093 9.29167 56.3186 9.25434C56.3466 9.03967 56.4166 8.797 56.5286 8.52634C56.6499 8.25567 56.7853 7.98967 56.9346 7.72834C57.0933 7.467 57.2333 7.24767 57.3546 7.07034C57.3826 7.02367 57.4199 7.00034 57.4666 7.00034C57.5133 7.00034 57.5506 7.02367 57.5786 7.07034C57.6159 7.117 57.6159 7.173 57.5786 7.23834C57.5786 7.23834 57.5319 7.30834 57.4386 7.44834C57.3453 7.579 57.2426 7.75167 57.1306 7.96634C56.9906 8.21834 56.8646 8.47967 56.7526 8.75034C56.6406 9.021 56.5846 9.25434 56.5846 9.45034C56.5846 9.70234 56.6593 9.89367 56.8086 10.0243C56.9673 10.155 57.1633 10.2203 57.3966 10.2203C57.6953 10.2203 57.9893 10.1597 58.2786 10.0383C58.5679 9.917 58.8293 9.76767 59.0626 9.59034C59.0813 9.57167 59.1093 9.56234 59.1466 9.56234C59.2399 9.56234 59.2866 9.609 59.2866 9.70234C59.2866 9.749 59.2679 9.78634 59.2306 9.81434C58.9693 10.0103 58.6846 10.1737 58.3766 10.3043C58.0686 10.435 57.7419 10.5003 57.3966 10.5003ZM61.5452 8.62434C61.3865 8.62434 61.2372 8.56834 61.0972 8.45634C60.9665 8.335 60.9105 8.17167 60.9292 7.96634C60.9665 7.61167 61.0879 7.285 61.2932 6.98634C61.4985 6.67834 61.7412 6.39834 62.0212 6.14634C62.3012 5.89434 62.5719 5.67034 62.8332 5.47434C62.9545 5.37167 63.0572 5.28767 63.1412 5.22234C63.2252 5.14767 63.2859 5.087 63.3232 5.04034C63.5379 4.78834 63.6452 4.56434 63.6452 4.36834C63.6452 4.18167 63.5565 4.04167 63.3792 3.94834C63.2019 3.855 62.9919 3.80834 62.7492 3.80834C62.5065 3.80834 62.2592 3.855 62.0072 3.94834C61.7552 4.04167 61.5592 4.18167 61.4192 4.36834C61.2699 4.56434 61.0879 4.66234 60.8732 4.66234C60.7052 4.66234 60.5559 4.611 60.4252 4.50834C60.2945 4.39634 60.2292 4.25634 60.2292 4.08834C60.2292 3.995 60.2525 3.897 60.2992 3.79434C60.3459 3.69167 60.4252 3.589 60.5372 3.48634C60.8639 3.18767 61.2232 2.99167 61.6152 2.89834C62.0165 2.805 62.3759 2.749 62.6932 2.73034C63.2439 2.693 63.6872 2.74434 64.0232 2.88434C64.3592 3.02434 64.6019 3.21567 64.7512 3.45834C64.9099 3.701 64.9892 3.967 64.9892 4.25634C64.9892 4.62034 64.8819 4.98434 64.6672 5.34834C64.4619 5.703 64.1865 5.98767 63.8412 6.20234C63.4865 6.417 63.2159 6.599 63.0292 6.74834C62.8519 6.89767 62.6885 7.09367 62.5392 7.33634C62.5112 7.383 62.4739 7.40634 62.4272 7.40634C62.3805 7.40634 62.3385 7.383 62.3012 7.33634C62.2639 7.28967 62.2639 7.23834 62.3012 7.18234C62.4599 6.91167 62.6419 6.697 62.8472 6.53834C63.0525 6.37034 63.3372 6.17434 63.7012 5.95034C64.0279 5.75434 64.2799 5.507 64.4572 5.20834C64.6345 4.90967 64.7232 4.61567 64.7232 4.32634C64.7232 3.953 64.5645 3.631 64.2472 3.36034C63.9299 3.08034 63.4212 2.96367 62.7212 3.01034C62.4039 3.029 62.0632 3.08034 61.6992 3.16434C61.3352 3.24834 61.0132 3.421 60.7332 3.68234C60.5839 3.83167 60.5092 3.967 60.5092 4.08834C60.5092 4.17234 60.5419 4.24234 60.6072 4.29834C60.6819 4.35434 60.7659 4.38234 60.8592 4.38234C60.9152 4.38234 60.9759 4.36834 61.0412 4.34034C61.1065 4.31234 61.1579 4.26567 61.1952 4.20034C61.3632 3.967 61.5872 3.799 61.8672 3.69634C62.1472 3.58434 62.4225 3.52834 62.6932 3.52834C63.0199 3.52834 63.3092 3.59834 63.5612 3.73834C63.8132 3.87834 63.9392 4.08367 63.9392 4.35434C63.9392 4.47567 63.9065 4.611 63.8412 4.76034C63.7852 4.90034 63.6872 5.04967 63.5472 5.20834C63.4072 5.37634 63.1972 5.563 62.9172 5.76834C62.6465 5.97367 62.4225 6.15567 62.2452 6.31434C61.9839 6.557 61.7505 6.81834 61.5452 7.09834C61.3492 7.37834 61.2372 7.67234 61.2092 7.98034C61.1999 8.09234 61.2325 8.18567 61.3072 8.26034C61.3819 8.32567 61.4565 8.35834 61.5312 8.35834C61.6805 8.35834 61.7552 8.26967 61.7552 8.09234C61.7552 7.999 61.8019 7.95234 61.8952 7.95234C61.9885 7.95234 62.0352 7.999 62.0352 8.09234C62.0352 8.26967 61.9839 8.405 61.8812 8.49834C61.7879 8.58234 61.6759 8.62434 61.5452 8.62434ZM60.6632 10.4443C60.4859 10.295 60.3972 10.1177 60.3972 9.91234C60.3972 9.72567 60.4579 9.57167 60.5792 9.45034C60.7099 9.329 60.8639 9.26834 61.0412 9.26834C61.2279 9.26834 61.3819 9.329 61.5032 9.45034C61.6339 9.57167 61.6992 9.72567 61.6992 9.91234C61.6992 10.0897 61.6385 10.239 61.5172 10.3603C61.4892 10.3883 61.4565 10.4023 61.4192 10.4023C61.3725 10.4023 61.3305 10.379 61.2932 10.3323C61.2652 10.2763 61.2745 10.2203 61.3212 10.1643C61.3865 10.0803 61.4192 9.99634 61.4192 9.91234C61.4192 9.80967 61.3819 9.72567 61.3072 9.66034C61.2419 9.58567 61.1579 9.54834 61.0552 9.54834C60.9525 9.54834 60.8639 9.58567 60.7892 9.66034C60.7145 9.72567 60.6772 9.80967 60.6772 9.91234C60.6772 10.0523 60.7285 10.1503 60.8312 10.2063C60.8685 10.2343 60.8872 10.2717 60.8872 10.3183C60.8872 10.365 60.8639 10.407 60.8172 10.4443C60.7705 10.4817 60.7192 10.4817 60.6632 10.4443ZM64.6521 10.4443C64.4748 10.295 64.3861 10.1177 64.3861 9.91234C64.3861 9.72567 64.4468 9.57167 64.5681 9.45034C64.6988 9.329 64.8528 9.26834 65.0301 9.26834C65.2168 9.26834 65.3708 9.329 65.4921 9.45034C65.6228 9.57167 65.6881 9.72567 65.6881 9.91234C65.6881 10.0897 65.6274 10.239 65.5061 10.3603C65.4781 10.3883 65.4454 10.4023 65.4081 10.4023C65.3614 10.4023 65.3194 10.379 65.2821 10.3323C65.2541 10.2763 65.2634 10.2203 65.3101 10.1643C65.3754 10.0803 65.4081 9.99634 65.4081 9.91234C65.4081 9.80967 65.3708 9.72567 65.2961 9.66034C65.2308 9.58567 65.1468 9.54834 65.0441 9.54834C64.9414 9.54834 64.8528 9.58567 64.7781 9.66034C64.7034 9.72567 64.6661 9.80967 64.6661 9.91234C64.6661 10.0523 64.7174 10.1503 64.8201 10.2063C64.8574 10.2343 64.8761 10.2717 64.8761 10.3183C64.8761 10.365 64.8528 10.407 64.8061 10.4443C64.7594 10.4817 64.7081 10.4817 64.6521 10.4443ZM67.8921 9.61834C67.6681 9.61834 67.5188 9.52967 67.4441 9.35234C67.3788 9.16567 67.3461 9.01167 67.3461 8.89034C67.3461 8.657 67.4255 8.377 67.5841 8.05034C67.7428 7.72367 67.9481 7.40634 68.2001 7.09834C68.4615 6.781 68.7368 6.51967 69.0261 6.31434C69.3155 6.09967 69.5908 5.99234 69.8521 5.99234C69.9641 5.99234 70.0201 6.039 70.0201 6.13234C70.0201 6.16967 70.0061 6.207 69.9781 6.24434C69.9595 6.27234 69.9268 6.28167 69.8801 6.27234C69.6748 6.263 69.4415 6.35167 69.1801 6.53834C68.9281 6.725 68.6808 6.963 68.4381 7.25234C68.2048 7.54167 68.0088 7.83567 67.8501 8.13434C67.7008 8.42367 67.6261 8.67567 67.6261 8.89034C67.6261 9.021 67.6495 9.12834 67.6961 9.21234C67.7428 9.29634 67.8081 9.33834 67.8921 9.33834C68.0041 9.33834 68.1441 9.259 68.3121 9.10034C68.4895 8.94167 68.6715 8.75034 68.8581 8.52634C69.0541 8.30234 69.2268 8.09234 69.3761 7.89634C69.5255 7.691 69.6281 7.551 69.6841 7.47634C69.9081 7.17767 70.1275 6.879 70.3421 6.58034C70.5568 6.28167 70.7808 6.00167 71.0141 5.74034C71.1541 5.57234 71.3361 5.34367 71.5601 5.05434C71.7935 4.765 72.0361 4.457 72.2881 4.13034C72.5495 3.79434 72.7968 3.477 73.0301 3.17834C73.2728 2.87034 73.4688 2.62767 73.6181 2.45034C73.7208 2.329 73.8421 2.24034 73.9821 2.18434C74.1221 2.12834 74.2575 2.10034 74.3881 2.10034C74.5468 2.10034 74.6821 2.13767 74.7941 2.21234C74.9061 2.27767 74.9621 2.37567 74.9621 2.50634C74.9621 2.637 74.8968 2.78167 74.7661 2.94034C74.6448 3.08034 74.4535 3.30434 74.1921 3.61234C73.9401 3.911 73.6508 4.261 73.3241 4.66234C73.0068 5.06367 72.6801 5.48367 72.3441 5.92234C72.0175 6.35167 71.7095 6.77167 71.4201 7.18234C71.1401 7.58367 70.9115 7.94767 70.7341 8.27434C70.5661 8.59167 70.4821 8.82967 70.4821 8.98834C70.4821 9.21234 70.5708 9.32434 70.7481 9.32434C70.9721 9.32434 71.2288 9.245 71.5181 9.08634C71.8075 8.92767 72.0968 8.72234 72.3861 8.47034C72.6848 8.209 72.9368 7.93834 73.1421 7.65834C73.1701 7.621 73.2075 7.60234 73.2541 7.60234C73.3008 7.60234 73.3428 7.62567 73.3801 7.67234C73.4175 7.719 73.4128 7.77034 73.3661 7.82634C73.1608 8.10634 72.9041 8.38167 72.5961 8.65234C72.2881 8.923 71.9708 9.15167 71.6441 9.33834C71.3175 9.51567 71.0188 9.60434 70.7481 9.60434C70.5521 9.60434 70.4121 9.54367 70.3281 9.42234C70.2441 9.29167 70.2021 9.147 70.2021 8.98834C70.2021 8.80167 70.2908 8.54034 70.4681 8.20434C70.6455 7.859 70.8788 7.47634 71.1681 7.05634C71.4668 6.627 71.7841 6.18834 72.1201 5.74034C72.4561 5.29234 72.7875 4.863 73.1141 4.45234C73.4501 4.04167 73.7441 3.687 73.9961 3.38834C74.2481 3.08034 74.4301 2.86567 74.5421 2.74434C74.6261 2.64167 74.6681 2.56234 74.6681 2.50634C74.6681 2.413 74.5935 2.36634 74.4441 2.36634C74.3508 2.36634 74.2435 2.38967 74.1221 2.43634C74.0008 2.483 73.9075 2.54367 73.8421 2.61834C73.6928 2.79567 73.4968 3.03834 73.2541 3.34634C73.0208 3.645 72.7735 3.96234 72.5121 4.29834C72.2508 4.63434 72.0081 4.947 71.7841 5.23634C71.5601 5.52567 71.3781 5.74967 71.2381 5.90834C70.7621 6.46834 70.3141 7.05167 69.8941 7.65834C69.4835 8.25567 69.0168 8.80634 68.4941 9.31034C68.4288 9.37567 68.3448 9.44567 68.2421 9.52034C68.1395 9.58567 68.0228 9.61834 67.8921 9.61834ZM66.8001 7.91034C66.7535 7.91034 66.7161 7.89167 66.6881 7.85434C66.6508 7.80767 66.6508 7.75634 66.6881 7.70034C66.8748 7.47634 67.0755 7.229 67.2901 6.95834C67.5048 6.67834 67.7381 6.41234 67.9901 6.16034C68.2515 5.90834 68.5268 5.703 68.8161 5.54434C69.1148 5.38567 69.4275 5.30634 69.7541 5.30634C69.8941 5.30634 70.0388 5.325 70.1881 5.36234C70.3468 5.39034 70.4868 5.45567 70.6081 5.55834C70.6455 5.58634 70.6641 5.62367 70.6641 5.67034C70.6641 5.717 70.6361 5.759 70.5801 5.79634C70.5335 5.82434 70.4868 5.81967 70.4401 5.78234C70.3468 5.70767 70.2395 5.65634 70.1181 5.62834C70.0061 5.60034 69.8848 5.58634 69.7541 5.58634C69.3715 5.58634 69.0121 5.71234 68.6761 5.96434C68.3495 6.207 68.0415 6.501 67.7521 6.84634C67.4721 7.19167 67.2015 7.523 66.9401 7.84034C66.8935 7.887 66.8468 7.91034 66.8001 7.91034ZM70.2581 10.5983C69.9221 10.5983 69.6561 10.5143 69.4601 10.3463C69.2641 10.1783 69.1661 9.91234 69.1661 9.54834C69.1661 9.40834 69.1801 9.273 69.2081 9.14234C69.2455 9.00234 69.2968 8.87167 69.3621 8.75034C69.3901 8.70367 69.4275 8.68034 69.4741 8.68034C69.5208 8.68034 69.5628 8.70367 69.6001 8.75034C69.6375 8.78767 69.6421 8.83434 69.6141 8.89034C69.5021 9.08634 69.4461 9.30567 69.4461 9.54834C69.4461 9.819 69.5115 10.015 69.6421 10.1363C69.7821 10.2577 69.9875 10.3183 70.2581 10.3183C70.6128 10.3183 70.9675 10.2297 71.3221 10.0523C71.6861 9.86567 72.0128 9.665 72.3021 9.45034C72.3208 9.43167 72.3488 9.42234 72.3861 9.42234C72.4795 9.42234 72.5261 9.47367 72.5261 9.57634C72.5261 9.61367 72.5075 9.64634 72.4701 9.67434C72.1808 9.90767 71.8401 10.1223 71.4481 10.3183C71.0655 10.505 70.6688 10.5983 70.2581 10.5983ZM67.8921 10.5983C67.5188 10.5983 67.1968 10.4677 66.9261 10.2063C66.6648 9.93567 66.5388 9.61367 66.5481 9.24034C66.5481 9.15634 66.5948 9.11434 66.6881 9.11434C66.7255 9.11434 66.7628 9.12834 66.8001 9.15634C66.8281 9.175 66.8375 9.20767 66.8281 9.25434C66.8188 9.553 66.9215 9.805 67.1361 10.0103C67.3508 10.2157 67.6028 10.3183 67.8921 10.3183C68.1348 10.3183 68.3681 10.2577 68.5921 10.1363C68.6295 10.1177 68.6528 10.1083 68.6621 10.1083C68.7555 10.1083 68.8021 10.1597 68.8021 10.2623C68.8021 10.3183 68.7788 10.3603 68.7321 10.3883C68.4708 10.5283 68.1908 10.5983 67.8921 10.5983ZM75.0039 8.28834C74.8359 8.28834 74.6912 8.251 74.5699 8.17634C74.5139 8.14834 74.4859 8.111 74.4859 8.06434C74.4859 8.01767 74.5046 7.98034 74.5419 7.95234C74.5886 7.915 74.6399 7.91034 74.6959 7.93834C74.8079 7.985 74.9106 8.00834 75.0039 8.00834C75.1999 8.00834 75.4146 7.95234 75.6479 7.84034C75.8812 7.719 76.1052 7.565 76.3199 7.37834C76.5346 7.19167 76.7072 6.991 76.8379 6.77634C76.9779 6.56167 77.0479 6.35634 77.0479 6.16034C77.0479 5.77767 76.8519 5.58634 76.4599 5.58634C76.0212 5.58634 75.6106 5.703 75.2279 5.93634C74.8546 6.16034 74.5092 6.445 74.1919 6.79034C73.8839 7.12634 73.6086 7.47167 73.3659 7.82634C73.3379 7.873 73.3006 7.89634 73.2539 7.89634C73.2072 7.89634 73.1699 7.873 73.1419 7.82634C73.1046 7.77967 73.1046 7.72834 73.1419 7.67234C73.3846 7.31767 73.6692 6.95834 73.9959 6.59434C74.3226 6.23034 74.6912 5.927 75.1019 5.68434C75.5219 5.43234 75.9746 5.30634 76.4599 5.30634C76.7119 5.30634 76.9172 5.381 77.0759 5.53034C77.2439 5.67967 77.3279 5.88967 77.3279 6.16034C77.3279 6.41234 77.2486 6.66434 77.0899 6.91634C76.9406 7.159 76.7446 7.38767 76.5019 7.60234C76.2686 7.80767 76.0166 7.97567 75.7459 8.10634C75.4752 8.22767 75.2279 8.28834 75.0039 8.28834ZM74.6819 9.59034C74.4299 9.59034 74.1966 9.525 73.9819 9.39434C73.7766 9.26367 73.6739 9.03967 73.6739 8.72234C73.6739 8.461 73.7672 8.181 73.9539 7.88234C74.1499 7.58367 74.3879 7.299 74.6679 7.02834C74.9572 6.74834 75.2512 6.50567 75.5499 6.30034C75.8486 6.095 76.1052 5.95967 76.3199 5.89434C76.3292 5.89434 76.3339 5.89434 76.3339 5.89434C76.3432 5.885 76.3526 5.88034 76.3619 5.88034C76.4552 5.88034 76.5019 5.93167 76.5019 6.03434C76.5019 6.09034 76.4692 6.13234 76.4039 6.16034C76.1986 6.22567 75.9559 6.35634 75.6759 6.55234C75.4052 6.74834 75.1346 6.977 74.8639 7.23834C74.6026 7.49034 74.3832 7.747 74.2059 8.00834C74.0379 8.26967 73.9539 8.50767 73.9539 8.72234C73.9539 8.92767 74.0192 9.077 74.1499 9.17034C74.2899 9.26367 74.4672 9.31034 74.6819 9.31034C75.2326 9.31034 75.7879 9.16567 76.3479 8.87634C76.9172 8.57767 77.4026 8.167 77.8039 7.64434C77.8319 7.607 77.8646 7.58834 77.9019 7.58834C77.9579 7.58834 77.9999 7.61634 78.0279 7.67234C78.0652 7.719 78.0606 7.77034 78.0139 7.82634C77.5939 8.36767 77.0806 8.797 76.4739 9.11434C75.8766 9.43167 75.2792 9.59034 74.6819 9.59034ZM74.6119 10.4303C74.3692 10.4303 74.1219 10.393 73.8699 10.3183C73.6179 10.2437 73.4079 10.1223 73.2399 9.95434C73.0626 9.777 72.9739 9.54367 72.9739 9.25434C72.9739 9.15167 73.0206 9.10034 73.1139 9.10034C73.2072 9.10034 73.2539 9.15167 73.2539 9.25434C73.2539 9.43167 73.2866 9.57167 73.3519 9.67434C73.4266 9.777 73.5526 9.87034 73.7299 9.95434C73.8699 10.0197 74.0192 10.071 74.1779 10.1083C74.3459 10.1363 74.4906 10.1503 74.6119 10.1503C74.9572 10.1503 75.2932 10.085 75.6199 9.95434C75.9559 9.82367 76.2639 9.65567 76.5439 9.45034C76.5626 9.43167 76.5906 9.42234 76.6279 9.42234C76.7212 9.42234 76.7679 9.469 76.7679 9.56234C76.7679 9.609 76.7492 9.64634 76.7119 9.67434C76.4132 9.89834 76.0819 10.0803 75.7179 10.2203C75.3632 10.3603 74.9946 10.4303 74.6119 10.4303ZM80.1983 9.68834C79.9557 9.68834 79.783 9.609 79.6803 9.45034C79.587 9.28234 79.5403 9.06767 79.5403 8.80634C79.5403 8.545 79.5777 8.25567 79.6523 7.93834C79.727 7.621 79.8157 7.313 79.9183 7.01434C80.0303 6.71567 80.133 6.459 80.2263 6.24434C80.329 6.02034 80.399 5.87567 80.4363 5.81034C80.5203 5.67034 80.5623 5.53967 80.5623 5.41834C80.5623 5.297 80.525 5.199 80.4503 5.12434C80.3757 5.04967 80.2777 5.01234 80.1563 5.01234C80.035 5.01234 79.895 5.06367 79.7363 5.16634C79.587 5.269 79.447 5.44167 79.3163 5.68434C79.139 6.00167 78.943 6.35634 78.7283 6.74834C78.523 7.14034 78.285 7.49967 78.0143 7.82634C77.977 7.86367 77.935 7.88234 77.8883 7.88234C77.8417 7.88234 77.8043 7.859 77.7763 7.81234C77.7483 7.76567 77.753 7.71434 77.7903 7.65834C78.061 7.33167 78.2943 6.977 78.4903 6.59434C78.6957 6.21167 78.887 5.86167 79.0643 5.54434C79.2323 5.24567 79.4097 5.03567 79.5963 4.91434C79.7923 4.78367 79.979 4.71834 80.1563 4.71834C80.3523 4.71834 80.5157 4.78367 80.6463 4.91434C80.777 5.045 80.8423 5.213 80.8423 5.41834C80.8423 5.58634 80.7863 5.76367 80.6743 5.95034C80.6463 6.00634 80.5857 6.14167 80.4923 6.35634C80.399 6.56167 80.2963 6.81367 80.1843 7.11234C80.0817 7.411 79.993 7.71434 79.9183 8.02234C79.8437 8.321 79.8063 8.587 79.8063 8.82034C79.8063 8.99767 79.8343 9.14234 79.8903 9.25434C79.9557 9.357 80.0583 9.40834 80.1983 9.40834C80.2637 9.40834 80.385 9.34767 80.5623 9.22634C80.749 9.09567 80.889 8.95567 80.9823 8.80634C81.0103 8.75967 81.0523 8.73634 81.1083 8.73634C81.155 8.73634 81.1923 8.75967 81.2203 8.80634C81.2577 8.84367 81.2623 8.89034 81.2343 8.94634C81.169 9.06767 81.071 9.18434 80.9403 9.29634C80.8097 9.40834 80.6743 9.50167 80.5343 9.57634C80.4037 9.651 80.2917 9.68834 80.1983 9.68834ZM82.4243 9.05834C81.9857 9.05834 81.6823 8.923 81.5143 8.65234C81.3557 8.38167 81.2763 8.07367 81.2763 7.72834C81.2763 7.45767 81.309 7.187 81.3743 6.91634C81.4397 6.64567 81.519 6.417 81.6123 6.23034C81.715 6.01567 81.841 5.85234 81.9903 5.74034C82.149 5.619 82.303 5.55834 82.4523 5.55834C82.6017 5.55834 82.7277 5.619 82.8303 5.74034C82.933 5.86167 82.9843 6.053 82.9843 6.31434C82.9843 6.389 82.975 6.473 82.9563 6.56634C82.947 6.65967 82.933 6.75767 82.9143 6.86034C82.8583 7.11234 82.779 7.35967 82.6763 7.60234C82.583 7.845 82.4897 8.04567 82.3963 8.20434C82.3777 8.251 82.3357 8.27434 82.2703 8.27434C82.2237 8.27434 82.1817 8.25567 82.1443 8.21834C82.107 8.17167 82.107 8.12034 82.1443 8.06434C82.2283 7.92434 82.317 7.73767 82.4103 7.50434C82.513 7.271 82.5923 7.03767 82.6483 6.80434C82.667 6.70167 82.681 6.60834 82.6903 6.52434C82.709 6.44034 82.7183 6.36567 82.7183 6.30034C82.7183 6.14167 82.6903 6.025 82.6343 5.95034C82.5783 5.87567 82.513 5.83834 82.4383 5.83834C82.345 5.83834 82.2423 5.885 82.1303 5.97834C82.0277 6.06234 81.939 6.18367 81.8643 6.34234C81.7897 6.501 81.715 6.711 81.6403 6.97234C81.575 7.22434 81.5423 7.47634 81.5423 7.72834C81.5423 8.00834 81.603 8.25567 81.7243 8.47034C81.855 8.67567 82.0883 8.77834 82.4243 8.77834C82.5923 8.77834 82.7837 8.72234 82.9983 8.61034C83.213 8.489 83.423 8.34434 83.6283 8.17634C83.8337 7.999 84.011 7.82634 84.1603 7.65834C84.1883 7.621 84.2257 7.60234 84.2723 7.60234C84.319 7.60234 84.3563 7.63034 84.3843 7.68634C84.4217 7.74234 84.417 7.79367 84.3703 7.84034C84.221 7.999 84.0343 8.17634 83.8103 8.37234C83.5863 8.559 83.353 8.72234 83.1103 8.86234C82.8677 8.993 82.639 9.05834 82.4243 9.05834ZM77.8043 9.11434C77.7483 9.11434 77.7063 9.08634 77.6783 9.03034C77.641 8.97434 77.6503 8.923 77.7063 8.87634C78.061 8.531 78.3317 8.209 78.5183 7.91034C78.7143 7.61167 78.929 7.257 79.1623 6.84634C79.1903 6.79967 79.2323 6.77634 79.2883 6.77634C79.335 6.77634 79.377 6.79967 79.4143 6.84634C79.4517 6.88367 79.4517 6.93034 79.4143 6.98634C79.181 7.40634 78.9617 7.77034 78.7563 8.07834C78.551 8.38634 78.2663 8.71767 77.9023 9.07234C77.8743 9.10034 77.8417 9.11434 77.8043 9.11434ZM79.8203 10.5003C79.5123 10.5003 79.2603 10.4257 79.0643 10.2763C78.8777 10.127 78.7423 9.93567 78.6583 9.70234C78.5743 9.469 78.537 9.23567 78.5463 9.00234C78.5463 8.909 78.593 8.86234 78.6863 8.86234C78.7797 8.86234 78.8263 8.909 78.8263 9.00234C78.817 9.329 78.8917 9.61367 79.0503 9.85634C79.2183 10.099 79.475 10.2203 79.8203 10.2203C80.175 10.2203 80.4877 10.127 80.7583 9.94034C81.029 9.74434 81.281 9.50167 81.5143 9.21234C81.5423 9.175 81.5797 9.15634 81.6263 9.15634C81.673 9.15634 81.715 9.18434 81.7523 9.24034C81.7897 9.287 81.785 9.33367 81.7383 9.38034C81.4863 9.68834 81.2063 9.95434 80.8983 10.1783C80.5997 10.393 80.2403 10.5003 79.8203 10.5003Z" fill="white"/>
</svg>
