<svg width="800" height="800" viewBox="0 0 800 800" fill="none" xmlns="http://www.w3.org/2000/svg">
<g clip-path="url(#clip0_302_585)">
<path opacity="0.15" d="M50 0H0V50H50V0Z" stroke="#E8E8E8" stroke-opacity="0.28" stroke-width="0.5"/>
<path d="M0 3.75C2.07107 3.75 3.75 2.07107 3.75 0C3.75 -2.07107 2.07107 -3.75 0 -3.75C-2.07107 -3.75 -3.75 -2.07107 -3.75 0C-3.75 2.07107 -2.07107 3.75 0 3.75Z" fill="#E8E8E8" fill-opacity="0.28"/>
<path opacity="0.15" d="M100 0H50V50H100V0Z" stroke="#E8E8E8" stroke-opacity="0.28" stroke-width="0.5"/>
<path d="M50 3.75C52.0711 3.75 53.75 2.07107 53.75 0C53.75 -2.07107 52.0711 -3.75 50 -3.75C47.9289 -3.75 46.25 -2.07107 46.25 0C46.25 2.07107 47.9289 3.75 50 3.75Z" fill="#E8E8E8" fill-opacity="0.28"/>
<path opacity="0.15" d="M150 0H100V50H150V0Z" stroke="#E8E8E8" stroke-opacity="0.28" stroke-width="0.5"/>
<path d="M100 3.75C102.071 3.75 103.75 2.07107 103.75 0C103.75 -2.07107 102.071 -3.75 100 -3.75C97.9289 -3.75 96.25 -2.07107 96.25 0C96.25 2.07107 97.9289 3.75 100 3.75Z" fill="#E8E8E8" fill-opacity="0.28"/>
<path opacity="0.15" d="M200 0H150V50H200V0Z" stroke="#E8E8E8" stroke-opacity="0.28" stroke-width="0.5"/>
<path d="M150 3.75C152.071 3.75 153.75 2.07107 153.75 0C153.75 -2.07107 152.071 -3.75 150 -3.75C147.929 -3.75 146.25 -2.07107 146.25 0C146.25 2.07107 147.929 3.75 150 3.75Z" fill="#E8E8E8" fill-opacity="0.28"/>
<path opacity="0.15" d="M250 0H200V50H250V0Z" stroke="#E8E8E8" stroke-opacity="0.28" stroke-width="0.5"/>
<path d="M200 3.75C202.071 3.75 203.75 2.07107 203.75 0C203.75 -2.07107 202.071 -3.75 200 -3.75C197.929 -3.75 196.25 -2.07107 196.25 0C196.25 2.07107 197.929 3.75 200 3.75Z" fill="#E8E8E8" fill-opacity="0.28"/>
<path opacity="0.15" d="M300 0H250V50H300V0Z" stroke="#E8E8E8" stroke-opacity="0.28" stroke-width="0.5"/>
<path d="M250 3.75C252.071 3.75 253.75 2.07107 253.75 0C253.75 -2.07107 252.071 -3.75 250 -3.75C247.929 -3.75 246.25 -2.07107 246.25 0C246.25 2.07107 247.929 3.75 250 3.75Z" fill="#E8E8E8" fill-opacity="0.28"/>
<path opacity="0.15" d="M350 0H300V50H350V0Z" stroke="#E8E8E8" stroke-opacity="0.28" stroke-width="0.5"/>
<path d="M300 3.75C302.071 3.75 303.75 2.07107 303.75 0C303.75 -2.07107 302.071 -3.75 300 -3.75C297.929 -3.75 296.25 -2.07107 296.25 0C296.25 2.07107 297.929 3.75 300 3.75Z" fill="#E8E8E8" fill-opacity="0.28"/>
<path opacity="0.15" d="M400 0H350V50H400V0Z" stroke="#E8E8E8" stroke-opacity="0.28" stroke-width="0.5"/>
<path d="M350 3.75C352.071 3.75 353.75 2.07107 353.75 0C353.75 -2.07107 352.071 -3.75 350 -3.75C347.929 -3.75 346.25 -2.07107 346.25 0C346.25 2.07107 347.929 3.75 350 3.75Z" fill="#E8E8E8" fill-opacity="0.28"/>
<path opacity="0.15" d="M450 0H400V50H450V0Z" stroke="#E8E8E8" stroke-opacity="0.28" stroke-width="0.5"/>
<path d="M400 3.75C402.071 3.75 403.75 2.07107 403.75 0C403.75 -2.07107 402.071 -3.75 400 -3.75C397.929 -3.75 396.25 -2.07107 396.25 0C396.25 2.07107 397.929 3.75 400 3.75Z" fill="#E8E8E8" fill-opacity="0.28"/>
<path opacity="0.15" d="M500 0H450V50H500V0Z" stroke="#E8E8E8" stroke-opacity="0.28" stroke-width="0.5"/>
<path d="M450 3.75C452.071 3.75 453.75 2.07107 453.75 0C453.75 -2.07107 452.071 -3.75 450 -3.75C447.929 -3.75 446.25 -2.07107 446.25 0C446.25 2.07107 447.929 3.75 450 3.75Z" fill="#E8E8E8" fill-opacity="0.28"/>
<path opacity="0.15" d="M550 0H500V50H550V0Z" stroke="#E8E8E8" stroke-opacity="0.28" stroke-width="0.5"/>
<path d="M500 3.75C502.071 3.75 503.75 2.07107 503.75 0C503.75 -2.07107 502.071 -3.75 500 -3.75C497.929 -3.75 496.25 -2.07107 496.25 0C496.25 2.07107 497.929 3.75 500 3.75Z" fill="#E8E8E8" fill-opacity="0.28"/>
<path opacity="0.15" d="M600 0H550V50H600V0Z" stroke="#E8E8E8" stroke-opacity="0.28" stroke-width="0.5"/>
<path d="M550 3.75C552.071 3.75 553.75 2.07107 553.75 0C553.75 -2.07107 552.071 -3.75 550 -3.75C547.929 -3.75 546.25 -2.07107 546.25 0C546.25 2.07107 547.929 3.75 550 3.75Z" fill="#E8E8E8" fill-opacity="0.28"/>
<path opacity="0.15" d="M650 0H600V50H650V0Z" stroke="#E8E8E8" stroke-opacity="0.28" stroke-width="0.5"/>
<path d="M600 3.75C602.071 3.75 603.75 2.07107 603.75 0C603.75 -2.07107 602.071 -3.75 600 -3.75C597.929 -3.75 596.25 -2.07107 596.25 0C596.25 2.07107 597.929 3.75 600 3.75Z" fill="#E8E8E8" fill-opacity="0.28"/>
<path opacity="0.15" d="M700 0H650V50H700V0Z" stroke="#E8E8E8" stroke-opacity="0.28" stroke-width="0.5"/>
<path d="M650 3.75C652.071 3.75 653.75 2.07107 653.75 0C653.75 -2.07107 652.071 -3.75 650 -3.75C647.929 -3.75 646.25 -2.07107 646.25 0C646.25 2.07107 647.929 3.75 650 3.75Z" fill="#E8E8E8" fill-opacity="0.28"/>
<path opacity="0.15" d="M750 0H700V50H750V0Z" stroke="#E8E8E8" stroke-opacity="0.28" stroke-width="0.5"/>
<path d="M700 3.75C702.071 3.75 703.75 2.07107 703.75 0C703.75 -2.07107 702.071 -3.75 700 -3.75C697.929 -3.75 696.25 -2.07107 696.25 0C696.25 2.07107 697.929 3.75 700 3.75Z" fill="#E8E8E8" fill-opacity="0.28"/>
<path opacity="0.15" d="M800 0H750V50H800V0Z" stroke="#E8E8E8" stroke-opacity="0.28" stroke-width="0.5"/>
<path d="M750 3.75C752.071 3.75 753.75 2.07107 753.75 0C753.75 -2.07107 752.071 -3.75 750 -3.75C747.929 -3.75 746.25 -2.07107 746.25 0C746.25 2.07107 747.929 3.75 750 3.75Z" fill="#E8E8E8" fill-opacity="0.28"/>
<path opacity="0.15" d="M850 0H800V50H850V0Z" stroke="#E8E8E8" stroke-opacity="0.28" stroke-width="0.5"/>
<path d="M800 3.75C802.071 3.75 803.75 2.07107 803.75 0C803.75 -2.07107 802.071 -3.75 800 -3.75C797.929 -3.75 796.25 -2.07107 796.25 0C796.25 2.07107 797.929 3.75 800 3.75Z" fill="#E8E8E8" fill-opacity="0.28"/>
<path opacity="0.15" d="M50 50H0V100H50V50Z" stroke="#E8E8E8" stroke-opacity="0.28" stroke-width="0.5"/>
<path d="M0 53.75C2.07107 53.75 3.75 52.0711 3.75 50C3.75 47.9289 2.07107 46.25 0 46.25C-2.07107 46.25 -3.75 47.9289 -3.75 50C-3.75 52.0711 -2.07107 53.75 0 53.75Z" fill="#E8E8E8" fill-opacity="0.28"/>
<path opacity="0.15" d="M100 50H50V100H100V50Z" stroke="#E8E8E8" stroke-opacity="0.28" stroke-width="0.5"/>
<path d="M50 53.75C52.0711 53.75 53.75 52.0711 53.75 50C53.75 47.9289 52.0711 46.25 50 46.25C47.9289 46.25 46.25 47.9289 46.25 50C46.25 52.0711 47.9289 53.75 50 53.75Z" fill="#E8E8E8" fill-opacity="0.28"/>
<path opacity="0.15" d="M150 50H100V100H150V50Z" stroke="#E8E8E8" stroke-opacity="0.28" stroke-width="0.5"/>
<path d="M100 53.75C102.071 53.75 103.75 52.0711 103.75 50C103.75 47.9289 102.071 46.25 100 46.25C97.9289 46.25 96.25 47.9289 96.25 50C96.25 52.0711 97.9289 53.75 100 53.75Z" fill="#E8E8E8" fill-opacity="0.28"/>
<path opacity="0.15" d="M200 50H150V100H200V50Z" stroke="#E8E8E8" stroke-opacity="0.28" stroke-width="0.5"/>
<path d="M150 53.75C152.071 53.75 153.75 52.0711 153.75 50C153.75 47.9289 152.071 46.25 150 46.25C147.929 46.25 146.25 47.9289 146.25 50C146.25 52.0711 147.929 53.75 150 53.75Z" fill="#E8E8E8" fill-opacity="0.28"/>
<path opacity="0.15" d="M250 50H200V100H250V50Z" stroke="#E8E8E8" stroke-opacity="0.28" stroke-width="0.5"/>
<path d="M200 53.75C202.071 53.75 203.75 52.0711 203.75 50C203.75 47.9289 202.071 46.25 200 46.25C197.929 46.25 196.25 47.9289 196.25 50C196.25 52.0711 197.929 53.75 200 53.75Z" fill="#E8E8E8" fill-opacity="0.28"/>
<path opacity="0.15" d="M300 50H250V100H300V50Z" stroke="#E8E8E8" stroke-opacity="0.28" stroke-width="0.5"/>
<path d="M250 53.75C252.071 53.75 253.75 52.0711 253.75 50C253.75 47.9289 252.071 46.25 250 46.25C247.929 46.25 246.25 47.9289 246.25 50C246.25 52.0711 247.929 53.75 250 53.75Z" fill="#E8E8E8" fill-opacity="0.28"/>
<path opacity="0.15" d="M350 50H300V100H350V50Z" stroke="#E8E8E8" stroke-opacity="0.28" stroke-width="0.5"/>
<path d="M300 53.75C302.071 53.75 303.75 52.0711 303.75 50C303.75 47.9289 302.071 46.25 300 46.25C297.929 46.25 296.25 47.9289 296.25 50C296.25 52.0711 297.929 53.75 300 53.75Z" fill="#E8E8E8" fill-opacity="0.28"/>
<path opacity="0.15" d="M400 50H350V100H400V50Z" stroke="#E8E8E8" stroke-opacity="0.28" stroke-width="0.5"/>
<path d="M350 53.75C352.071 53.75 353.75 52.0711 353.75 50C353.75 47.9289 352.071 46.25 350 46.25C347.929 46.25 346.25 47.9289 346.25 50C346.25 52.0711 347.929 53.75 350 53.75Z" fill="#E8E8E8" fill-opacity="0.28"/>
<path opacity="0.15" d="M450 50H400V100H450V50Z" stroke="#E8E8E8" stroke-opacity="0.28" stroke-width="0.5"/>
<path d="M400 53.75C402.071 53.75 403.75 52.0711 403.75 50C403.75 47.9289 402.071 46.25 400 46.25C397.929 46.25 396.25 47.9289 396.25 50C396.25 52.0711 397.929 53.75 400 53.75Z" fill="#E8E8E8" fill-opacity="0.28"/>
<path opacity="0.15" d="M500 50H450V100H500V50Z" stroke="#E8E8E8" stroke-opacity="0.28" stroke-width="0.5"/>
<path d="M450 53.75C452.071 53.75 453.75 52.0711 453.75 50C453.75 47.9289 452.071 46.25 450 46.25C447.929 46.25 446.25 47.9289 446.25 50C446.25 52.0711 447.929 53.75 450 53.75Z" fill="#E8E8E8" fill-opacity="0.28"/>
<path opacity="0.15" d="M550 50H500V100H550V50Z" stroke="#E8E8E8" stroke-opacity="0.28" stroke-width="0.5"/>
<path d="M500 53.75C502.071 53.75 503.75 52.0711 503.75 50C503.75 47.9289 502.071 46.25 500 46.25C497.929 46.25 496.25 47.9289 496.25 50C496.25 52.0711 497.929 53.75 500 53.75Z" fill="#E8E8E8" fill-opacity="0.28"/>
<path opacity="0.15" d="M600 50H550V100H600V50Z" stroke="#E8E8E8" stroke-opacity="0.28" stroke-width="0.5"/>
<path d="M550 53.75C552.071 53.75 553.75 52.0711 553.75 50C553.75 47.9289 552.071 46.25 550 46.25C547.929 46.25 546.25 47.9289 546.25 50C546.25 52.0711 547.929 53.75 550 53.75Z" fill="#E8E8E8" fill-opacity="0.28"/>
<path opacity="0.15" d="M650 50H600V100H650V50Z" stroke="#E8E8E8" stroke-opacity="0.28" stroke-width="0.5"/>
<path d="M600 53.75C602.071 53.75 603.75 52.0711 603.75 50C603.75 47.9289 602.071 46.25 600 46.25C597.929 46.25 596.25 47.9289 596.25 50C596.25 52.0711 597.929 53.75 600 53.75Z" fill="#E8E8E8" fill-opacity="0.28"/>
<path opacity="0.15" d="M700 50H650V100H700V50Z" stroke="#E8E8E8" stroke-opacity="0.28" stroke-width="0.5"/>
<path d="M650 53.75C652.071 53.75 653.75 52.0711 653.75 50C653.75 47.9289 652.071 46.25 650 46.25C647.929 46.25 646.25 47.9289 646.25 50C646.25 52.0711 647.929 53.75 650 53.75Z" fill="#E8E8E8" fill-opacity="0.28"/>
<path opacity="0.15" d="M750 50H700V100H750V50Z" stroke="#E8E8E8" stroke-opacity="0.28" stroke-width="0.5"/>
<path d="M700 53.75C702.071 53.75 703.75 52.0711 703.75 50C703.75 47.9289 702.071 46.25 700 46.25C697.929 46.25 696.25 47.9289 696.25 50C696.25 52.0711 697.929 53.75 700 53.75Z" fill="#E8E8E8" fill-opacity="0.28"/>
<path opacity="0.15" d="M800 50H750V100H800V50Z" stroke="#E8E8E8" stroke-opacity="0.28" stroke-width="0.5"/>
<path d="M750 53.75C752.071 53.75 753.75 52.0711 753.75 50C753.75 47.9289 752.071 46.25 750 46.25C747.929 46.25 746.25 47.9289 746.25 50C746.25 52.0711 747.929 53.75 750 53.75Z" fill="#E8E8E8" fill-opacity="0.28"/>
<path opacity="0.15" d="M850 50H800V100H850V50Z" stroke="#E8E8E8" stroke-opacity="0.28" stroke-width="0.5"/>
<path d="M800 53.75C802.071 53.75 803.75 52.0711 803.75 50C803.75 47.9289 802.071 46.25 800 46.25C797.929 46.25 796.25 47.9289 796.25 50C796.25 52.0711 797.929 53.75 800 53.75Z" fill="#E8E8E8" fill-opacity="0.28"/>
<path opacity="0.15" d="M50 100H0V150H50V100Z" stroke="#E8E8E8" stroke-opacity="0.28" stroke-width="0.5"/>
<path d="M0 103.75C2.07107 103.75 3.75 102.071 3.75 100C3.75 97.9289 2.07107 96.25 0 96.25C-2.07107 96.25 -3.75 97.9289 -3.75 100C-3.75 102.071 -2.07107 103.75 0 103.75Z" fill="#E8E8E8" fill-opacity="0.28"/>
<path opacity="0.15" d="M100 100H50V150H100V100Z" stroke="#E8E8E8" stroke-opacity="0.28" stroke-width="0.5"/>
<path d="M50 103.75C52.0711 103.75 53.75 102.071 53.75 100C53.75 97.9289 52.0711 96.25 50 96.25C47.9289 96.25 46.25 97.9289 46.25 100C46.25 102.071 47.9289 103.75 50 103.75Z" fill="#E8E8E8" fill-opacity="0.28"/>
<path opacity="0.15" d="M150 100H100V150H150V100Z" stroke="#E8E8E8" stroke-opacity="0.28" stroke-width="0.5"/>
<path d="M100 103.75C102.071 103.75 103.75 102.071 103.75 100C103.75 97.9289 102.071 96.25 100 96.25C97.9289 96.25 96.25 97.9289 96.25 100C96.25 102.071 97.9289 103.75 100 103.75Z" fill="#E8E8E8" fill-opacity="0.28"/>
<path opacity="0.15" d="M200 100H150V150H200V100Z" stroke="#E8E8E8" stroke-opacity="0.28" stroke-width="0.5"/>
<path d="M150 103.75C152.071 103.75 153.75 102.071 153.75 100C153.75 97.9289 152.071 96.25 150 96.25C147.929 96.25 146.25 97.9289 146.25 100C146.25 102.071 147.929 103.75 150 103.75Z" fill="#E8E8E8" fill-opacity="0.28"/>
<path opacity="0.15" d="M250 100H200V150H250V100Z" stroke="#E8E8E8" stroke-opacity="0.28" stroke-width="0.5"/>
<path d="M200 103.75C202.071 103.75 203.75 102.071 203.75 100C203.75 97.9289 202.071 96.25 200 96.25C197.929 96.25 196.25 97.9289 196.25 100C196.25 102.071 197.929 103.75 200 103.75Z" fill="#E8E8E8" fill-opacity="0.28"/>
<path opacity="0.15" d="M300 100H250V150H300V100Z" stroke="#E8E8E8" stroke-opacity="0.28" stroke-width="0.5"/>
<path d="M250 103.75C252.071 103.75 253.75 102.071 253.75 100C253.75 97.9289 252.071 96.25 250 96.25C247.929 96.25 246.25 97.9289 246.25 100C246.25 102.071 247.929 103.75 250 103.75Z" fill="#E8E8E8" fill-opacity="0.28"/>
<path opacity="0.15" d="M350 100H300V150H350V100Z" stroke="#E8E8E8" stroke-opacity="0.28" stroke-width="0.5"/>
<path d="M300 103.75C302.071 103.75 303.75 102.071 303.75 100C303.75 97.9289 302.071 96.25 300 96.25C297.929 96.25 296.25 97.9289 296.25 100C296.25 102.071 297.929 103.75 300 103.75Z" fill="#E8E8E8" fill-opacity="0.28"/>
<path opacity="0.15" d="M400 100H350V150H400V100Z" stroke="#E8E8E8" stroke-opacity="0.28" stroke-width="0.5"/>
<path d="M350 103.75C352.071 103.75 353.75 102.071 353.75 100C353.75 97.9289 352.071 96.25 350 96.25C347.929 96.25 346.25 97.9289 346.25 100C346.25 102.071 347.929 103.75 350 103.75Z" fill="#E8E8E8" fill-opacity="0.28"/>
<path opacity="0.15" d="M450 100H400V150H450V100Z" stroke="#E8E8E8" stroke-opacity="0.28" stroke-width="0.5"/>
<path d="M400 103.75C402.071 103.75 403.75 102.071 403.75 100C403.75 97.9289 402.071 96.25 400 96.25C397.929 96.25 396.25 97.9289 396.25 100C396.25 102.071 397.929 103.75 400 103.75Z" fill="#E8E8E8" fill-opacity="0.28"/>
<path opacity="0.15" d="M500 100H450V150H500V100Z" stroke="#E8E8E8" stroke-opacity="0.28" stroke-width="0.5"/>
<path d="M450 103.75C452.071 103.75 453.75 102.071 453.75 100C453.75 97.9289 452.071 96.25 450 96.25C447.929 96.25 446.25 97.9289 446.25 100C446.25 102.071 447.929 103.75 450 103.75Z" fill="#E8E8E8" fill-opacity="0.28"/>
<path opacity="0.15" d="M550 100H500V150H550V100Z" stroke="#E8E8E8" stroke-opacity="0.28" stroke-width="0.5"/>
<path d="M500 103.75C502.071 103.75 503.75 102.071 503.75 100C503.75 97.9289 502.071 96.25 500 96.25C497.929 96.25 496.25 97.9289 496.25 100C496.25 102.071 497.929 103.75 500 103.75Z" fill="#E8E8E8" fill-opacity="0.28"/>
<path opacity="0.15" d="M600 100H550V150H600V100Z" stroke="#E8E8E8" stroke-opacity="0.28" stroke-width="0.5"/>
<path d="M550 103.75C552.071 103.75 553.75 102.071 553.75 100C553.75 97.9289 552.071 96.25 550 96.25C547.929 96.25 546.25 97.9289 546.25 100C546.25 102.071 547.929 103.75 550 103.75Z" fill="#E8E8E8" fill-opacity="0.28"/>
<path opacity="0.15" d="M650 100H600V150H650V100Z" stroke="#E8E8E8" stroke-opacity="0.28" stroke-width="0.5"/>
<path d="M600 103.75C602.071 103.75 603.75 102.071 603.75 100C603.75 97.9289 602.071 96.25 600 96.25C597.929 96.25 596.25 97.9289 596.25 100C596.25 102.071 597.929 103.75 600 103.75Z" fill="#E8E8E8" fill-opacity="0.28"/>
<path opacity="0.15" d="M700 100H650V150H700V100Z" stroke="#E8E8E8" stroke-opacity="0.28" stroke-width="0.5"/>
<path d="M650 103.75C652.071 103.75 653.75 102.071 653.75 100C653.75 97.9289 652.071 96.25 650 96.25C647.929 96.25 646.25 97.9289 646.25 100C646.25 102.071 647.929 103.75 650 103.75Z" fill="#E8E8E8" fill-opacity="0.28"/>
<path opacity="0.15" d="M750 100H700V150H750V100Z" stroke="#E8E8E8" stroke-opacity="0.28" stroke-width="0.5"/>
<path d="M700 103.75C702.071 103.75 703.75 102.071 703.75 100C703.75 97.9289 702.071 96.25 700 96.25C697.929 96.25 696.25 97.9289 696.25 100C696.25 102.071 697.929 103.75 700 103.75Z" fill="#E8E8E8" fill-opacity="0.28"/>
<path opacity="0.15" d="M800 100H750V150H800V100Z" stroke="#E8E8E8" stroke-opacity="0.28" stroke-width="0.5"/>
<path d="M750 103.75C752.071 103.75 753.75 102.071 753.75 100C753.75 97.9289 752.071 96.25 750 96.25C747.929 96.25 746.25 97.9289 746.25 100C746.25 102.071 747.929 103.75 750 103.75Z" fill="#E8E8E8" fill-opacity="0.28"/>
<path opacity="0.15" d="M850 100H800V150H850V100Z" stroke="#E8E8E8" stroke-opacity="0.28" stroke-width="0.5"/>
<path d="M800 103.75C802.071 103.75 803.75 102.071 803.75 100C803.75 97.9289 802.071 96.25 800 96.25C797.929 96.25 796.25 97.9289 796.25 100C796.25 102.071 797.929 103.75 800 103.75Z" fill="#E8E8E8" fill-opacity="0.28"/>
<path opacity="0.15" d="M50 150H0V200H50V150Z" stroke="#E8E8E8" stroke-opacity="0.28" stroke-width="0.5"/>
<path d="M0 153.75C2.07107 153.75 3.75 152.071 3.75 150C3.75 147.929 2.07107 146.25 0 146.25C-2.07107 146.25 -3.75 147.929 -3.75 150C-3.75 152.071 -2.07107 153.75 0 153.75Z" fill="#E8E8E8" fill-opacity="0.28"/>
<path opacity="0.15" d="M100 150H50V200H100V150Z" stroke="#E8E8E8" stroke-opacity="0.28" stroke-width="0.5"/>
<path d="M50 153.75C52.0711 153.75 53.75 152.071 53.75 150C53.75 147.929 52.0711 146.25 50 146.25C47.9289 146.25 46.25 147.929 46.25 150C46.25 152.071 47.9289 153.75 50 153.75Z" fill="#E8E8E8" fill-opacity="0.28"/>
<path opacity="0.15" d="M150 150H100V200H150V150Z" stroke="#E8E8E8" stroke-opacity="0.28" stroke-width="0.5"/>
<path d="M100 153.75C102.071 153.75 103.75 152.071 103.75 150C103.75 147.929 102.071 146.25 100 146.25C97.9289 146.25 96.25 147.929 96.25 150C96.25 152.071 97.9289 153.75 100 153.75Z" fill="#E8E8E8" fill-opacity="0.28"/>
<path opacity="0.15" d="M200 150H150V200H200V150Z" stroke="#E8E8E8" stroke-opacity="0.28" stroke-width="0.5"/>
<path d="M150 153.75C152.071 153.75 153.75 152.071 153.75 150C153.75 147.929 152.071 146.25 150 146.25C147.929 146.25 146.25 147.929 146.25 150C146.25 152.071 147.929 153.75 150 153.75Z" fill="#E8E8E8" fill-opacity="0.28"/>
<path opacity="0.15" d="M250 150H200V200H250V150Z" stroke="#E8E8E8" stroke-opacity="0.28" stroke-width="0.5"/>
<path d="M200 153.75C202.071 153.75 203.75 152.071 203.75 150C203.75 147.929 202.071 146.25 200 146.25C197.929 146.25 196.25 147.929 196.25 150C196.25 152.071 197.929 153.75 200 153.75Z" fill="#E8E8E8" fill-opacity="0.28"/>
<path opacity="0.15" d="M300 150H250V200H300V150Z" stroke="#E8E8E8" stroke-opacity="0.28" stroke-width="0.5"/>
<path d="M250 153.75C252.071 153.75 253.75 152.071 253.75 150C253.75 147.929 252.071 146.25 250 146.25C247.929 146.25 246.25 147.929 246.25 150C246.25 152.071 247.929 153.75 250 153.75Z" fill="#E8E8E8" fill-opacity="0.28"/>
<path opacity="0.15" d="M350 150H300V200H350V150Z" stroke="#E8E8E8" stroke-opacity="0.28" stroke-width="0.5"/>
<path d="M300 153.75C302.071 153.75 303.75 152.071 303.75 150C303.75 147.929 302.071 146.25 300 146.25C297.929 146.25 296.25 147.929 296.25 150C296.25 152.071 297.929 153.75 300 153.75Z" fill="#E8E8E8" fill-opacity="0.28"/>
<path opacity="0.15" d="M400 150H350V200H400V150Z" stroke="#E8E8E8" stroke-opacity="0.28" stroke-width="0.5"/>
<path d="M350 153.75C352.071 153.75 353.75 152.071 353.75 150C353.75 147.929 352.071 146.25 350 146.25C347.929 146.25 346.25 147.929 346.25 150C346.25 152.071 347.929 153.75 350 153.75Z" fill="#E8E8E8" fill-opacity="0.28"/>
<path opacity="0.15" d="M450 150H400V200H450V150Z" stroke="#E8E8E8" stroke-opacity="0.28" stroke-width="0.5"/>
<path d="M400 153.75C402.071 153.75 403.75 152.071 403.75 150C403.75 147.929 402.071 146.25 400 146.25C397.929 146.25 396.25 147.929 396.25 150C396.25 152.071 397.929 153.75 400 153.75Z" fill="#E8E8E8" fill-opacity="0.28"/>
<path opacity="0.15" d="M500 150H450V200H500V150Z" stroke="#E8E8E8" stroke-opacity="0.28" stroke-width="0.5"/>
<path d="M450 153.75C452.071 153.75 453.75 152.071 453.75 150C453.75 147.929 452.071 146.25 450 146.25C447.929 146.25 446.25 147.929 446.25 150C446.25 152.071 447.929 153.75 450 153.75Z" fill="#E8E8E8" fill-opacity="0.28"/>
<path opacity="0.15" d="M550 150H500V200H550V150Z" stroke="#E8E8E8" stroke-opacity="0.28" stroke-width="0.5"/>
<path d="M500 153.75C502.071 153.75 503.75 152.071 503.75 150C503.75 147.929 502.071 146.25 500 146.25C497.929 146.25 496.25 147.929 496.25 150C496.25 152.071 497.929 153.75 500 153.75Z" fill="#E8E8E8" fill-opacity="0.28"/>
<path opacity="0.15" d="M600 150H550V200H600V150Z" stroke="#E8E8E8" stroke-opacity="0.28" stroke-width="0.5"/>
<path d="M550 153.75C552.071 153.75 553.75 152.071 553.75 150C553.75 147.929 552.071 146.25 550 146.25C547.929 146.25 546.25 147.929 546.25 150C546.25 152.071 547.929 153.75 550 153.75Z" fill="#E8E8E8" fill-opacity="0.28"/>
<path opacity="0.15" d="M650 150H600V200H650V150Z" stroke="#E8E8E8" stroke-opacity="0.28" stroke-width="0.5"/>
<path d="M600 153.75C602.071 153.75 603.75 152.071 603.75 150C603.75 147.929 602.071 146.25 600 146.25C597.929 146.25 596.25 147.929 596.25 150C596.25 152.071 597.929 153.75 600 153.75Z" fill="#E8E8E8" fill-opacity="0.28"/>
<path opacity="0.15" d="M700 150H650V200H700V150Z" stroke="#E8E8E8" stroke-opacity="0.28" stroke-width="0.5"/>
<path d="M650 153.75C652.071 153.75 653.75 152.071 653.75 150C653.75 147.929 652.071 146.25 650 146.25C647.929 146.25 646.25 147.929 646.25 150C646.25 152.071 647.929 153.75 650 153.75Z" fill="#E8E8E8" fill-opacity="0.28"/>
<path opacity="0.15" d="M750 150H700V200H750V150Z" stroke="#E8E8E8" stroke-opacity="0.28" stroke-width="0.5"/>
<path d="M700 153.75C702.071 153.75 703.75 152.071 703.75 150C703.75 147.929 702.071 146.25 700 146.25C697.929 146.25 696.25 147.929 696.25 150C696.25 152.071 697.929 153.75 700 153.75Z" fill="#E8E8E8" fill-opacity="0.28"/>
<path opacity="0.15" d="M800 150H750V200H800V150Z" stroke="#E8E8E8" stroke-opacity="0.28" stroke-width="0.5"/>
<path d="M750 153.75C752.071 153.75 753.75 152.071 753.75 150C753.75 147.929 752.071 146.25 750 146.25C747.929 146.25 746.25 147.929 746.25 150C746.25 152.071 747.929 153.75 750 153.75Z" fill="#E8E8E8" fill-opacity="0.28"/>
<path opacity="0.15" d="M850 150H800V200H850V150Z" stroke="#E8E8E8" stroke-opacity="0.28" stroke-width="0.5"/>
<path d="M800 153.75C802.071 153.75 803.75 152.071 803.75 150C803.75 147.929 802.071 146.25 800 146.25C797.929 146.25 796.25 147.929 796.25 150C796.25 152.071 797.929 153.75 800 153.75Z" fill="#E8E8E8" fill-opacity="0.28"/>
<path opacity="0.15" d="M50 200H0V250H50V200Z" stroke="#E8E8E8" stroke-opacity="0.28" stroke-width="0.5"/>
<path d="M0 203.75C2.07107 203.75 3.75 202.071 3.75 200C3.75 197.929 2.07107 196.25 0 196.25C-2.07107 196.25 -3.75 197.929 -3.75 200C-3.75 202.071 -2.07107 203.75 0 203.75Z" fill="#E8E8E8" fill-opacity="0.28"/>
<path opacity="0.15" d="M100 200H50V250H100V200Z" stroke="#E8E8E8" stroke-opacity="0.28" stroke-width="0.5"/>
<path d="M50 203.75C52.0711 203.75 53.75 202.071 53.75 200C53.75 197.929 52.0711 196.25 50 196.25C47.9289 196.25 46.25 197.929 46.25 200C46.25 202.071 47.9289 203.75 50 203.75Z" fill="#E8E8E8" fill-opacity="0.28"/>
<path opacity="0.15" d="M150 200H100V250H150V200Z" stroke="#E8E8E8" stroke-opacity="0.28" stroke-width="0.5"/>
<path d="M100 203.75C102.071 203.75 103.75 202.071 103.75 200C103.75 197.929 102.071 196.25 100 196.25C97.9289 196.25 96.25 197.929 96.25 200C96.25 202.071 97.9289 203.75 100 203.75Z" fill="#E8E8E8" fill-opacity="0.28"/>
<path opacity="0.15" d="M200 200H150V250H200V200Z" stroke="#E8E8E8" stroke-opacity="0.28" stroke-width="0.5"/>
<path d="M150 203.75C152.071 203.75 153.75 202.071 153.75 200C153.75 197.929 152.071 196.25 150 196.25C147.929 196.25 146.25 197.929 146.25 200C146.25 202.071 147.929 203.75 150 203.75Z" fill="#E8E8E8" fill-opacity="0.28"/>
<path opacity="0.15" d="M250 200H200V250H250V200Z" stroke="#E8E8E8" stroke-opacity="0.28" stroke-width="0.5"/>
<path d="M200 203.75C202.071 203.75 203.75 202.071 203.75 200C203.75 197.929 202.071 196.25 200 196.25C197.929 196.25 196.25 197.929 196.25 200C196.25 202.071 197.929 203.75 200 203.75Z" fill="#E8E8E8" fill-opacity="0.28"/>
<path opacity="0.15" d="M300 200H250V250H300V200Z" stroke="#E8E8E8" stroke-opacity="0.28" stroke-width="0.5"/>
<path d="M250 203.75C252.071 203.75 253.75 202.071 253.75 200C253.75 197.929 252.071 196.25 250 196.25C247.929 196.25 246.25 197.929 246.25 200C246.25 202.071 247.929 203.75 250 203.75Z" fill="#E8E8E8" fill-opacity="0.28"/>
<path opacity="0.15" d="M350 200H300V250H350V200Z" stroke="#E8E8E8" stroke-opacity="0.28" stroke-width="0.5"/>
<path d="M300 203.75C302.071 203.75 303.75 202.071 303.75 200C303.75 197.929 302.071 196.25 300 196.25C297.929 196.25 296.25 197.929 296.25 200C296.25 202.071 297.929 203.75 300 203.75Z" fill="#E8E8E8" fill-opacity="0.28"/>
<path opacity="0.15" d="M400 200H350V250H400V200Z" stroke="#E8E8E8" stroke-opacity="0.28" stroke-width="0.5"/>
<path d="M350 203.75C352.071 203.75 353.75 202.071 353.75 200C353.75 197.929 352.071 196.25 350 196.25C347.929 196.25 346.25 197.929 346.25 200C346.25 202.071 347.929 203.75 350 203.75Z" fill="#E8E8E8" fill-opacity="0.28"/>
<path opacity="0.15" d="M450 200H400V250H450V200Z" stroke="#E8E8E8" stroke-opacity="0.28" stroke-width="0.5"/>
<path d="M400 203.75C402.071 203.75 403.75 202.071 403.75 200C403.75 197.929 402.071 196.25 400 196.25C397.929 196.25 396.25 197.929 396.25 200C396.25 202.071 397.929 203.75 400 203.75Z" fill="#E8E8E8" fill-opacity="0.28"/>
<path opacity="0.15" d="M500 200H450V250H500V200Z" stroke="#E8E8E8" stroke-opacity="0.28" stroke-width="0.5"/>
<path d="M450 203.75C452.071 203.75 453.75 202.071 453.75 200C453.75 197.929 452.071 196.25 450 196.25C447.929 196.25 446.25 197.929 446.25 200C446.25 202.071 447.929 203.75 450 203.75Z" fill="#E8E8E8" fill-opacity="0.28"/>
<path opacity="0.15" d="M550 200H500V250H550V200Z" stroke="#E8E8E8" stroke-opacity="0.28" stroke-width="0.5"/>
<path d="M500 203.75C502.071 203.75 503.75 202.071 503.75 200C503.75 197.929 502.071 196.25 500 196.25C497.929 196.25 496.25 197.929 496.25 200C496.25 202.071 497.929 203.75 500 203.75Z" fill="#E8E8E8" fill-opacity="0.28"/>
<path opacity="0.15" d="M600 200H550V250H600V200Z" stroke="#E8E8E8" stroke-opacity="0.28" stroke-width="0.5"/>
<path d="M550 203.75C552.071 203.75 553.75 202.071 553.75 200C553.75 197.929 552.071 196.25 550 196.25C547.929 196.25 546.25 197.929 546.25 200C546.25 202.071 547.929 203.75 550 203.75Z" fill="#E8E8E8" fill-opacity="0.28"/>
<path opacity="0.15" d="M650 200H600V250H650V200Z" stroke="#E8E8E8" stroke-opacity="0.28" stroke-width="0.5"/>
<path d="M600 203.75C602.071 203.75 603.75 202.071 603.75 200C603.75 197.929 602.071 196.25 600 196.25C597.929 196.25 596.25 197.929 596.25 200C596.25 202.071 597.929 203.75 600 203.75Z" fill="#E8E8E8" fill-opacity="0.28"/>
<path opacity="0.15" d="M700 200H650V250H700V200Z" stroke="#E8E8E8" stroke-opacity="0.28" stroke-width="0.5"/>
<path d="M650 203.75C652.071 203.75 653.75 202.071 653.75 200C653.75 197.929 652.071 196.25 650 196.25C647.929 196.25 646.25 197.929 646.25 200C646.25 202.071 647.929 203.75 650 203.75Z" fill="#E8E8E8" fill-opacity="0.28"/>
<path opacity="0.15" d="M750 200H700V250H750V200Z" stroke="#E8E8E8" stroke-opacity="0.28" stroke-width="0.5"/>
<path d="M700 203.75C702.071 203.75 703.75 202.071 703.75 200C703.75 197.929 702.071 196.25 700 196.25C697.929 196.25 696.25 197.929 696.25 200C696.25 202.071 697.929 203.75 700 203.75Z" fill="#E8E8E8" fill-opacity="0.28"/>
<path opacity="0.15" d="M800 200H750V250H800V200Z" stroke="#E8E8E8" stroke-opacity="0.28" stroke-width="0.5"/>
<path d="M750 203.75C752.071 203.75 753.75 202.071 753.75 200C753.75 197.929 752.071 196.25 750 196.25C747.929 196.25 746.25 197.929 746.25 200C746.25 202.071 747.929 203.75 750 203.75Z" fill="#E8E8E8" fill-opacity="0.28"/>
<path opacity="0.15" d="M850 200H800V250H850V200Z" stroke="#E8E8E8" stroke-opacity="0.28" stroke-width="0.5"/>
<path d="M800 203.75C802.071 203.75 803.75 202.071 803.75 200C803.75 197.929 802.071 196.25 800 196.25C797.929 196.25 796.25 197.929 796.25 200C796.25 202.071 797.929 203.75 800 203.75Z" fill="#E8E8E8" fill-opacity="0.28"/>
<path opacity="0.15" d="M50 250H0V300H50V250Z" stroke="#E8E8E8" stroke-opacity="0.28" stroke-width="0.5"/>
<path d="M0 253.75C2.07107 253.75 3.75 252.071 3.75 250C3.75 247.929 2.07107 246.25 0 246.25C-2.07107 246.25 -3.75 247.929 -3.75 250C-3.75 252.071 -2.07107 253.75 0 253.75Z" fill="#E8E8E8" fill-opacity="0.28"/>
<path opacity="0.15" d="M100 250H50V300H100V250Z" stroke="#E8E8E8" stroke-opacity="0.28" stroke-width="0.5"/>
<path d="M50 253.75C52.0711 253.75 53.75 252.071 53.75 250C53.75 247.929 52.0711 246.25 50 246.25C47.9289 246.25 46.25 247.929 46.25 250C46.25 252.071 47.9289 253.75 50 253.75Z" fill="#E8E8E8" fill-opacity="0.28"/>
<path opacity="0.15" d="M150 250H100V300H150V250Z" stroke="#E8E8E8" stroke-opacity="0.28" stroke-width="0.5"/>
<path d="M100 253.75C102.071 253.75 103.75 252.071 103.75 250C103.75 247.929 102.071 246.25 100 246.25C97.9289 246.25 96.25 247.929 96.25 250C96.25 252.071 97.9289 253.75 100 253.75Z" fill="#E8E8E8" fill-opacity="0.28"/>
<path opacity="0.15" d="M200 250H150V300H200V250Z" stroke="#E8E8E8" stroke-opacity="0.28" stroke-width="0.5"/>
<path d="M150 253.75C152.071 253.75 153.75 252.071 153.75 250C153.75 247.929 152.071 246.25 150 246.25C147.929 246.25 146.25 247.929 146.25 250C146.25 252.071 147.929 253.75 150 253.75Z" fill="#E8E8E8" fill-opacity="0.28"/>
<path opacity="0.15" d="M250 250H200V300H250V250Z" stroke="#E8E8E8" stroke-opacity="0.28" stroke-width="0.5"/>
<path d="M200 253.75C202.071 253.75 203.75 252.071 203.75 250C203.75 247.929 202.071 246.25 200 246.25C197.929 246.25 196.25 247.929 196.25 250C196.25 252.071 197.929 253.75 200 253.75Z" fill="#E8E8E8" fill-opacity="0.28"/>
<path opacity="0.15" d="M300 250H250V300H300V250Z" stroke="#E8E8E8" stroke-opacity="0.28" stroke-width="0.5"/>
<path d="M250 253.75C252.071 253.75 253.75 252.071 253.75 250C253.75 247.929 252.071 246.25 250 246.25C247.929 246.25 246.25 247.929 246.25 250C246.25 252.071 247.929 253.75 250 253.75Z" fill="#E8E8E8" fill-opacity="0.28"/>
<path opacity="0.15" d="M350 250H300V300H350V250Z" stroke="#E8E8E8" stroke-opacity="0.28" stroke-width="0.5"/>
<path d="M300 253.75C302.071 253.75 303.75 252.071 303.75 250C303.75 247.929 302.071 246.25 300 246.25C297.929 246.25 296.25 247.929 296.25 250C296.25 252.071 297.929 253.75 300 253.75Z" fill="#E8E8E8" fill-opacity="0.28"/>
<path opacity="0.15" d="M400 250H350V300H400V250Z" stroke="#E8E8E8" stroke-opacity="0.28" stroke-width="0.5"/>
<path d="M350 253.75C352.071 253.75 353.75 252.071 353.75 250C353.75 247.929 352.071 246.25 350 246.25C347.929 246.25 346.25 247.929 346.25 250C346.25 252.071 347.929 253.75 350 253.75Z" fill="#E8E8E8" fill-opacity="0.28"/>
<path opacity="0.15" d="M450 250H400V300H450V250Z" stroke="#E8E8E8" stroke-opacity="0.28" stroke-width="0.5"/>
<path d="M400 253.75C402.071 253.75 403.75 252.071 403.75 250C403.75 247.929 402.071 246.25 400 246.25C397.929 246.25 396.25 247.929 396.25 250C396.25 252.071 397.929 253.75 400 253.75Z" fill="#E8E8E8" fill-opacity="0.28"/>
<path opacity="0.15" d="M500 250H450V300H500V250Z" stroke="#E8E8E8" stroke-opacity="0.28" stroke-width="0.5"/>
<path d="M450 253.75C452.071 253.75 453.75 252.071 453.75 250C453.75 247.929 452.071 246.25 450 246.25C447.929 246.25 446.25 247.929 446.25 250C446.25 252.071 447.929 253.75 450 253.75Z" fill="#E8E8E8" fill-opacity="0.28"/>
<path opacity="0.15" d="M550 250H500V300H550V250Z" stroke="#E8E8E8" stroke-opacity="0.28" stroke-width="0.5"/>
<path d="M500 253.75C502.071 253.75 503.75 252.071 503.75 250C503.75 247.929 502.071 246.25 500 246.25C497.929 246.25 496.25 247.929 496.25 250C496.25 252.071 497.929 253.75 500 253.75Z" fill="#E8E8E8" fill-opacity="0.28"/>
<path opacity="0.15" d="M600 250H550V300H600V250Z" stroke="#E8E8E8" stroke-opacity="0.28" stroke-width="0.5"/>
<path d="M550 253.75C552.071 253.75 553.75 252.071 553.75 250C553.75 247.929 552.071 246.25 550 246.25C547.929 246.25 546.25 247.929 546.25 250C546.25 252.071 547.929 253.75 550 253.75Z" fill="#E8E8E8" fill-opacity="0.28"/>
<path opacity="0.15" d="M650 250H600V300H650V250Z" stroke="#E8E8E8" stroke-opacity="0.28" stroke-width="0.5"/>
<path d="M600 253.75C602.071 253.75 603.75 252.071 603.75 250C603.75 247.929 602.071 246.25 600 246.25C597.929 246.25 596.25 247.929 596.25 250C596.25 252.071 597.929 253.75 600 253.75Z" fill="#E8E8E8" fill-opacity="0.28"/>
<path opacity="0.15" d="M700 250H650V300H700V250Z" stroke="#E8E8E8" stroke-opacity="0.28" stroke-width="0.5"/>
<path d="M650 253.75C652.071 253.75 653.75 252.071 653.75 250C653.75 247.929 652.071 246.25 650 246.25C647.929 246.25 646.25 247.929 646.25 250C646.25 252.071 647.929 253.75 650 253.75Z" fill="#E8E8E8" fill-opacity="0.28"/>
<path opacity="0.15" d="M750 250H700V300H750V250Z" stroke="#E8E8E8" stroke-opacity="0.28" stroke-width="0.5"/>
<path d="M700 253.75C702.071 253.75 703.75 252.071 703.75 250C703.75 247.929 702.071 246.25 700 246.25C697.929 246.25 696.25 247.929 696.25 250C696.25 252.071 697.929 253.75 700 253.75Z" fill="#E8E8E8" fill-opacity="0.28"/>
<path opacity="0.15" d="M800 250H750V300H800V250Z" stroke="#E8E8E8" stroke-opacity="0.28" stroke-width="0.5"/>
<path d="M750 253.75C752.071 253.75 753.75 252.071 753.75 250C753.75 247.929 752.071 246.25 750 246.25C747.929 246.25 746.25 247.929 746.25 250C746.25 252.071 747.929 253.75 750 253.75Z" fill="#E8E8E8" fill-opacity="0.28"/>
<path opacity="0.15" d="M850 250H800V300H850V250Z" stroke="#E8E8E8" stroke-opacity="0.28" stroke-width="0.5"/>
<path d="M800 253.75C802.071 253.75 803.75 252.071 803.75 250C803.75 247.929 802.071 246.25 800 246.25C797.929 246.25 796.25 247.929 796.25 250C796.25 252.071 797.929 253.75 800 253.75Z" fill="#E8E8E8" fill-opacity="0.28"/>
<path opacity="0.15" d="M50 300H0V350H50V300Z" stroke="#E8E8E8" stroke-opacity="0.28" stroke-width="0.5"/>
<path d="M0 303.75C2.07107 303.75 3.75 302.071 3.75 300C3.75 297.929 2.07107 296.25 0 296.25C-2.07107 296.25 -3.75 297.929 -3.75 300C-3.75 302.071 -2.07107 303.75 0 303.75Z" fill="#E8E8E8" fill-opacity="0.28"/>
<path opacity="0.15" d="M100 300H50V350H100V300Z" stroke="#E8E8E8" stroke-opacity="0.28" stroke-width="0.5"/>
<path d="M50 303.75C52.0711 303.75 53.75 302.071 53.75 300C53.75 297.929 52.0711 296.25 50 296.25C47.9289 296.25 46.25 297.929 46.25 300C46.25 302.071 47.9289 303.75 50 303.75Z" fill="#E8E8E8" fill-opacity="0.28"/>
<path opacity="0.15" d="M150 300H100V350H150V300Z" stroke="#E8E8E8" stroke-opacity="0.28" stroke-width="0.5"/>
<path d="M100 303.75C102.071 303.75 103.75 302.071 103.75 300C103.75 297.929 102.071 296.25 100 296.25C97.9289 296.25 96.25 297.929 96.25 300C96.25 302.071 97.9289 303.75 100 303.75Z" fill="#E8E8E8" fill-opacity="0.28"/>
<path opacity="0.15" d="M200 300H150V350H200V300Z" stroke="#E8E8E8" stroke-opacity="0.28" stroke-width="0.5"/>
<path d="M150 303.75C152.071 303.75 153.75 302.071 153.75 300C153.75 297.929 152.071 296.25 150 296.25C147.929 296.25 146.25 297.929 146.25 300C146.25 302.071 147.929 303.75 150 303.75Z" fill="#E8E8E8" fill-opacity="0.28"/>
<path opacity="0.15" d="M250 300H200V350H250V300Z" stroke="#E8E8E8" stroke-opacity="0.28" stroke-width="0.5"/>
<path d="M200 303.75C202.071 303.75 203.75 302.071 203.75 300C203.75 297.929 202.071 296.25 200 296.25C197.929 296.25 196.25 297.929 196.25 300C196.25 302.071 197.929 303.75 200 303.75Z" fill="#E8E8E8" fill-opacity="0.28"/>
<path opacity="0.15" d="M300 300H250V350H300V300Z" stroke="#E8E8E8" stroke-opacity="0.28" stroke-width="0.5"/>
<path d="M250 303.75C252.071 303.75 253.75 302.071 253.75 300C253.75 297.929 252.071 296.25 250 296.25C247.929 296.25 246.25 297.929 246.25 300C246.25 302.071 247.929 303.75 250 303.75Z" fill="#E8E8E8" fill-opacity="0.28"/>
<path opacity="0.15" d="M350 300H300V350H350V300Z" stroke="#E8E8E8" stroke-opacity="0.28" stroke-width="0.5"/>
<path d="M300 303.75C302.071 303.75 303.75 302.071 303.75 300C303.75 297.929 302.071 296.25 300 296.25C297.929 296.25 296.25 297.929 296.25 300C296.25 302.071 297.929 303.75 300 303.75Z" fill="#E8E8E8" fill-opacity="0.28"/>
<path opacity="0.15" d="M400 300H350V350H400V300Z" stroke="#E8E8E8" stroke-opacity="0.28" stroke-width="0.5"/>
<path d="M350 303.75C352.071 303.75 353.75 302.071 353.75 300C353.75 297.929 352.071 296.25 350 296.25C347.929 296.25 346.25 297.929 346.25 300C346.25 302.071 347.929 303.75 350 303.75Z" fill="#E8E8E8" fill-opacity="0.28"/>
<path opacity="0.15" d="M450 300H400V350H450V300Z" stroke="#E8E8E8" stroke-opacity="0.28" stroke-width="0.5"/>
<path d="M400 303.75C402.071 303.75 403.75 302.071 403.75 300C403.75 297.929 402.071 296.25 400 296.25C397.929 296.25 396.25 297.929 396.25 300C396.25 302.071 397.929 303.75 400 303.75Z" fill="#E8E8E8" fill-opacity="0.28"/>
<path opacity="0.15" d="M500 300H450V350H500V300Z" stroke="#E8E8E8" stroke-opacity="0.28" stroke-width="0.5"/>
<path d="M450 303.75C452.071 303.75 453.75 302.071 453.75 300C453.75 297.929 452.071 296.25 450 296.25C447.929 296.25 446.25 297.929 446.25 300C446.25 302.071 447.929 303.75 450 303.75Z" fill="#E8E8E8" fill-opacity="0.28"/>
<path opacity="0.15" d="M550 300H500V350H550V300Z" stroke="#E8E8E8" stroke-opacity="0.28" stroke-width="0.5"/>
<path d="M500 303.75C502.071 303.75 503.75 302.071 503.75 300C503.75 297.929 502.071 296.25 500 296.25C497.929 296.25 496.25 297.929 496.25 300C496.25 302.071 497.929 303.75 500 303.75Z" fill="#E8E8E8" fill-opacity="0.28"/>
<path opacity="0.15" d="M600 300H550V350H600V300Z" stroke="#E8E8E8" stroke-opacity="0.28" stroke-width="0.5"/>
<path d="M550 303.75C552.071 303.75 553.75 302.071 553.75 300C553.75 297.929 552.071 296.25 550 296.25C547.929 296.25 546.25 297.929 546.25 300C546.25 302.071 547.929 303.75 550 303.75Z" fill="#E8E8E8" fill-opacity="0.28"/>
<path opacity="0.15" d="M650 300H600V350H650V300Z" stroke="#E8E8E8" stroke-opacity="0.28" stroke-width="0.5"/>
<path d="M600 303.75C602.071 303.75 603.75 302.071 603.75 300C603.75 297.929 602.071 296.25 600 296.25C597.929 296.25 596.25 297.929 596.25 300C596.25 302.071 597.929 303.75 600 303.75Z" fill="#E8E8E8" fill-opacity="0.28"/>
<path opacity="0.15" d="M700 300H650V350H700V300Z" stroke="#E8E8E8" stroke-opacity="0.28" stroke-width="0.5"/>
<path d="M650 303.75C652.071 303.75 653.75 302.071 653.75 300C653.75 297.929 652.071 296.25 650 296.25C647.929 296.25 646.25 297.929 646.25 300C646.25 302.071 647.929 303.75 650 303.75Z" fill="#E8E8E8" fill-opacity="0.28"/>
<path opacity="0.15" d="M750 300H700V350H750V300Z" stroke="#E8E8E8" stroke-opacity="0.28" stroke-width="0.5"/>
<path d="M700 303.75C702.071 303.75 703.75 302.071 703.75 300C703.75 297.929 702.071 296.25 700 296.25C697.929 296.25 696.25 297.929 696.25 300C696.25 302.071 697.929 303.75 700 303.75Z" fill="#E8E8E8" fill-opacity="0.28"/>
<path opacity="0.15" d="M800 300H750V350H800V300Z" stroke="#E8E8E8" stroke-opacity="0.28" stroke-width="0.5"/>
<path d="M750 303.75C752.071 303.75 753.75 302.071 753.75 300C753.75 297.929 752.071 296.25 750 296.25C747.929 296.25 746.25 297.929 746.25 300C746.25 302.071 747.929 303.75 750 303.75Z" fill="#E8E8E8" fill-opacity="0.28"/>
<path opacity="0.15" d="M850 300H800V350H850V300Z" stroke="#E8E8E8" stroke-opacity="0.28" stroke-width="0.5"/>
<path d="M800 303.75C802.071 303.75 803.75 302.071 803.75 300C803.75 297.929 802.071 296.25 800 296.25C797.929 296.25 796.25 297.929 796.25 300C796.25 302.071 797.929 303.75 800 303.75Z" fill="#E8E8E8" fill-opacity="0.28"/>
<path opacity="0.15" d="M50 350H0V400H50V350Z" stroke="#E8E8E8" stroke-opacity="0.28" stroke-width="0.5"/>
<path d="M0 353.75C2.07107 353.75 3.75 352.071 3.75 350C3.75 347.929 2.07107 346.25 0 346.25C-2.07107 346.25 -3.75 347.929 -3.75 350C-3.75 352.071 -2.07107 353.75 0 353.75Z" fill="#E8E8E8" fill-opacity="0.28"/>
<path opacity="0.15" d="M100 350H50V400H100V350Z" stroke="#E8E8E8" stroke-opacity="0.28" stroke-width="0.5"/>
<path d="M50 353.75C52.0711 353.75 53.75 352.071 53.75 350C53.75 347.929 52.0711 346.25 50 346.25C47.9289 346.25 46.25 347.929 46.25 350C46.25 352.071 47.9289 353.75 50 353.75Z" fill="#E8E8E8" fill-opacity="0.28"/>
<path opacity="0.15" d="M150 350H100V400H150V350Z" stroke="#E8E8E8" stroke-opacity="0.28" stroke-width="0.5"/>
<path d="M100 353.75C102.071 353.75 103.75 352.071 103.75 350C103.75 347.929 102.071 346.25 100 346.25C97.9289 346.25 96.25 347.929 96.25 350C96.25 352.071 97.9289 353.75 100 353.75Z" fill="#E8E8E8" fill-opacity="0.28"/>
<path opacity="0.15" d="M200 350H150V400H200V350Z" stroke="#E8E8E8" stroke-opacity="0.28" stroke-width="0.5"/>
<path d="M150 353.75C152.071 353.75 153.75 352.071 153.75 350C153.75 347.929 152.071 346.25 150 346.25C147.929 346.25 146.25 347.929 146.25 350C146.25 352.071 147.929 353.75 150 353.75Z" fill="#E8E8E8" fill-opacity="0.28"/>
<path opacity="0.15" d="M250 350H200V400H250V350Z" stroke="#E8E8E8" stroke-opacity="0.28" stroke-width="0.5"/>
<path d="M200 353.75C202.071 353.75 203.75 352.071 203.75 350C203.75 347.929 202.071 346.25 200 346.25C197.929 346.25 196.25 347.929 196.25 350C196.25 352.071 197.929 353.75 200 353.75Z" fill="#E8E8E8" fill-opacity="0.28"/>
<path opacity="0.15" d="M300 350H250V400H300V350Z" stroke="#E8E8E8" stroke-opacity="0.28" stroke-width="0.5"/>
<path d="M250 353.75C252.071 353.75 253.75 352.071 253.75 350C253.75 347.929 252.071 346.25 250 346.25C247.929 346.25 246.25 347.929 246.25 350C246.25 352.071 247.929 353.75 250 353.75Z" fill="#E8E8E8" fill-opacity="0.28"/>
<path opacity="0.15" d="M350 350H300V400H350V350Z" stroke="#E8E8E8" stroke-opacity="0.28" stroke-width="0.5"/>
<path d="M300 353.75C302.071 353.75 303.75 352.071 303.75 350C303.75 347.929 302.071 346.25 300 346.25C297.929 346.25 296.25 347.929 296.25 350C296.25 352.071 297.929 353.75 300 353.75Z" fill="#E8E8E8" fill-opacity="0.28"/>
<path opacity="0.15" d="M400 350H350V400H400V350Z" stroke="#E8E8E8" stroke-opacity="0.28" stroke-width="0.5"/>
<path d="M350 353.75C352.071 353.75 353.75 352.071 353.75 350C353.75 347.929 352.071 346.25 350 346.25C347.929 346.25 346.25 347.929 346.25 350C346.25 352.071 347.929 353.75 350 353.75Z" fill="#E8E8E8" fill-opacity="0.28"/>
<path opacity="0.15" d="M450 350H400V400H450V350Z" stroke="#E8E8E8" stroke-opacity="0.28" stroke-width="0.5"/>
<path d="M400 353.75C402.071 353.75 403.75 352.071 403.75 350C403.75 347.929 402.071 346.25 400 346.25C397.929 346.25 396.25 347.929 396.25 350C396.25 352.071 397.929 353.75 400 353.75Z" fill="#E8E8E8" fill-opacity="0.28"/>
<path opacity="0.15" d="M500 350H450V400H500V350Z" stroke="#E8E8E8" stroke-opacity="0.28" stroke-width="0.5"/>
<path d="M450 353.75C452.071 353.75 453.75 352.071 453.75 350C453.75 347.929 452.071 346.25 450 346.25C447.929 346.25 446.25 347.929 446.25 350C446.25 352.071 447.929 353.75 450 353.75Z" fill="#E8E8E8" fill-opacity="0.28"/>
<path opacity="0.15" d="M550 350H500V400H550V350Z" stroke="#E8E8E8" stroke-opacity="0.28" stroke-width="0.5"/>
<path d="M500 353.75C502.071 353.75 503.75 352.071 503.75 350C503.75 347.929 502.071 346.25 500 346.25C497.929 346.25 496.25 347.929 496.25 350C496.25 352.071 497.929 353.75 500 353.75Z" fill="#E8E8E8" fill-opacity="0.28"/>
<path opacity="0.15" d="M600 350H550V400H600V350Z" stroke="#E8E8E8" stroke-opacity="0.28" stroke-width="0.5"/>
<path d="M550 353.75C552.071 353.75 553.75 352.071 553.75 350C553.75 347.929 552.071 346.25 550 346.25C547.929 346.25 546.25 347.929 546.25 350C546.25 352.071 547.929 353.75 550 353.75Z" fill="#E8E8E8" fill-opacity="0.28"/>
<path opacity="0.15" d="M650 350H600V400H650V350Z" stroke="#E8E8E8" stroke-opacity="0.28" stroke-width="0.5"/>
<path d="M600 353.75C602.071 353.75 603.75 352.071 603.75 350C603.75 347.929 602.071 346.25 600 346.25C597.929 346.25 596.25 347.929 596.25 350C596.25 352.071 597.929 353.75 600 353.75Z" fill="#E8E8E8" fill-opacity="0.28"/>
<path opacity="0.15" d="M700 350H650V400H700V350Z" stroke="#E8E8E8" stroke-opacity="0.28" stroke-width="0.5"/>
<path d="M650 353.75C652.071 353.75 653.75 352.071 653.75 350C653.75 347.929 652.071 346.25 650 346.25C647.929 346.25 646.25 347.929 646.25 350C646.25 352.071 647.929 353.75 650 353.75Z" fill="#E8E8E8" fill-opacity="0.28"/>
<path opacity="0.15" d="M750 350H700V400H750V350Z" stroke="#E8E8E8" stroke-opacity="0.28" stroke-width="0.5"/>
<path d="M700 353.75C702.071 353.75 703.75 352.071 703.75 350C703.75 347.929 702.071 346.25 700 346.25C697.929 346.25 696.25 347.929 696.25 350C696.25 352.071 697.929 353.75 700 353.75Z" fill="#E8E8E8" fill-opacity="0.28"/>
<path opacity="0.15" d="M800 350H750V400H800V350Z" stroke="#E8E8E8" stroke-opacity="0.28" stroke-width="0.5"/>
<path d="M750 353.75C752.071 353.75 753.75 352.071 753.75 350C753.75 347.929 752.071 346.25 750 346.25C747.929 346.25 746.25 347.929 746.25 350C746.25 352.071 747.929 353.75 750 353.75Z" fill="#E8E8E8" fill-opacity="0.28"/>
<path opacity="0.15" d="M850 350H800V400H850V350Z" stroke="#E8E8E8" stroke-opacity="0.28" stroke-width="0.5"/>
<path d="M800 353.75C802.071 353.75 803.75 352.071 803.75 350C803.75 347.929 802.071 346.25 800 346.25C797.929 346.25 796.25 347.929 796.25 350C796.25 352.071 797.929 353.75 800 353.75Z" fill="#E8E8E8" fill-opacity="0.28"/>
<path opacity="0.15" d="M50 400H0V450H50V400Z" stroke="#E8E8E8" stroke-opacity="0.28" stroke-width="0.5"/>
<path d="M0 403.75C2.07107 403.75 3.75 402.071 3.75 400C3.75 397.929 2.07107 396.25 0 396.25C-2.07107 396.25 -3.75 397.929 -3.75 400C-3.75 402.071 -2.07107 403.75 0 403.75Z" fill="#E8E8E8" fill-opacity="0.28"/>
<path opacity="0.15" d="M100 400H50V450H100V400Z" stroke="#E8E8E8" stroke-opacity="0.28" stroke-width="0.5"/>
<path d="M50 403.75C52.0711 403.75 53.75 402.071 53.75 400C53.75 397.929 52.0711 396.25 50 396.25C47.9289 396.25 46.25 397.929 46.25 400C46.25 402.071 47.9289 403.75 50 403.75Z" fill="#E8E8E8" fill-opacity="0.28"/>
<path opacity="0.15" d="M150 400H100V450H150V400Z" stroke="#E8E8E8" stroke-opacity="0.28" stroke-width="0.5"/>
<path d="M100 403.75C102.071 403.75 103.75 402.071 103.75 400C103.75 397.929 102.071 396.25 100 396.25C97.9289 396.25 96.25 397.929 96.25 400C96.25 402.071 97.9289 403.75 100 403.75Z" fill="#E8E8E8" fill-opacity="0.28"/>
<path opacity="0.15" d="M200 400H150V450H200V400Z" stroke="#E8E8E8" stroke-opacity="0.28" stroke-width="0.5"/>
<path d="M150 403.75C152.071 403.75 153.75 402.071 153.75 400C153.75 397.929 152.071 396.25 150 396.25C147.929 396.25 146.25 397.929 146.25 400C146.25 402.071 147.929 403.75 150 403.75Z" fill="#E8E8E8" fill-opacity="0.28"/>
<path opacity="0.15" d="M250 400H200V450H250V400Z" stroke="#E8E8E8" stroke-opacity="0.28" stroke-width="0.5"/>
<path d="M200 403.75C202.071 403.75 203.75 402.071 203.75 400C203.75 397.929 202.071 396.25 200 396.25C197.929 396.25 196.25 397.929 196.25 400C196.25 402.071 197.929 403.75 200 403.75Z" fill="#E8E8E8" fill-opacity="0.28"/>
<path opacity="0.15" d="M300 400H250V450H300V400Z" stroke="#E8E8E8" stroke-opacity="0.28" stroke-width="0.5"/>
<path d="M250 403.75C252.071 403.75 253.75 402.071 253.75 400C253.75 397.929 252.071 396.25 250 396.25C247.929 396.25 246.25 397.929 246.25 400C246.25 402.071 247.929 403.75 250 403.75Z" fill="#E8E8E8" fill-opacity="0.28"/>
<path opacity="0.15" d="M350 400H300V450H350V400Z" stroke="#E8E8E8" stroke-opacity="0.28" stroke-width="0.5"/>
<path d="M300 403.75C302.071 403.75 303.75 402.071 303.75 400C303.75 397.929 302.071 396.25 300 396.25C297.929 396.25 296.25 397.929 296.25 400C296.25 402.071 297.929 403.75 300 403.75Z" fill="#E8E8E8" fill-opacity="0.28"/>
<path opacity="0.15" d="M400 400H350V450H400V400Z" stroke="#E8E8E8" stroke-opacity="0.28" stroke-width="0.5"/>
<path d="M350 403.75C352.071 403.75 353.75 402.071 353.75 400C353.75 397.929 352.071 396.25 350 396.25C347.929 396.25 346.25 397.929 346.25 400C346.25 402.071 347.929 403.75 350 403.75Z" fill="#E8E8E8" fill-opacity="0.28"/>
<path opacity="0.15" d="M450 400H400V450H450V400Z" stroke="#E8E8E8" stroke-opacity="0.28" stroke-width="0.5"/>
<path d="M400 403.75C402.071 403.75 403.75 402.071 403.75 400C403.75 397.929 402.071 396.25 400 396.25C397.929 396.25 396.25 397.929 396.25 400C396.25 402.071 397.929 403.75 400 403.75Z" fill="#E8E8E8" fill-opacity="0.28"/>
<path opacity="0.15" d="M500 400H450V450H500V400Z" stroke="#E8E8E8" stroke-opacity="0.28" stroke-width="0.5"/>
<path d="M450 403.75C452.071 403.75 453.75 402.071 453.75 400C453.75 397.929 452.071 396.25 450 396.25C447.929 396.25 446.25 397.929 446.25 400C446.25 402.071 447.929 403.75 450 403.75Z" fill="#E8E8E8" fill-opacity="0.28"/>
<path opacity="0.15" d="M550 400H500V450H550V400Z" stroke="#E8E8E8" stroke-opacity="0.28" stroke-width="0.5"/>
<path d="M500 403.75C502.071 403.75 503.75 402.071 503.75 400C503.75 397.929 502.071 396.25 500 396.25C497.929 396.25 496.25 397.929 496.25 400C496.25 402.071 497.929 403.75 500 403.75Z" fill="#E8E8E8" fill-opacity="0.28"/>
<path opacity="0.15" d="M600 400H550V450H600V400Z" stroke="#E8E8E8" stroke-opacity="0.28" stroke-width="0.5"/>
<path d="M550 403.75C552.071 403.75 553.75 402.071 553.75 400C553.75 397.929 552.071 396.25 550 396.25C547.929 396.25 546.25 397.929 546.25 400C546.25 402.071 547.929 403.75 550 403.75Z" fill="#E8E8E8" fill-opacity="0.28"/>
<path opacity="0.15" d="M650 400H600V450H650V400Z" stroke="#E8E8E8" stroke-opacity="0.28" stroke-width="0.5"/>
<path d="M600 403.75C602.071 403.75 603.75 402.071 603.75 400C603.75 397.929 602.071 396.25 600 396.25C597.929 396.25 596.25 397.929 596.25 400C596.25 402.071 597.929 403.75 600 403.75Z" fill="#E8E8E8" fill-opacity="0.28"/>
<path opacity="0.15" d="M700 400H650V450H700V400Z" stroke="#E8E8E8" stroke-opacity="0.28" stroke-width="0.5"/>
<path d="M650 403.75C652.071 403.75 653.75 402.071 653.75 400C653.75 397.929 652.071 396.25 650 396.25C647.929 396.25 646.25 397.929 646.25 400C646.25 402.071 647.929 403.75 650 403.75Z" fill="#E8E8E8" fill-opacity="0.28"/>
<path opacity="0.15" d="M750 400H700V450H750V400Z" stroke="#E8E8E8" stroke-opacity="0.28" stroke-width="0.5"/>
<path d="M700 403.75C702.071 403.75 703.75 402.071 703.75 400C703.75 397.929 702.071 396.25 700 396.25C697.929 396.25 696.25 397.929 696.25 400C696.25 402.071 697.929 403.75 700 403.75Z" fill="#E8E8E8" fill-opacity="0.28"/>
<path opacity="0.15" d="M800 400H750V450H800V400Z" stroke="#E8E8E8" stroke-opacity="0.28" stroke-width="0.5"/>
<path d="M750 403.75C752.071 403.75 753.75 402.071 753.75 400C753.75 397.929 752.071 396.25 750 396.25C747.929 396.25 746.25 397.929 746.25 400C746.25 402.071 747.929 403.75 750 403.75Z" fill="#E8E8E8" fill-opacity="0.28"/>
<path opacity="0.15" d="M850 400H800V450H850V400Z" stroke="#E8E8E8" stroke-opacity="0.28" stroke-width="0.5"/>
<path d="M800 403.75C802.071 403.75 803.75 402.071 803.75 400C803.75 397.929 802.071 396.25 800 396.25C797.929 396.25 796.25 397.929 796.25 400C796.25 402.071 797.929 403.75 800 403.75Z" fill="#E8E8E8" fill-opacity="0.28"/>
<path opacity="0.15" d="M50 450H0V500H50V450Z" stroke="#E8E8E8" stroke-opacity="0.28" stroke-width="0.5"/>
<path d="M0 453.75C2.07107 453.75 3.75 452.071 3.75 450C3.75 447.929 2.07107 446.25 0 446.25C-2.07107 446.25 -3.75 447.929 -3.75 450C-3.75 452.071 -2.07107 453.75 0 453.75Z" fill="#E8E8E8" fill-opacity="0.28"/>
<path opacity="0.15" d="M100 450H50V500H100V450Z" stroke="#E8E8E8" stroke-opacity="0.28" stroke-width="0.5"/>
<path d="M50 453.75C52.0711 453.75 53.75 452.071 53.75 450C53.75 447.929 52.0711 446.25 50 446.25C47.9289 446.25 46.25 447.929 46.25 450C46.25 452.071 47.9289 453.75 50 453.75Z" fill="#E8E8E8" fill-opacity="0.28"/>
<path opacity="0.15" d="M150 450H100V500H150V450Z" stroke="#E8E8E8" stroke-opacity="0.28" stroke-width="0.5"/>
<path d="M100 453.75C102.071 453.75 103.75 452.071 103.75 450C103.75 447.929 102.071 446.25 100 446.25C97.9289 446.25 96.25 447.929 96.25 450C96.25 452.071 97.9289 453.75 100 453.75Z" fill="#E8E8E8" fill-opacity="0.28"/>
<path opacity="0.15" d="M200 450H150V500H200V450Z" stroke="#E8E8E8" stroke-opacity="0.28" stroke-width="0.5"/>
<path d="M150 453.75C152.071 453.75 153.75 452.071 153.75 450C153.75 447.929 152.071 446.25 150 446.25C147.929 446.25 146.25 447.929 146.25 450C146.25 452.071 147.929 453.75 150 453.75Z" fill="#E8E8E8" fill-opacity="0.28"/>
<path opacity="0.15" d="M250 450H200V500H250V450Z" stroke="#E8E8E8" stroke-opacity="0.28" stroke-width="0.5"/>
<path d="M200 453.75C202.071 453.75 203.75 452.071 203.75 450C203.75 447.929 202.071 446.25 200 446.25C197.929 446.25 196.25 447.929 196.25 450C196.25 452.071 197.929 453.75 200 453.75Z" fill="#E8E8E8" fill-opacity="0.28"/>
<path opacity="0.15" d="M300 450H250V500H300V450Z" stroke="#E8E8E8" stroke-opacity="0.28" stroke-width="0.5"/>
<path d="M250 453.75C252.071 453.75 253.75 452.071 253.75 450C253.75 447.929 252.071 446.25 250 446.25C247.929 446.25 246.25 447.929 246.25 450C246.25 452.071 247.929 453.75 250 453.75Z" fill="#E8E8E8" fill-opacity="0.28"/>
<path opacity="0.15" d="M350 450H300V500H350V450Z" stroke="#E8E8E8" stroke-opacity="0.28" stroke-width="0.5"/>
<path d="M300 453.75C302.071 453.75 303.75 452.071 303.75 450C303.75 447.929 302.071 446.25 300 446.25C297.929 446.25 296.25 447.929 296.25 450C296.25 452.071 297.929 453.75 300 453.75Z" fill="#E8E8E8" fill-opacity="0.28"/>
<path opacity="0.15" d="M400 450H350V500H400V450Z" stroke="#E8E8E8" stroke-opacity="0.28" stroke-width="0.5"/>
<path d="M350 453.75C352.071 453.75 353.75 452.071 353.75 450C353.75 447.929 352.071 446.25 350 446.25C347.929 446.25 346.25 447.929 346.25 450C346.25 452.071 347.929 453.75 350 453.75Z" fill="#E8E8E8" fill-opacity="0.28"/>
<path opacity="0.15" d="M450 450H400V500H450V450Z" stroke="#E8E8E8" stroke-opacity="0.28" stroke-width="0.5"/>
<path d="M400 453.75C402.071 453.75 403.75 452.071 403.75 450C403.75 447.929 402.071 446.25 400 446.25C397.929 446.25 396.25 447.929 396.25 450C396.25 452.071 397.929 453.75 400 453.75Z" fill="#E8E8E8" fill-opacity="0.28"/>
<path opacity="0.15" d="M500 450H450V500H500V450Z" stroke="#E8E8E8" stroke-opacity="0.28" stroke-width="0.5"/>
<path d="M450 453.75C452.071 453.75 453.75 452.071 453.75 450C453.75 447.929 452.071 446.25 450 446.25C447.929 446.25 446.25 447.929 446.25 450C446.25 452.071 447.929 453.75 450 453.75Z" fill="#E8E8E8" fill-opacity="0.28"/>
<path opacity="0.15" d="M550 450H500V500H550V450Z" stroke="#E8E8E8" stroke-opacity="0.28" stroke-width="0.5"/>
<path d="M500 453.75C502.071 453.75 503.75 452.071 503.75 450C503.75 447.929 502.071 446.25 500 446.25C497.929 446.25 496.25 447.929 496.25 450C496.25 452.071 497.929 453.75 500 453.75Z" fill="#E8E8E8" fill-opacity="0.28"/>
<path opacity="0.15" d="M600 450H550V500H600V450Z" stroke="#E8E8E8" stroke-opacity="0.28" stroke-width="0.5"/>
<path d="M550 453.75C552.071 453.75 553.75 452.071 553.75 450C553.75 447.929 552.071 446.25 550 446.25C547.929 446.25 546.25 447.929 546.25 450C546.25 452.071 547.929 453.75 550 453.75Z" fill="#E8E8E8" fill-opacity="0.28"/>
<path opacity="0.15" d="M650 450H600V500H650V450Z" stroke="#E8E8E8" stroke-opacity="0.28" stroke-width="0.5"/>
<path d="M600 453.75C602.071 453.75 603.75 452.071 603.75 450C603.75 447.929 602.071 446.25 600 446.25C597.929 446.25 596.25 447.929 596.25 450C596.25 452.071 597.929 453.75 600 453.75Z" fill="#E8E8E8" fill-opacity="0.28"/>
<path opacity="0.15" d="M700 450H650V500H700V450Z" stroke="#E8E8E8" stroke-opacity="0.28" stroke-width="0.5"/>
<path d="M650 453.75C652.071 453.75 653.75 452.071 653.75 450C653.75 447.929 652.071 446.25 650 446.25C647.929 446.25 646.25 447.929 646.25 450C646.25 452.071 647.929 453.75 650 453.75Z" fill="#E8E8E8" fill-opacity="0.28"/>
<path opacity="0.15" d="M750 450H700V500H750V450Z" stroke="#E8E8E8" stroke-opacity="0.28" stroke-width="0.5"/>
<path d="M700 453.75C702.071 453.75 703.75 452.071 703.75 450C703.75 447.929 702.071 446.25 700 446.25C697.929 446.25 696.25 447.929 696.25 450C696.25 452.071 697.929 453.75 700 453.75Z" fill="#E8E8E8" fill-opacity="0.28"/>
<path opacity="0.15" d="M800 450H750V500H800V450Z" stroke="#E8E8E8" stroke-opacity="0.28" stroke-width="0.5"/>
<path d="M750 453.75C752.071 453.75 753.75 452.071 753.75 450C753.75 447.929 752.071 446.25 750 446.25C747.929 446.25 746.25 447.929 746.25 450C746.25 452.071 747.929 453.75 750 453.75Z" fill="#E8E8E8" fill-opacity="0.28"/>
<path opacity="0.15" d="M850 450H800V500H850V450Z" stroke="#E8E8E8" stroke-opacity="0.28" stroke-width="0.5"/>
<path d="M800 453.75C802.071 453.75 803.75 452.071 803.75 450C803.75 447.929 802.071 446.25 800 446.25C797.929 446.25 796.25 447.929 796.25 450C796.25 452.071 797.929 453.75 800 453.75Z" fill="#E8E8E8" fill-opacity="0.28"/>
<path opacity="0.15" d="M50 500H0V550H50V500Z" stroke="#E8E8E8" stroke-opacity="0.28" stroke-width="0.5"/>
<path d="M0 503.75C2.07107 503.75 3.75 502.071 3.75 500C3.75 497.929 2.07107 496.25 0 496.25C-2.07107 496.25 -3.75 497.929 -3.75 500C-3.75 502.071 -2.07107 503.75 0 503.75Z" fill="#E8E8E8" fill-opacity="0.28"/>
<path opacity="0.15" d="M100 500H50V550H100V500Z" stroke="#E8E8E8" stroke-opacity="0.28" stroke-width="0.5"/>
<path d="M50 503.75C52.0711 503.75 53.75 502.071 53.75 500C53.75 497.929 52.0711 496.25 50 496.25C47.9289 496.25 46.25 497.929 46.25 500C46.25 502.071 47.9289 503.75 50 503.75Z" fill="#E8E8E8" fill-opacity="0.28"/>
<path opacity="0.15" d="M150 500H100V550H150V500Z" stroke="#E8E8E8" stroke-opacity="0.28" stroke-width="0.5"/>
<path d="M100 503.75C102.071 503.75 103.75 502.071 103.75 500C103.75 497.929 102.071 496.25 100 496.25C97.9289 496.25 96.25 497.929 96.25 500C96.25 502.071 97.9289 503.75 100 503.75Z" fill="#E8E8E8" fill-opacity="0.28"/>
<path opacity="0.15" d="M200 500H150V550H200V500Z" stroke="#E8E8E8" stroke-opacity="0.28" stroke-width="0.5"/>
<path d="M150 503.75C152.071 503.75 153.75 502.071 153.75 500C153.75 497.929 152.071 496.25 150 496.25C147.929 496.25 146.25 497.929 146.25 500C146.25 502.071 147.929 503.75 150 503.75Z" fill="#E8E8E8" fill-opacity="0.28"/>
<path opacity="0.15" d="M250 500H200V550H250V500Z" stroke="#E8E8E8" stroke-opacity="0.28" stroke-width="0.5"/>
<path d="M200 503.75C202.071 503.75 203.75 502.071 203.75 500C203.75 497.929 202.071 496.25 200 496.25C197.929 496.25 196.25 497.929 196.25 500C196.25 502.071 197.929 503.75 200 503.75Z" fill="#E8E8E8" fill-opacity="0.28"/>
<path opacity="0.15" d="M300 500H250V550H300V500Z" stroke="#E8E8E8" stroke-opacity="0.28" stroke-width="0.5"/>
<path d="M250 503.75C252.071 503.75 253.75 502.071 253.75 500C253.75 497.929 252.071 496.25 250 496.25C247.929 496.25 246.25 497.929 246.25 500C246.25 502.071 247.929 503.75 250 503.75Z" fill="#E8E8E8" fill-opacity="0.28"/>
<path opacity="0.15" d="M350 500H300V550H350V500Z" stroke="#E8E8E8" stroke-opacity="0.28" stroke-width="0.5"/>
<path d="M300 503.75C302.071 503.75 303.75 502.071 303.75 500C303.75 497.929 302.071 496.25 300 496.25C297.929 496.25 296.25 497.929 296.25 500C296.25 502.071 297.929 503.75 300 503.75Z" fill="#E8E8E8" fill-opacity="0.28"/>
<path opacity="0.15" d="M400 500H350V550H400V500Z" stroke="#E8E8E8" stroke-opacity="0.28" stroke-width="0.5"/>
<path d="M350 503.75C352.071 503.75 353.75 502.071 353.75 500C353.75 497.929 352.071 496.25 350 496.25C347.929 496.25 346.25 497.929 346.25 500C346.25 502.071 347.929 503.75 350 503.75Z" fill="#E8E8E8" fill-opacity="0.28"/>
<path opacity="0.15" d="M450 500H400V550H450V500Z" stroke="#E8E8E8" stroke-opacity="0.28" stroke-width="0.5"/>
<path d="M400 503.75C402.071 503.75 403.75 502.071 403.75 500C403.75 497.929 402.071 496.25 400 496.25C397.929 496.25 396.25 497.929 396.25 500C396.25 502.071 397.929 503.75 400 503.75Z" fill="#E8E8E8" fill-opacity="0.28"/>
<path opacity="0.15" d="M500 500H450V550H500V500Z" stroke="#E8E8E8" stroke-opacity="0.28" stroke-width="0.5"/>
<path d="M450 503.75C452.071 503.75 453.75 502.071 453.75 500C453.75 497.929 452.071 496.25 450 496.25C447.929 496.25 446.25 497.929 446.25 500C446.25 502.071 447.929 503.75 450 503.75Z" fill="#E8E8E8" fill-opacity="0.28"/>
<path opacity="0.15" d="M550 500H500V550H550V500Z" stroke="#E8E8E8" stroke-opacity="0.28" stroke-width="0.5"/>
<path d="M500 503.75C502.071 503.75 503.75 502.071 503.75 500C503.75 497.929 502.071 496.25 500 496.25C497.929 496.25 496.25 497.929 496.25 500C496.25 502.071 497.929 503.75 500 503.75Z" fill="#E8E8E8" fill-opacity="0.28"/>
<path opacity="0.15" d="M600 500H550V550H600V500Z" stroke="#E8E8E8" stroke-opacity="0.28" stroke-width="0.5"/>
<path d="M550 503.75C552.071 503.75 553.75 502.071 553.75 500C553.75 497.929 552.071 496.25 550 496.25C547.929 496.25 546.25 497.929 546.25 500C546.25 502.071 547.929 503.75 550 503.75Z" fill="#E8E8E8" fill-opacity="0.28"/>
<path opacity="0.15" d="M650 500H600V550H650V500Z" stroke="#E8E8E8" stroke-opacity="0.28" stroke-width="0.5"/>
<path d="M600 503.75C602.071 503.75 603.75 502.071 603.75 500C603.75 497.929 602.071 496.25 600 496.25C597.929 496.25 596.25 497.929 596.25 500C596.25 502.071 597.929 503.75 600 503.75Z" fill="#E8E8E8" fill-opacity="0.28"/>
<path opacity="0.15" d="M700 500H650V550H700V500Z" stroke="#E8E8E8" stroke-opacity="0.28" stroke-width="0.5"/>
<path d="M650 503.75C652.071 503.75 653.75 502.071 653.75 500C653.75 497.929 652.071 496.25 650 496.25C647.929 496.25 646.25 497.929 646.25 500C646.25 502.071 647.929 503.75 650 503.75Z" fill="#E8E8E8" fill-opacity="0.28"/>
<path opacity="0.15" d="M750 500H700V550H750V500Z" stroke="#E8E8E8" stroke-opacity="0.28" stroke-width="0.5"/>
<path d="M700 503.75C702.071 503.75 703.75 502.071 703.75 500C703.75 497.929 702.071 496.25 700 496.25C697.929 496.25 696.25 497.929 696.25 500C696.25 502.071 697.929 503.75 700 503.75Z" fill="#E8E8E8" fill-opacity="0.28"/>
<path opacity="0.15" d="M800 500H750V550H800V500Z" stroke="#E8E8E8" stroke-opacity="0.28" stroke-width="0.5"/>
<path d="M750 503.75C752.071 503.75 753.75 502.071 753.75 500C753.75 497.929 752.071 496.25 750 496.25C747.929 496.25 746.25 497.929 746.25 500C746.25 502.071 747.929 503.75 750 503.75Z" fill="#E8E8E8" fill-opacity="0.28"/>
<path opacity="0.15" d="M850 500H800V550H850V500Z" stroke="#E8E8E8" stroke-opacity="0.28" stroke-width="0.5"/>
<path d="M800 503.75C802.071 503.75 803.75 502.071 803.75 500C803.75 497.929 802.071 496.25 800 496.25C797.929 496.25 796.25 497.929 796.25 500C796.25 502.071 797.929 503.75 800 503.75Z" fill="#E8E8E8" fill-opacity="0.28"/>
<path opacity="0.15" d="M50 550H0V600H50V550Z" stroke="#E8E8E8" stroke-opacity="0.28" stroke-width="0.5"/>
<path d="M0 553.75C2.07107 553.75 3.75 552.071 3.75 550C3.75 547.929 2.07107 546.25 0 546.25C-2.07107 546.25 -3.75 547.929 -3.75 550C-3.75 552.071 -2.07107 553.75 0 553.75Z" fill="#E8E8E8" fill-opacity="0.28"/>
<path opacity="0.15" d="M100 550H50V600H100V550Z" stroke="#E8E8E8" stroke-opacity="0.28" stroke-width="0.5"/>
<path d="M50 553.75C52.0711 553.75 53.75 552.071 53.75 550C53.75 547.929 52.0711 546.25 50 546.25C47.9289 546.25 46.25 547.929 46.25 550C46.25 552.071 47.9289 553.75 50 553.75Z" fill="#E8E8E8" fill-opacity="0.28"/>
<path opacity="0.15" d="M150 550H100V600H150V550Z" stroke="#E8E8E8" stroke-opacity="0.28" stroke-width="0.5"/>
<path d="M100 553.75C102.071 553.75 103.75 552.071 103.75 550C103.75 547.929 102.071 546.25 100 546.25C97.9289 546.25 96.25 547.929 96.25 550C96.25 552.071 97.9289 553.75 100 553.75Z" fill="#E8E8E8" fill-opacity="0.28"/>
<path opacity="0.15" d="M200 550H150V600H200V550Z" stroke="#E8E8E8" stroke-opacity="0.28" stroke-width="0.5"/>
<path d="M150 553.75C152.071 553.75 153.75 552.071 153.75 550C153.75 547.929 152.071 546.25 150 546.25C147.929 546.25 146.25 547.929 146.25 550C146.25 552.071 147.929 553.75 150 553.75Z" fill="#E8E8E8" fill-opacity="0.28"/>
<path opacity="0.15" d="M250 550H200V600H250V550Z" stroke="#E8E8E8" stroke-opacity="0.28" stroke-width="0.5"/>
<path d="M200 553.75C202.071 553.75 203.75 552.071 203.75 550C203.75 547.929 202.071 546.25 200 546.25C197.929 546.25 196.25 547.929 196.25 550C196.25 552.071 197.929 553.75 200 553.75Z" fill="#E8E8E8" fill-opacity="0.28"/>
<path opacity="0.15" d="M300 550H250V600H300V550Z" stroke="#E8E8E8" stroke-opacity="0.28" stroke-width="0.5"/>
<path d="M250 553.75C252.071 553.75 253.75 552.071 253.75 550C253.75 547.929 252.071 546.25 250 546.25C247.929 546.25 246.25 547.929 246.25 550C246.25 552.071 247.929 553.75 250 553.75Z" fill="#E8E8E8" fill-opacity="0.28"/>
<path opacity="0.15" d="M350 550H300V600H350V550Z" stroke="#E8E8E8" stroke-opacity="0.28" stroke-width="0.5"/>
<path d="M300 553.75C302.071 553.75 303.75 552.071 303.75 550C303.75 547.929 302.071 546.25 300 546.25C297.929 546.25 296.25 547.929 296.25 550C296.25 552.071 297.929 553.75 300 553.75Z" fill="#E8E8E8" fill-opacity="0.28"/>
<path opacity="0.15" d="M400 550H350V600H400V550Z" stroke="#E8E8E8" stroke-opacity="0.28" stroke-width="0.5"/>
<path d="M350 553.75C352.071 553.75 353.75 552.071 353.75 550C353.75 547.929 352.071 546.25 350 546.25C347.929 546.25 346.25 547.929 346.25 550C346.25 552.071 347.929 553.75 350 553.75Z" fill="#E8E8E8" fill-opacity="0.28"/>
<path opacity="0.15" d="M450 550H400V600H450V550Z" stroke="#E8E8E8" stroke-opacity="0.28" stroke-width="0.5"/>
<path d="M400 553.75C402.071 553.75 403.75 552.071 403.75 550C403.75 547.929 402.071 546.25 400 546.25C397.929 546.25 396.25 547.929 396.25 550C396.25 552.071 397.929 553.75 400 553.75Z" fill="#E8E8E8" fill-opacity="0.28"/>
<path opacity="0.15" d="M500 550H450V600H500V550Z" stroke="#E8E8E8" stroke-opacity="0.28" stroke-width="0.5"/>
<path d="M450 553.75C452.071 553.75 453.75 552.071 453.75 550C453.75 547.929 452.071 546.25 450 546.25C447.929 546.25 446.25 547.929 446.25 550C446.25 552.071 447.929 553.75 450 553.75Z" fill="#E8E8E8" fill-opacity="0.28"/>
<path opacity="0.15" d="M550 550H500V600H550V550Z" stroke="#E8E8E8" stroke-opacity="0.28" stroke-width="0.5"/>
<path d="M500 553.75C502.071 553.75 503.75 552.071 503.75 550C503.75 547.929 502.071 546.25 500 546.25C497.929 546.25 496.25 547.929 496.25 550C496.25 552.071 497.929 553.75 500 553.75Z" fill="#E8E8E8" fill-opacity="0.28"/>
<path opacity="0.15" d="M600 550H550V600H600V550Z" stroke="#E8E8E8" stroke-opacity="0.28" stroke-width="0.5"/>
<path d="M550 553.75C552.071 553.75 553.75 552.071 553.75 550C553.75 547.929 552.071 546.25 550 546.25C547.929 546.25 546.25 547.929 546.25 550C546.25 552.071 547.929 553.75 550 553.75Z" fill="#E8E8E8" fill-opacity="0.28"/>
<path opacity="0.15" d="M650 550H600V600H650V550Z" stroke="#E8E8E8" stroke-opacity="0.28" stroke-width="0.5"/>
<path d="M600 553.75C602.071 553.75 603.75 552.071 603.75 550C603.75 547.929 602.071 546.25 600 546.25C597.929 546.25 596.25 547.929 596.25 550C596.25 552.071 597.929 553.75 600 553.75Z" fill="#E8E8E8" fill-opacity="0.28"/>
<path opacity="0.15" d="M700 550H650V600H700V550Z" stroke="#E8E8E8" stroke-opacity="0.28" stroke-width="0.5"/>
<path d="M650 553.75C652.071 553.75 653.75 552.071 653.75 550C653.75 547.929 652.071 546.25 650 546.25C647.929 546.25 646.25 547.929 646.25 550C646.25 552.071 647.929 553.75 650 553.75Z" fill="#E8E8E8" fill-opacity="0.28"/>
<path opacity="0.15" d="M750 550H700V600H750V550Z" stroke="#E8E8E8" stroke-opacity="0.28" stroke-width="0.5"/>
<path d="M700 553.75C702.071 553.75 703.75 552.071 703.75 550C703.75 547.929 702.071 546.25 700 546.25C697.929 546.25 696.25 547.929 696.25 550C696.25 552.071 697.929 553.75 700 553.75Z" fill="#E8E8E8" fill-opacity="0.28"/>
<path opacity="0.15" d="M800 550H750V600H800V550Z" stroke="#E8E8E8" stroke-opacity="0.28" stroke-width="0.5"/>
<path d="M750 553.75C752.071 553.75 753.75 552.071 753.75 550C753.75 547.929 752.071 546.25 750 546.25C747.929 546.25 746.25 547.929 746.25 550C746.25 552.071 747.929 553.75 750 553.75Z" fill="#E8E8E8" fill-opacity="0.28"/>
<path opacity="0.15" d="M850 550H800V600H850V550Z" stroke="#E8E8E8" stroke-opacity="0.28" stroke-width="0.5"/>
<path d="M800 553.75C802.071 553.75 803.75 552.071 803.75 550C803.75 547.929 802.071 546.25 800 546.25C797.929 546.25 796.25 547.929 796.25 550C796.25 552.071 797.929 553.75 800 553.75Z" fill="#E8E8E8" fill-opacity="0.28"/>
<path opacity="0.15" d="M50 600H0V650H50V600Z" stroke="#E8E8E8" stroke-opacity="0.28" stroke-width="0.5"/>
<path d="M0 603.75C2.07107 603.75 3.75 602.071 3.75 600C3.75 597.929 2.07107 596.25 0 596.25C-2.07107 596.25 -3.75 597.929 -3.75 600C-3.75 602.071 -2.07107 603.75 0 603.75Z" fill="#E8E8E8" fill-opacity="0.28"/>
<path opacity="0.15" d="M100 600H50V650H100V600Z" stroke="#E8E8E8" stroke-opacity="0.28" stroke-width="0.5"/>
<path d="M50 603.75C52.0711 603.75 53.75 602.071 53.75 600C53.75 597.929 52.0711 596.25 50 596.25C47.9289 596.25 46.25 597.929 46.25 600C46.25 602.071 47.9289 603.75 50 603.75Z" fill="#E8E8E8" fill-opacity="0.28"/>
<path opacity="0.15" d="M150 600H100V650H150V600Z" stroke="#E8E8E8" stroke-opacity="0.28" stroke-width="0.5"/>
<path d="M100 603.75C102.071 603.75 103.75 602.071 103.75 600C103.75 597.929 102.071 596.25 100 596.25C97.9289 596.25 96.25 597.929 96.25 600C96.25 602.071 97.9289 603.75 100 603.75Z" fill="#E8E8E8" fill-opacity="0.28"/>
<path opacity="0.15" d="M200 600H150V650H200V600Z" stroke="#E8E8E8" stroke-opacity="0.28" stroke-width="0.5"/>
<path d="M150 603.75C152.071 603.75 153.75 602.071 153.75 600C153.75 597.929 152.071 596.25 150 596.25C147.929 596.25 146.25 597.929 146.25 600C146.25 602.071 147.929 603.75 150 603.75Z" fill="#E8E8E8" fill-opacity="0.28"/>
<path opacity="0.15" d="M250 600H200V650H250V600Z" stroke="#E8E8E8" stroke-opacity="0.28" stroke-width="0.5"/>
<path d="M200 603.75C202.071 603.75 203.75 602.071 203.75 600C203.75 597.929 202.071 596.25 200 596.25C197.929 596.25 196.25 597.929 196.25 600C196.25 602.071 197.929 603.75 200 603.75Z" fill="#E8E8E8" fill-opacity="0.28"/>
<path opacity="0.15" d="M300 600H250V650H300V600Z" stroke="#E8E8E8" stroke-opacity="0.28" stroke-width="0.5"/>
<path d="M250 603.75C252.071 603.75 253.75 602.071 253.75 600C253.75 597.929 252.071 596.25 250 596.25C247.929 596.25 246.25 597.929 246.25 600C246.25 602.071 247.929 603.75 250 603.75Z" fill="#E8E8E8" fill-opacity="0.28"/>
<path opacity="0.15" d="M350 600H300V650H350V600Z" stroke="#E8E8E8" stroke-opacity="0.28" stroke-width="0.5"/>
<path d="M300 603.75C302.071 603.75 303.75 602.071 303.75 600C303.75 597.929 302.071 596.25 300 596.25C297.929 596.25 296.25 597.929 296.25 600C296.25 602.071 297.929 603.75 300 603.75Z" fill="#E8E8E8" fill-opacity="0.28"/>
<path opacity="0.15" d="M400 600H350V650H400V600Z" stroke="#E8E8E8" stroke-opacity="0.28" stroke-width="0.5"/>
<path d="M350 603.75C352.071 603.75 353.75 602.071 353.75 600C353.75 597.929 352.071 596.25 350 596.25C347.929 596.25 346.25 597.929 346.25 600C346.25 602.071 347.929 603.75 350 603.75Z" fill="#E8E8E8" fill-opacity="0.28"/>
<path opacity="0.15" d="M450 600H400V650H450V600Z" stroke="#E8E8E8" stroke-opacity="0.28" stroke-width="0.5"/>
<path d="M400 603.75C402.071 603.75 403.75 602.071 403.75 600C403.75 597.929 402.071 596.25 400 596.25C397.929 596.25 396.25 597.929 396.25 600C396.25 602.071 397.929 603.75 400 603.75Z" fill="#E8E8E8" fill-opacity="0.28"/>
<path opacity="0.15" d="M500 600H450V650H500V600Z" stroke="#E8E8E8" stroke-opacity="0.28" stroke-width="0.5"/>
<path d="M450 603.75C452.071 603.75 453.75 602.071 453.75 600C453.75 597.929 452.071 596.25 450 596.25C447.929 596.25 446.25 597.929 446.25 600C446.25 602.071 447.929 603.75 450 603.75Z" fill="#E8E8E8" fill-opacity="0.28"/>
<path opacity="0.15" d="M550 600H500V650H550V600Z" stroke="#E8E8E8" stroke-opacity="0.28" stroke-width="0.5"/>
<path d="M500 603.75C502.071 603.75 503.75 602.071 503.75 600C503.75 597.929 502.071 596.25 500 596.25C497.929 596.25 496.25 597.929 496.25 600C496.25 602.071 497.929 603.75 500 603.75Z" fill="#E8E8E8" fill-opacity="0.28"/>
<path opacity="0.15" d="M600 600H550V650H600V600Z" stroke="#E8E8E8" stroke-opacity="0.28" stroke-width="0.5"/>
<path d="M550 603.75C552.071 603.75 553.75 602.071 553.75 600C553.75 597.929 552.071 596.25 550 596.25C547.929 596.25 546.25 597.929 546.25 600C546.25 602.071 547.929 603.75 550 603.75Z" fill="#E8E8E8" fill-opacity="0.28"/>
<path opacity="0.15" d="M650 600H600V650H650V600Z" stroke="#E8E8E8" stroke-opacity="0.28" stroke-width="0.5"/>
<path d="M600 603.75C602.071 603.75 603.75 602.071 603.75 600C603.75 597.929 602.071 596.25 600 596.25C597.929 596.25 596.25 597.929 596.25 600C596.25 602.071 597.929 603.75 600 603.75Z" fill="#E8E8E8" fill-opacity="0.28"/>
<path opacity="0.15" d="M700 600H650V650H700V600Z" stroke="#E8E8E8" stroke-opacity="0.28" stroke-width="0.5"/>
<path d="M650 603.75C652.071 603.75 653.75 602.071 653.75 600C653.75 597.929 652.071 596.25 650 596.25C647.929 596.25 646.25 597.929 646.25 600C646.25 602.071 647.929 603.75 650 603.75Z" fill="#E8E8E8" fill-opacity="0.28"/>
<path opacity="0.15" d="M750 600H700V650H750V600Z" stroke="#E8E8E8" stroke-opacity="0.28" stroke-width="0.5"/>
<path d="M700 603.75C702.071 603.75 703.75 602.071 703.75 600C703.75 597.929 702.071 596.25 700 596.25C697.929 596.25 696.25 597.929 696.25 600C696.25 602.071 697.929 603.75 700 603.75Z" fill="#E8E8E8" fill-opacity="0.28"/>
<path opacity="0.15" d="M800 600H750V650H800V600Z" stroke="#E8E8E8" stroke-opacity="0.28" stroke-width="0.5"/>
<path d="M750 603.75C752.071 603.75 753.75 602.071 753.75 600C753.75 597.929 752.071 596.25 750 596.25C747.929 596.25 746.25 597.929 746.25 600C746.25 602.071 747.929 603.75 750 603.75Z" fill="#E8E8E8" fill-opacity="0.28"/>
<path opacity="0.15" d="M850 600H800V650H850V600Z" stroke="#E8E8E8" stroke-opacity="0.28" stroke-width="0.5"/>
<path d="M800 603.75C802.071 603.75 803.75 602.071 803.75 600C803.75 597.929 802.071 596.25 800 596.25C797.929 596.25 796.25 597.929 796.25 600C796.25 602.071 797.929 603.75 800 603.75Z" fill="#E8E8E8" fill-opacity="0.28"/>
<path opacity="0.15" d="M50 650H0V700H50V650Z" stroke="#E8E8E8" stroke-opacity="0.28" stroke-width="0.5"/>
<path d="M0 653.75C2.07107 653.75 3.75 652.071 3.75 650C3.75 647.929 2.07107 646.25 0 646.25C-2.07107 646.25 -3.75 647.929 -3.75 650C-3.75 652.071 -2.07107 653.75 0 653.75Z" fill="#E8E8E8" fill-opacity="0.28"/>
<path opacity="0.15" d="M100 650H50V700H100V650Z" stroke="#E8E8E8" stroke-opacity="0.28" stroke-width="0.5"/>
<path d="M50 653.75C52.0711 653.75 53.75 652.071 53.75 650C53.75 647.929 52.0711 646.25 50 646.25C47.9289 646.25 46.25 647.929 46.25 650C46.25 652.071 47.9289 653.75 50 653.75Z" fill="#E8E8E8" fill-opacity="0.28"/>
<path opacity="0.15" d="M150 650H100V700H150V650Z" stroke="#E8E8E8" stroke-opacity="0.28" stroke-width="0.5"/>
<path d="M100 653.75C102.071 653.75 103.75 652.071 103.75 650C103.75 647.929 102.071 646.25 100 646.25C97.9289 646.25 96.25 647.929 96.25 650C96.25 652.071 97.9289 653.75 100 653.75Z" fill="#E8E8E8" fill-opacity="0.28"/>
<path opacity="0.15" d="M200 650H150V700H200V650Z" stroke="#E8E8E8" stroke-opacity="0.28" stroke-width="0.5"/>
<path d="M150 653.75C152.071 653.75 153.75 652.071 153.75 650C153.75 647.929 152.071 646.25 150 646.25C147.929 646.25 146.25 647.929 146.25 650C146.25 652.071 147.929 653.75 150 653.75Z" fill="#E8E8E8" fill-opacity="0.28"/>
<path opacity="0.15" d="M250 650H200V700H250V650Z" stroke="#E8E8E8" stroke-opacity="0.28" stroke-width="0.5"/>
<path d="M200 653.75C202.071 653.75 203.75 652.071 203.75 650C203.75 647.929 202.071 646.25 200 646.25C197.929 646.25 196.25 647.929 196.25 650C196.25 652.071 197.929 653.75 200 653.75Z" fill="#E8E8E8" fill-opacity="0.28"/>
<path opacity="0.15" d="M300 650H250V700H300V650Z" stroke="#E8E8E8" stroke-opacity="0.28" stroke-width="0.5"/>
<path d="M250 653.75C252.071 653.75 253.75 652.071 253.75 650C253.75 647.929 252.071 646.25 250 646.25C247.929 646.25 246.25 647.929 246.25 650C246.25 652.071 247.929 653.75 250 653.75Z" fill="#E8E8E8" fill-opacity="0.28"/>
<path opacity="0.15" d="M350 650H300V700H350V650Z" stroke="#E8E8E8" stroke-opacity="0.28" stroke-width="0.5"/>
<path d="M300 653.75C302.071 653.75 303.75 652.071 303.75 650C303.75 647.929 302.071 646.25 300 646.25C297.929 646.25 296.25 647.929 296.25 650C296.25 652.071 297.929 653.75 300 653.75Z" fill="#E8E8E8" fill-opacity="0.28"/>
<path opacity="0.15" d="M400 650H350V700H400V650Z" stroke="#E8E8E8" stroke-opacity="0.28" stroke-width="0.5"/>
<path d="M350 653.75C352.071 653.75 353.75 652.071 353.75 650C353.75 647.929 352.071 646.25 350 646.25C347.929 646.25 346.25 647.929 346.25 650C346.25 652.071 347.929 653.75 350 653.75Z" fill="#E8E8E8" fill-opacity="0.28"/>
<path opacity="0.15" d="M450 650H400V700H450V650Z" stroke="#E8E8E8" stroke-opacity="0.28" stroke-width="0.5"/>
<path d="M400 653.75C402.071 653.75 403.75 652.071 403.75 650C403.75 647.929 402.071 646.25 400 646.25C397.929 646.25 396.25 647.929 396.25 650C396.25 652.071 397.929 653.75 400 653.75Z" fill="#E8E8E8" fill-opacity="0.28"/>
<path opacity="0.15" d="M500 650H450V700H500V650Z" stroke="#E8E8E8" stroke-opacity="0.28" stroke-width="0.5"/>
<path d="M450 653.75C452.071 653.75 453.75 652.071 453.75 650C453.75 647.929 452.071 646.25 450 646.25C447.929 646.25 446.25 647.929 446.25 650C446.25 652.071 447.929 653.75 450 653.75Z" fill="#E8E8E8" fill-opacity="0.28"/>
<path opacity="0.15" d="M550 650H500V700H550V650Z" stroke="#E8E8E8" stroke-opacity="0.28" stroke-width="0.5"/>
<path d="M500 653.75C502.071 653.75 503.75 652.071 503.75 650C503.75 647.929 502.071 646.25 500 646.25C497.929 646.25 496.25 647.929 496.25 650C496.25 652.071 497.929 653.75 500 653.75Z" fill="#E8E8E8" fill-opacity="0.28"/>
<path opacity="0.15" d="M600 650H550V700H600V650Z" stroke="#E8E8E8" stroke-opacity="0.28" stroke-width="0.5"/>
<path d="M550 653.75C552.071 653.75 553.75 652.071 553.75 650C553.75 647.929 552.071 646.25 550 646.25C547.929 646.25 546.25 647.929 546.25 650C546.25 652.071 547.929 653.75 550 653.75Z" fill="#E8E8E8" fill-opacity="0.28"/>
<path opacity="0.15" d="M650 650H600V700H650V650Z" stroke="#E8E8E8" stroke-opacity="0.28" stroke-width="0.5"/>
<path d="M600 653.75C602.071 653.75 603.75 652.071 603.75 650C603.75 647.929 602.071 646.25 600 646.25C597.929 646.25 596.25 647.929 596.25 650C596.25 652.071 597.929 653.75 600 653.75Z" fill="#E8E8E8" fill-opacity="0.28"/>
<path opacity="0.15" d="M700 650H650V700H700V650Z" stroke="#E8E8E8" stroke-opacity="0.28" stroke-width="0.5"/>
<path d="M650 653.75C652.071 653.75 653.75 652.071 653.75 650C653.75 647.929 652.071 646.25 650 646.25C647.929 646.25 646.25 647.929 646.25 650C646.25 652.071 647.929 653.75 650 653.75Z" fill="#E8E8E8" fill-opacity="0.28"/>
<path opacity="0.15" d="M750 650H700V700H750V650Z" stroke="#E8E8E8" stroke-opacity="0.28" stroke-width="0.5"/>
<path d="M700 653.75C702.071 653.75 703.75 652.071 703.75 650C703.75 647.929 702.071 646.25 700 646.25C697.929 646.25 696.25 647.929 696.25 650C696.25 652.071 697.929 653.75 700 653.75Z" fill="#E8E8E8" fill-opacity="0.28"/>
<path opacity="0.15" d="M800 650H750V700H800V650Z" stroke="#E8E8E8" stroke-opacity="0.28" stroke-width="0.5"/>
<path d="M750 653.75C752.071 653.75 753.75 652.071 753.75 650C753.75 647.929 752.071 646.25 750 646.25C747.929 646.25 746.25 647.929 746.25 650C746.25 652.071 747.929 653.75 750 653.75Z" fill="#E8E8E8" fill-opacity="0.28"/>
<path opacity="0.15" d="M850 650H800V700H850V650Z" stroke="#E8E8E8" stroke-opacity="0.28" stroke-width="0.5"/>
<path d="M800 653.75C802.071 653.75 803.75 652.071 803.75 650C803.75 647.929 802.071 646.25 800 646.25C797.929 646.25 796.25 647.929 796.25 650C796.25 652.071 797.929 653.75 800 653.75Z" fill="#E8E8E8" fill-opacity="0.28"/>
<path opacity="0.15" d="M50 700H0V750H50V700Z" stroke="#E8E8E8" stroke-opacity="0.28" stroke-width="0.5"/>
<path d="M0 703.75C2.07107 703.75 3.75 702.071 3.75 700C3.75 697.929 2.07107 696.25 0 696.25C-2.07107 696.25 -3.75 697.929 -3.75 700C-3.75 702.071 -2.07107 703.75 0 703.75Z" fill="#E8E8E8" fill-opacity="0.28"/>
<path opacity="0.15" d="M100 700H50V750H100V700Z" stroke="#E8E8E8" stroke-opacity="0.28" stroke-width="0.5"/>
<path d="M50 703.75C52.0711 703.75 53.75 702.071 53.75 700C53.75 697.929 52.0711 696.25 50 696.25C47.9289 696.25 46.25 697.929 46.25 700C46.25 702.071 47.9289 703.75 50 703.75Z" fill="#E8E8E8" fill-opacity="0.28"/>
<path opacity="0.15" d="M150 700H100V750H150V700Z" stroke="#E8E8E8" stroke-opacity="0.28" stroke-width="0.5"/>
<path d="M100 703.75C102.071 703.75 103.75 702.071 103.75 700C103.75 697.929 102.071 696.25 100 696.25C97.9289 696.25 96.25 697.929 96.25 700C96.25 702.071 97.9289 703.75 100 703.75Z" fill="#E8E8E8" fill-opacity="0.28"/>
<path opacity="0.15" d="M200 700H150V750H200V700Z" stroke="#E8E8E8" stroke-opacity="0.28" stroke-width="0.5"/>
<path d="M150 703.75C152.071 703.75 153.75 702.071 153.75 700C153.75 697.929 152.071 696.25 150 696.25C147.929 696.25 146.25 697.929 146.25 700C146.25 702.071 147.929 703.75 150 703.75Z" fill="#E8E8E8" fill-opacity="0.28"/>
<path opacity="0.15" d="M250 700H200V750H250V700Z" stroke="#E8E8E8" stroke-opacity="0.28" stroke-width="0.5"/>
<path d="M200 703.75C202.071 703.75 203.75 702.071 203.75 700C203.75 697.929 202.071 696.25 200 696.25C197.929 696.25 196.25 697.929 196.25 700C196.25 702.071 197.929 703.75 200 703.75Z" fill="#E8E8E8" fill-opacity="0.28"/>
<path opacity="0.15" d="M300 700H250V750H300V700Z" stroke="#E8E8E8" stroke-opacity="0.28" stroke-width="0.5"/>
<path d="M250 703.75C252.071 703.75 253.75 702.071 253.75 700C253.75 697.929 252.071 696.25 250 696.25C247.929 696.25 246.25 697.929 246.25 700C246.25 702.071 247.929 703.75 250 703.75Z" fill="#E8E8E8" fill-opacity="0.28"/>
<path opacity="0.15" d="M350 700H300V750H350V700Z" stroke="#E8E8E8" stroke-opacity="0.28" stroke-width="0.5"/>
<path d="M300 703.75C302.071 703.75 303.75 702.071 303.75 700C303.75 697.929 302.071 696.25 300 696.25C297.929 696.25 296.25 697.929 296.25 700C296.25 702.071 297.929 703.75 300 703.75Z" fill="#E8E8E8" fill-opacity="0.28"/>
<path opacity="0.15" d="M400 700H350V750H400V700Z" stroke="#E8E8E8" stroke-opacity="0.28" stroke-width="0.5"/>
<path d="M350 703.75C352.071 703.75 353.75 702.071 353.75 700C353.75 697.929 352.071 696.25 350 696.25C347.929 696.25 346.25 697.929 346.25 700C346.25 702.071 347.929 703.75 350 703.75Z" fill="#E8E8E8" fill-opacity="0.28"/>
<path opacity="0.15" d="M450 700H400V750H450V700Z" stroke="#E8E8E8" stroke-opacity="0.28" stroke-width="0.5"/>
<path d="M400 703.75C402.071 703.75 403.75 702.071 403.75 700C403.75 697.929 402.071 696.25 400 696.25C397.929 696.25 396.25 697.929 396.25 700C396.25 702.071 397.929 703.75 400 703.75Z" fill="#E8E8E8" fill-opacity="0.28"/>
<path opacity="0.15" d="M500 700H450V750H500V700Z" stroke="#E8E8E8" stroke-opacity="0.28" stroke-width="0.5"/>
<path d="M450 703.75C452.071 703.75 453.75 702.071 453.75 700C453.75 697.929 452.071 696.25 450 696.25C447.929 696.25 446.25 697.929 446.25 700C446.25 702.071 447.929 703.75 450 703.75Z" fill="#E8E8E8" fill-opacity="0.28"/>
<path opacity="0.15" d="M550 700H500V750H550V700Z" stroke="#E8E8E8" stroke-opacity="0.28" stroke-width="0.5"/>
<path d="M500 703.75C502.071 703.75 503.75 702.071 503.75 700C503.75 697.929 502.071 696.25 500 696.25C497.929 696.25 496.25 697.929 496.25 700C496.25 702.071 497.929 703.75 500 703.75Z" fill="#E8E8E8" fill-opacity="0.28"/>
<path opacity="0.15" d="M600 700H550V750H600V700Z" stroke="#E8E8E8" stroke-opacity="0.28" stroke-width="0.5"/>
<path d="M550 703.75C552.071 703.75 553.75 702.071 553.75 700C553.75 697.929 552.071 696.25 550 696.25C547.929 696.25 546.25 697.929 546.25 700C546.25 702.071 547.929 703.75 550 703.75Z" fill="#E8E8E8" fill-opacity="0.28"/>
<path opacity="0.15" d="M650 700H600V750H650V700Z" stroke="#E8E8E8" stroke-opacity="0.28" stroke-width="0.5"/>
<path d="M600 703.75C602.071 703.75 603.75 702.071 603.75 700C603.75 697.929 602.071 696.25 600 696.25C597.929 696.25 596.25 697.929 596.25 700C596.25 702.071 597.929 703.75 600 703.75Z" fill="#E8E8E8" fill-opacity="0.28"/>
<path opacity="0.15" d="M700 700H650V750H700V700Z" stroke="#E8E8E8" stroke-opacity="0.28" stroke-width="0.5"/>
<path d="M650 703.75C652.071 703.75 653.75 702.071 653.75 700C653.75 697.929 652.071 696.25 650 696.25C647.929 696.25 646.25 697.929 646.25 700C646.25 702.071 647.929 703.75 650 703.75Z" fill="#E8E8E8" fill-opacity="0.28"/>
<path opacity="0.15" d="M750 700H700V750H750V700Z" stroke="#E8E8E8" stroke-opacity="0.28" stroke-width="0.5"/>
<path d="M700 703.75C702.071 703.75 703.75 702.071 703.75 700C703.75 697.929 702.071 696.25 700 696.25C697.929 696.25 696.25 697.929 696.25 700C696.25 702.071 697.929 703.75 700 703.75Z" fill="#E8E8E8" fill-opacity="0.28"/>
<path opacity="0.15" d="M800 700H750V750H800V700Z" stroke="#E8E8E8" stroke-opacity="0.28" stroke-width="0.5"/>
<path d="M750 703.75C752.071 703.75 753.75 702.071 753.75 700C753.75 697.929 752.071 696.25 750 696.25C747.929 696.25 746.25 697.929 746.25 700C746.25 702.071 747.929 703.75 750 703.75Z" fill="#E8E8E8" fill-opacity="0.28"/>
<path opacity="0.15" d="M850 700H800V750H850V700Z" stroke="#E8E8E8" stroke-opacity="0.28" stroke-width="0.5"/>
<path d="M800 703.75C802.071 703.75 803.75 702.071 803.75 700C803.75 697.929 802.071 696.25 800 696.25C797.929 696.25 796.25 697.929 796.25 700C796.25 702.071 797.929 703.75 800 703.75Z" fill="#E8E8E8" fill-opacity="0.28"/>
<path opacity="0.15" d="M50 750H0V800H50V750Z" stroke="#E8E8E8" stroke-opacity="0.28" stroke-width="0.5"/>
<path d="M0 753.75C2.07107 753.75 3.75 752.071 3.75 750C3.75 747.929 2.07107 746.25 0 746.25C-2.07107 746.25 -3.75 747.929 -3.75 750C-3.75 752.071 -2.07107 753.75 0 753.75Z" fill="#E8E8E8" fill-opacity="0.28"/>
<path opacity="0.15" d="M100 750H50V800H100V750Z" stroke="#E8E8E8" stroke-opacity="0.28" stroke-width="0.5"/>
<path d="M50 753.75C52.0711 753.75 53.75 752.071 53.75 750C53.75 747.929 52.0711 746.25 50 746.25C47.9289 746.25 46.25 747.929 46.25 750C46.25 752.071 47.9289 753.75 50 753.75Z" fill="#E8E8E8" fill-opacity="0.28"/>
<path opacity="0.15" d="M150 750H100V800H150V750Z" stroke="#E8E8E8" stroke-opacity="0.28" stroke-width="0.5"/>
<path d="M100 753.75C102.071 753.75 103.75 752.071 103.75 750C103.75 747.929 102.071 746.25 100 746.25C97.9289 746.25 96.25 747.929 96.25 750C96.25 752.071 97.9289 753.75 100 753.75Z" fill="#E8E8E8" fill-opacity="0.28"/>
<path opacity="0.15" d="M200 750H150V800H200V750Z" stroke="#E8E8E8" stroke-opacity="0.28" stroke-width="0.5"/>
<path d="M150 753.75C152.071 753.75 153.75 752.071 153.75 750C153.75 747.929 152.071 746.25 150 746.25C147.929 746.25 146.25 747.929 146.25 750C146.25 752.071 147.929 753.75 150 753.75Z" fill="#E8E8E8" fill-opacity="0.28"/>
<path opacity="0.15" d="M250 750H200V800H250V750Z" stroke="#E8E8E8" stroke-opacity="0.28" stroke-width="0.5"/>
<path d="M200 753.75C202.071 753.75 203.75 752.071 203.75 750C203.75 747.929 202.071 746.25 200 746.25C197.929 746.25 196.25 747.929 196.25 750C196.25 752.071 197.929 753.75 200 753.75Z" fill="#E8E8E8" fill-opacity="0.28"/>
<path opacity="0.15" d="M300 750H250V800H300V750Z" stroke="#E8E8E8" stroke-opacity="0.28" stroke-width="0.5"/>
<path d="M250 753.75C252.071 753.75 253.75 752.071 253.75 750C253.75 747.929 252.071 746.25 250 746.25C247.929 746.25 246.25 747.929 246.25 750C246.25 752.071 247.929 753.75 250 753.75Z" fill="#E8E8E8" fill-opacity="0.28"/>
<path opacity="0.15" d="M350 750H300V800H350V750Z" stroke="#E8E8E8" stroke-opacity="0.28" stroke-width="0.5"/>
<path d="M300 753.75C302.071 753.75 303.75 752.071 303.75 750C303.75 747.929 302.071 746.25 300 746.25C297.929 746.25 296.25 747.929 296.25 750C296.25 752.071 297.929 753.75 300 753.75Z" fill="#E8E8E8" fill-opacity="0.28"/>
<path opacity="0.15" d="M400 750H350V800H400V750Z" stroke="#E8E8E8" stroke-opacity="0.28" stroke-width="0.5"/>
<path d="M350 753.75C352.071 753.75 353.75 752.071 353.75 750C353.75 747.929 352.071 746.25 350 746.25C347.929 746.25 346.25 747.929 346.25 750C346.25 752.071 347.929 753.75 350 753.75Z" fill="#E8E8E8" fill-opacity="0.28"/>
<path opacity="0.15" d="M450 750H400V800H450V750Z" stroke="#E8E8E8" stroke-opacity="0.28" stroke-width="0.5"/>
<path d="M400 753.75C402.071 753.75 403.75 752.071 403.75 750C403.75 747.929 402.071 746.25 400 746.25C397.929 746.25 396.25 747.929 396.25 750C396.25 752.071 397.929 753.75 400 753.75Z" fill="#E8E8E8" fill-opacity="0.28"/>
<path opacity="0.15" d="M500 750H450V800H500V750Z" stroke="#E8E8E8" stroke-opacity="0.28" stroke-width="0.5"/>
<path d="M450 753.75C452.071 753.75 453.75 752.071 453.75 750C453.75 747.929 452.071 746.25 450 746.25C447.929 746.25 446.25 747.929 446.25 750C446.25 752.071 447.929 753.75 450 753.75Z" fill="#E8E8E8" fill-opacity="0.28"/>
<path opacity="0.15" d="M550 750H500V800H550V750Z" stroke="#E8E8E8" stroke-opacity="0.28" stroke-width="0.5"/>
<path d="M500 753.75C502.071 753.75 503.75 752.071 503.75 750C503.75 747.929 502.071 746.25 500 746.25C497.929 746.25 496.25 747.929 496.25 750C496.25 752.071 497.929 753.75 500 753.75Z" fill="#E8E8E8" fill-opacity="0.28"/>
<path opacity="0.15" d="M600 750H550V800H600V750Z" stroke="#E8E8E8" stroke-opacity="0.28" stroke-width="0.5"/>
<path d="M550 753.75C552.071 753.75 553.75 752.071 553.75 750C553.75 747.929 552.071 746.25 550 746.25C547.929 746.25 546.25 747.929 546.25 750C546.25 752.071 547.929 753.75 550 753.75Z" fill="#E8E8E8" fill-opacity="0.28"/>
<path opacity="0.15" d="M650 750H600V800H650V750Z" stroke="#E8E8E8" stroke-opacity="0.28" stroke-width="0.5"/>
<path d="M600 753.75C602.071 753.75 603.75 752.071 603.75 750C603.75 747.929 602.071 746.25 600 746.25C597.929 746.25 596.25 747.929 596.25 750C596.25 752.071 597.929 753.75 600 753.75Z" fill="#E8E8E8" fill-opacity="0.28"/>
<path opacity="0.15" d="M700 750H650V800H700V750Z" stroke="#E8E8E8" stroke-opacity="0.28" stroke-width="0.5"/>
<path d="M650 753.75C652.071 753.75 653.75 752.071 653.75 750C653.75 747.929 652.071 746.25 650 746.25C647.929 746.25 646.25 747.929 646.25 750C646.25 752.071 647.929 753.75 650 753.75Z" fill="#E8E8E8" fill-opacity="0.28"/>
<path opacity="0.15" d="M750 750H700V800H750V750Z" stroke="#E8E8E8" stroke-opacity="0.28" stroke-width="0.5"/>
<path d="M700 753.75C702.071 753.75 703.75 752.071 703.75 750C703.75 747.929 702.071 746.25 700 746.25C697.929 746.25 696.25 747.929 696.25 750C696.25 752.071 697.929 753.75 700 753.75Z" fill="#E8E8E8" fill-opacity="0.28"/>
<path opacity="0.15" d="M800 750H750V800H800V750Z" stroke="#E8E8E8" stroke-opacity="0.28" stroke-width="0.5"/>
<path d="M750 753.75C752.071 753.75 753.75 752.071 753.75 750C753.75 747.929 752.071 746.25 750 746.25C747.929 746.25 746.25 747.929 746.25 750C746.25 752.071 747.929 753.75 750 753.75Z" fill="#E8E8E8" fill-opacity="0.28"/>
<path opacity="0.15" d="M850 750H800V800H850V750Z" stroke="#E8E8E8" stroke-opacity="0.28" stroke-width="0.5"/>
<path d="M800 753.75C802.071 753.75 803.75 752.071 803.75 750C803.75 747.929 802.071 746.25 800 746.25C797.929 746.25 796.25 747.929 796.25 750C796.25 752.071 797.929 753.75 800 753.75Z" fill="#E8E8E8" fill-opacity="0.28"/>
<path opacity="0.15" d="M50 800H0V850H50V800Z" stroke="#E8E8E8" stroke-opacity="0.28" stroke-width="0.5"/>
<path d="M0 803.75C2.07107 803.75 3.75 802.071 3.75 800C3.75 797.929 2.07107 796.25 0 796.25C-2.07107 796.25 -3.75 797.929 -3.75 800C-3.75 802.071 -2.07107 803.75 0 803.75Z" fill="#E8E8E8" fill-opacity="0.28"/>
<path opacity="0.15" d="M100 800H50V850H100V800Z" stroke="#E8E8E8" stroke-opacity="0.28" stroke-width="0.5"/>
<path d="M50 803.75C52.0711 803.75 53.75 802.071 53.75 800C53.75 797.929 52.0711 796.25 50 796.25C47.9289 796.25 46.25 797.929 46.25 800C46.25 802.071 47.9289 803.75 50 803.75Z" fill="#E8E8E8" fill-opacity="0.28"/>
<path opacity="0.15" d="M150 800H100V850H150V800Z" stroke="#E8E8E8" stroke-opacity="0.28" stroke-width="0.5"/>
<path d="M100 803.75C102.071 803.75 103.75 802.071 103.75 800C103.75 797.929 102.071 796.25 100 796.25C97.9289 796.25 96.25 797.929 96.25 800C96.25 802.071 97.9289 803.75 100 803.75Z" fill="#E8E8E8" fill-opacity="0.28"/>
<path opacity="0.15" d="M200 800H150V850H200V800Z" stroke="#E8E8E8" stroke-opacity="0.28" stroke-width="0.5"/>
<path d="M150 803.75C152.071 803.75 153.75 802.071 153.75 800C153.75 797.929 152.071 796.25 150 796.25C147.929 796.25 146.25 797.929 146.25 800C146.25 802.071 147.929 803.75 150 803.75Z" fill="#E8E8E8" fill-opacity="0.28"/>
<path opacity="0.15" d="M250 800H200V850H250V800Z" stroke="#E8E8E8" stroke-opacity="0.28" stroke-width="0.5"/>
<path d="M200 803.75C202.071 803.75 203.75 802.071 203.75 800C203.75 797.929 202.071 796.25 200 796.25C197.929 796.25 196.25 797.929 196.25 800C196.25 802.071 197.929 803.75 200 803.75Z" fill="#E8E8E8" fill-opacity="0.28"/>
<path opacity="0.15" d="M300 800H250V850H300V800Z" stroke="#E8E8E8" stroke-opacity="0.28" stroke-width="0.5"/>
<path d="M250 803.75C252.071 803.75 253.75 802.071 253.75 800C253.75 797.929 252.071 796.25 250 796.25C247.929 796.25 246.25 797.929 246.25 800C246.25 802.071 247.929 803.75 250 803.75Z" fill="#E8E8E8" fill-opacity="0.28"/>
<path opacity="0.15" d="M350 800H300V850H350V800Z" stroke="#E8E8E8" stroke-opacity="0.28" stroke-width="0.5"/>
<path d="M300 803.75C302.071 803.75 303.75 802.071 303.75 800C303.75 797.929 302.071 796.25 300 796.25C297.929 796.25 296.25 797.929 296.25 800C296.25 802.071 297.929 803.75 300 803.75Z" fill="#E8E8E8" fill-opacity="0.28"/>
<path opacity="0.15" d="M400 800H350V850H400V800Z" stroke="#E8E8E8" stroke-opacity="0.28" stroke-width="0.5"/>
<path d="M350 803.75C352.071 803.75 353.75 802.071 353.75 800C353.75 797.929 352.071 796.25 350 796.25C347.929 796.25 346.25 797.929 346.25 800C346.25 802.071 347.929 803.75 350 803.75Z" fill="#E8E8E8" fill-opacity="0.28"/>
<path opacity="0.15" d="M450 800H400V850H450V800Z" stroke="#E8E8E8" stroke-opacity="0.28" stroke-width="0.5"/>
<path d="M400 803.75C402.071 803.75 403.75 802.071 403.75 800C403.75 797.929 402.071 796.25 400 796.25C397.929 796.25 396.25 797.929 396.25 800C396.25 802.071 397.929 803.75 400 803.75Z" fill="#E8E8E8" fill-opacity="0.28"/>
<path opacity="0.15" d="M500 800H450V850H500V800Z" stroke="#E8E8E8" stroke-opacity="0.28" stroke-width="0.5"/>
<path d="M450 803.75C452.071 803.75 453.75 802.071 453.75 800C453.75 797.929 452.071 796.25 450 796.25C447.929 796.25 446.25 797.929 446.25 800C446.25 802.071 447.929 803.75 450 803.75Z" fill="#E8E8E8" fill-opacity="0.28"/>
<path opacity="0.15" d="M550 800H500V850H550V800Z" stroke="#E8E8E8" stroke-opacity="0.28" stroke-width="0.5"/>
<path d="M500 803.75C502.071 803.75 503.75 802.071 503.75 800C503.75 797.929 502.071 796.25 500 796.25C497.929 796.25 496.25 797.929 496.25 800C496.25 802.071 497.929 803.75 500 803.75Z" fill="#E8E8E8" fill-opacity="0.28"/>
<path opacity="0.15" d="M600 800H550V850H600V800Z" stroke="#E8E8E8" stroke-opacity="0.28" stroke-width="0.5"/>
<path d="M550 803.75C552.071 803.75 553.75 802.071 553.75 800C553.75 797.929 552.071 796.25 550 796.25C547.929 796.25 546.25 797.929 546.25 800C546.25 802.071 547.929 803.75 550 803.75Z" fill="#E8E8E8" fill-opacity="0.28"/>
<path opacity="0.15" d="M650 800H600V850H650V800Z" stroke="#E8E8E8" stroke-opacity="0.28" stroke-width="0.5"/>
<path d="M600 803.75C602.071 803.75 603.75 802.071 603.75 800C603.75 797.929 602.071 796.25 600 796.25C597.929 796.25 596.25 797.929 596.25 800C596.25 802.071 597.929 803.75 600 803.75Z" fill="#E8E8E8" fill-opacity="0.28"/>
<path opacity="0.15" d="M700 800H650V850H700V800Z" stroke="#E8E8E8" stroke-opacity="0.28" stroke-width="0.5"/>
<path d="M650 803.75C652.071 803.75 653.75 802.071 653.75 800C653.75 797.929 652.071 796.25 650 796.25C647.929 796.25 646.25 797.929 646.25 800C646.25 802.071 647.929 803.75 650 803.75Z" fill="#E8E8E8" fill-opacity="0.28"/>
<path opacity="0.15" d="M750 800H700V850H750V800Z" stroke="#E8E8E8" stroke-opacity="0.28" stroke-width="0.5"/>
<path d="M700 803.75C702.071 803.75 703.75 802.071 703.75 800C703.75 797.929 702.071 796.25 700 796.25C697.929 796.25 696.25 797.929 696.25 800C696.25 802.071 697.929 803.75 700 803.75Z" fill="#E8E8E8" fill-opacity="0.28"/>
<path opacity="0.15" d="M800 800H750V850H800V800Z" stroke="#E8E8E8" stroke-opacity="0.28" stroke-width="0.5"/>
<path d="M750 803.75C752.071 803.75 753.75 802.071 753.75 800C753.75 797.929 752.071 796.25 750 796.25C747.929 796.25 746.25 797.929 746.25 800C746.25 802.071 747.929 803.75 750 803.75Z" fill="#E8E8E8" fill-opacity="0.28"/>
<path opacity="0.15" d="M850 800H800V850H850V800Z" stroke="#E8E8E8" stroke-opacity="0.28" stroke-width="0.5"/>
<path d="M800 803.75C802.071 803.75 803.75 802.071 803.75 800C803.75 797.929 802.071 796.25 800 796.25C797.929 796.25 796.25 797.929 796.25 800C796.25 802.071 797.929 803.75 800 803.75Z" fill="#E8E8E8" fill-opacity="0.28"/>
</g>
<defs>
<clipPath id="clip0_302_585">
<rect width="800" height="800" fill="white"/>
</clipPath>
</defs>
</svg>
