<svg viewBox="0 0 678 87" fill="none" xmlns="http://www.w3.org/2000/svg">
<path d="M0 87V0C0 0 0 4.73062 2.59439 9.44571C4.32398 12.1878 9.51338 18.3073 24.2143 21.3771C38.9151 24.447 60.5357 24.2624 93.398 24.447C126.26 24.6317 145.286 24.447 145.286 24.447H593.25C593.25 24.447 602.763 24.36 610.546 24.8571C618.329 25.3543 625.247 29.2167 625.247 29.2167C636.49 34.5705 636.49 45.24 636.49 45.24L637.5 63C637.5 68.8643 639.949 74.8803 649.462 79.5718C658.974 84.2633 678 87 678 87H0Z" fill="black"/>
</svg>
