<svg width="360" height="133" viewBox="0 0 360 133" fill="none" xmlns="http://www.w3.org/2000/svg">
<path d="M359 129C358 127.5 353.166 118.697 348.366 114.314C343.166 109.574 334.366 105.28 324.5 102.507C318.277 100.754 316.003 100.637 218.661 100.266C212.172 100.241 205.26 100.215 197.897 100.188H197.896L196.366 100.182C196.366 100.182 90.5 100 80 99.5002C76 99.5002 64 96.2682 64 96.2682C64 96.2682 48.5 92.5002 43 80.0002C43 80.0002 40.3661 76.1245 39.5764 52.6374L39.566 52.3274C39.0327 30.7705 38 30.5 36.2327 23.6147C27.5 -1.50027 0 0.000501722 0 0.000501722C9.0001 -0.00613218 14.8992 0.0899499 176.099 0.0899499L360 0.08995V66.5002V133C360 133 360 130.5 359 129Z" fill="black"/>
</svg>
