<svg width="442" height="187" viewBox="0 0 442 187" fill="none" xmlns="http://www.w3.org/2000/svg">
<path d="M0.34668 0H441.5C441.5 0 434.414 -0.000491858 424.5 1.50049C415.655 2.83918 402.802 5.3132 397.5 9C386.104 16.9252 386.275 28.8189 386.275 37.1043C386.275 43.1003 385.001 106 381.501 122.5C378.001 139 362.001 156 329.42 157.783H108.393C108.393 157.783 78.7604 157.22 60.1804 158.504C45.1092 159.546 28.2927 159.269 16 163C10.5 165.5 9 166.5 5 170C0.709653 173.754 0.34668 186.5 0.34668 186.5V129.5V91.0495V45.5V0Z" fill="black"/>
</svg>
